<svg xmlns="http://www.w3.org/2000/svg" viewBox="0 0 64 64">
    <g transform="translate(-366 -70)">
        <rect width="64" height="64" x="366" y="70" fill="#758C8E"/>
        <path fill="#33E27D" stroke="none" d=" M 430 77.95 Q 430 70 422.05 70 L 373.95 70 Q 366 70 366 77.95 L 366 126.05 Q 366 134 373.95 134 L 422.05 134 Q 430 134 430 126.05 L 430 77.95 M 422.05 72 Q 428 72 428 77.95 L 428 126.05 Q 428 132 422.05 132 L 373.95 132 Q 368 132 368 126.05 L 368 77.95 Q 368 72 373.95 72 L 422.05 72 Z"/>
        <path fill="#2ECC71" stroke="none" d=" M 428 77.95 Q 428 72 422.05 72 L 373.95 72 Q 368 72 368 77.95 L 368 126.05 Q 368 132 373.95 132 L 422.05 132 Q 428 132 428 126.05 L 428 77.95 M 410 80 L 420 80 420 90 420 114 420 124 410 124 386 124 376 124 376 114 376 90 376 80 386 80 410 80 Z"/>
        <path fill="#28B462" stroke="none" d=" M 420 124 L 420 114 410.5 104.5 400.5 114.5 410 124 420 124 M 386 124 L 395.5 114.5 385.5 104.5 376 114 376 124 386 124 M 388 102 L 398 112 408 102 398 92 388 102 M 395.5 89.5 L 386 80 376 80 376 90 385.5 99.5 395.5 89.5 M 420 80 L 410 80 400.5 89.5 410.5 99.5 420 90 420 80 Z"/>
        <path fill="#219853" stroke="none" d=" M 386 80 L 395.5 89.5 385.5 99.5 376 90 376 114 385.5 104.5 395.5 114.5 386 124 410 124 400.5 114.5 410.5 104.5 420 114 420 90 410.5 99.5 400.5 89.5 410 80 386 80 M 398 112 L 388 102 398 92 408 102 398 112 Z"/>
    </g>
</svg>
