<svg xmlns="http://www.w3.org/2000/svg" viewBox="0 0 64 64">
    <g transform="translate(-70 -440)">
        <path fill="#694C39" stroke="none" d="
M 89.1 446
Q 82.95 446.85 82.15 451.85 82 452.2 82 452.6
L 82 462.55
Q 81.95 464.4 82.85 465.5 81.85 465.85 81 466.6
L 80.95 466.65
Q 78.95 468.45 79 470.9
L 79 471.05
Q 79 473.55 80.95 475.2 82.15 476.4 83.7 476.8 83.7 476.846875 83.75 476.9
L 83.7 476.85
Q 83.75 477.4 83.9 477.85 83.05 478.3 82.35 479.05 82.3 479.05 82.3 479.1 79.95 481.35 80 484.4 80 485.85 80.55 487.15 80.45 488.4 80.85 489.85
L 80.85 489.9
Q 81.5 492.4 83.65 493.95 83.7 494 83.8 494.05 83.9 494.1 84 494.15 84 494.45 84.05 494.75 84 496.6 86.75 497.9
L 86.7 497.9
Q 86.8 497.95 86.9 498 87 498.05 87.05 498.05 87.6 498.3 88.3 498.5 88.35 498.5 88.4 498.55 90.1 499 92.2 499 94.3 499 96 498.55 96.05 498.5 96.15 498.5 96.7 498.25 97.25 498.05 97.3 498.05 97.4 498 98.6 497.4 99.25 496.8 99.35 496.7 99.4 496.65 100.1 495.8 100.3 495 100.35 494.75 100.35 494.5 100.35 494.4 100.35 494.25 100.35 494.2 100.35 494.05 100.35 493.7 100.35 493.35 101.1 493.25 102 493.25 102.9 493.25 103.7 493.35 103.65 493.7 103.65 494.05 103.65 494.45 103.7 494.75 103.65 496.6 106.4 497.9
L 106.35 497.9
Q 106.55 498 106.9 498.1 107.35 498.3 107.9 498.5 107.95 498.5 108.05 498.55 109.75 499 111.85 499 114 499 115.65 498.55 115.7 498.5 115.8 498.5 116.35 498.3 116.9 498.1 117 498.05 117.15 498 118.25 497.4 118.9 496.8 119 496.7 119.05 496.65 119.75 495.8 119.95 495 120 494.75 120 494.5 120 494.4 120 494.25 120 494.2 120 494.15 120.1 494.1 120.25 494.05 120.3 494 120.35 493.95 122.5 492.4 123.2 489.9
L 123.2 489.85
Q 123.55 488.4 123.45 487.15 124 485.85 124 484.4 124.05 481.35 121.7 479.1 121.7 479.05 121.65 479.05 121 478.35 120.2 477.9 120.25 477.7 120.3 477.5
L 120.3 477.45
Q 120.35 477.25 120.4 477.1 120.45 476.9 120.45 476.75 121.85 476.35 123 475.3 125.05 473.55 125 471.05 125 468.4 123.05 466.65
L 123 466.6
Q 122.15 465.85 121.15 465.5 122 464.4 122 462.55
L 122 452.6
Q 122 452.15 121.85 451.8 121 446.85 114.95 446.05 102 444.05 89.15 446
L 89.1 446 Z"/>
        <path fill="#333333" stroke="none" d="
M 92.2 489
Q 89.65 489 87.8 490.5 86 491.95 86 494.05 86 494.2 86.05 494.25 86.05 494.4 86.05 494.5 86.15 495.4 87.6 496.1 87.7 496.15 87.8 496.2 88.3 496.4 88.9 496.6 90.4 497 92.2 497 94 497 95.45 496.6 96 496.4 96.5 496.2 97.4 495.75 97.9 495.3 98.25 494.9 98.35 494.5 98.35 494.4 98.35 494.25 98.35 494.2 98.35 494.05 98.35 491.95 96.5 490.5 94.75 489 92.2 489 Z"/>
        <path fill="#333333" stroke="none" d="
M 111.85 489
Q 109.3 489 107.5 490.5 105.65 491.95 105.65 494.05 105.65 494.2 105.7 494.25 105.7 494.4 105.7 494.5 105.8 495.4 107.25 496.1 107.35 496.15 107.5 496.2 108 496.4 108.55 496.6 110.05 497 111.85 497 113.7 497 115.1 496.6 115.65 496.4 116.2 496.2 117.05 495.75 117.55 495.3 117.9 494.9 118 494.5 118 494.4 118 494.25 118 494.2 118 494.05 118 491.95 116.2 490.5 114.4 489 111.85 489 Z"/>
        <path fill="#CD4335" stroke="none" d="
M 95.8 493
Q 96 492.85 96.25 492.65 98.6 491.25 102 491.25 105.4 491.25 107.75 492.65 107.95 492.85 108.2 493
L 109.75 493
Q 109.15 490.8 107.75 488.9 107.5 488.6 107.3 488.35 105.05 485.95 102 485.95 98.95 485.95 96.75 488.35 96.5 488.6 96.25 488.9 94.8 490.8 94.25 493
L 95.8 493 Z"/>
        <path fill="#E74C3C" stroke="none" d="
M 86.25 491.35
Q 87.25 493 89.75 493
L 94.25 493
Q 94.8 490.8 96.25 488.9 96.5 488.6 96.75 488.35 98.95 485.95 102 485.95 105.05 485.95 107.3 488.35 107.5 488.6 107.75 488.9 109.15 490.8 109.75 493
L 114.25 493
Q 117.65 493 118.35 490.05 118.4 489.85 118.45 489.65 118.45 489.5 118.5 489.3 118.55 488.85 118.65 488.35
L 118.65 488.3
Q 119.15 480.75 115.45 477.45
L 88.6 477.45
Q 84.95 481 85.5 488.35 85.55 489 85.7 489.65 85.75 490.1 85.85 490.4 86 490.95 86.25 491.35 Z"/>
        <path fill="#D7BD93" stroke="none" d="
M 85.4 467
Q 83.6 467 82.3 468.1 81 469.3 81 470.9
L 81 471.05
Q 81 472.7 82.3 473.75 83.6 475 85.4 475 87.25 475 88.55 473.75 89.85 472.65 89.85 471.05 89.85 469.3 88.55 468.1 87.25 467 85.4 467
M 118.55 467
Q 116.7 467 115.4 468.1 114.15 469.3 114.1 470.9
L 114.1 471.05
Q 114.15 472.7 115.4 473.75 116.7 475 118.55 475 120.4 475 121.7 473.75 123 472.65 123 471.05 123 469.3 121.7 468.1 120.4 467 118.55 467 Z"/>
        <path fill="#2ECC71" stroke="none" d="
M 94.25 480.3
Q 94.8 481.5 96.25 482.45 98.6 484 102 484 105.4 484 107.75 482.45 109.15 481.5 109.75 480.3
L 94.25 480.3 Z"/>
        <path fill="#694C39" stroke="none" d="
M 85.05 466.15
Q 85 467.7 85.05 469.3 89.8 465.45 89.8 457.1 89.75 456.6 89.75 456 87.85 456 86.8 457.1 85.9 458.05 85.7 459.75 85.2 462.95 85.05 466.15
M 114.25 456
Q 114.3 456.6 114.35 457.1 115 465.1 119 469.3 119.05 467.4 118.95 465.5 118.75 462.6 118.4 459.65 118.15 458.05 117.3 457.1 116.25 456 114.25 456 Z"/>
        <path fill="#FFE0B1" stroke="none" d="
M 114.35 457.1
Q 114.3 456.6 114.25 456
L 89.75 456
Q 89.75 456.6 89.8 457.1 89.8 465.45 85.05 469.3 85.1 472.95 85.7 476.6 85.75 477.05 85.85 477.4 86 478.05 86.25 478.5 87.25 480.3 89.75 480.3
L 94.25 480.3 109.75 480.3 114.25 480.3
Q 117.65 480.3 118.35 477.05 118.4 476.8 118.45 476.6 118.45 476.4 118.5 476.2 118.9 473.1 119 469.9 119 469.6 119 469.3 115 465.1 114.35 457.1 Z"/>
        <path fill="#694C39" stroke="none" d="
M 112.4 472.1
Q 113 471.3 113 470 113 468.7 112.4 467.9 111.9 467 111 467 110.2 467 109.6 467.9 109 468.7 109 470 109 471.3 109.6 472.1 110.2 473 111 473 111.9 473 112.4 472.1 Z"/>
        <path fill="#694C39" stroke="none" d="
M 91 470
Q 91 471.3 91.6 472.1 92.2 473 93 473 93.85 473 94.4 472.1 95 471.3 95 470 95 468.7 94.4 467.9 93.85 467 93 467 92.2 467 91.6 467.9 91 468.7 91 470 Z"/>
        <path fill="#694C39" stroke="none" d="
M 95 477.3
Q 95 478.05 97.05 478.5 99.15 479 102 479 104.9 479 107 478.5 109 478.05 109 477.3 109 475.55 107 474.3 104.9 473 102 473 99.15 473 97.05 474.3 95.2 475.55 95 477.3 Z"/>
        <path fill="#28B162" stroke="none" d="
M 119.95 452.6
Q 119.4 448.65 114.65 448 102 446.05 89.4 447.95 84.55 448.65 84.05 452.6
L 84 452.6 84 460.2
Q 102.25 458.15 120 460.2
L 120 452.6 119.95 452.6 Z"/>
        <path fill="#2ECC71" stroke="none" d="
M 117.35 465
Q 120 465 120 462.55
L 120 460.2
Q 102.25 458.15 84 460.2
L 84 462.55
Q 83.95 465 86.65 465
L 117.35 465 Z"/>
        <path fill="#D7BD93" stroke="none" d="
M 99 473.9
Q 99 474.35 99.9 474.7 100.8 475 102.05 475 103.25 475 104.15 474.7 105 474.35 105 473.9 105 472.75 104.15 471.9 103.25 471 102.05 471 100.8 471 99.9 471.9 99.1 472.75 99 473.9 Z"/>
        <path fill="#FFE0B1" stroke="none" d="
M 90.8 483.15
Q 90.5 483 90.25 482.9 88.5 482.05 86.7 482.55 84.35 483.2 83.2 485.15 82.7 486 82.6 486.8 82.4 488 82.75 489.35 83.25 491.2 84.8 492.3 85.05 492.45 85.35 492.6 85.45 492.7 85.55 492.75 86.7 493.35 88.2 492.45 89.85 491.55 90.95 489.55 92.1 487.65 92.1 485.7 92.05 483.95 91 483.3 90.95 483.25 90.9 483.25 90.85 483.2 90.8 483.15 Z"/>
        <path fill="#2ECC71" stroke="none" d="
M 86.45 479
Q 84.85 479.3 83.75 480.45 82 482.15 82 484.4 82 485.7 82.6 486.8 82.7 486 83.2 485.15 84.35 483.2 86.7 482.55 88.5 482.05 90.25 482.9 90.5 483 90.8 483.15 86.75 480.35 86.45 479 Z"/>
        <path fill="#FFE0B1" stroke="none" d="
M 121.4 486.8
Q 121.25 486 120.8 485.15 119.65 483.2 117.3 482.55 115.5 482.05 113.75 482.9 113.5 483 113.2 483.15 113.15 483.2 113.1 483.25 113.05 483.25 113 483.3 111.95 483.95 111.9 485.7 111.9 487.65 113.05 489.55 114.15 491.55 115.8 492.45 117.3 493.35 118.45 492.75 118.55 492.7 118.65 492.6 118.95 492.45 119.2 492.3 120.75 491.2 121.25 489.35 121.6 488 121.4 486.8 Z"/>
        <path fill="#2ECC71" stroke="none" d="
M 120.25 480.45
Q 119.15 479.3 117.55 479 117.25 480.35 113.2 483.15 113.5 483 113.75 482.9 115.5 482.05 117.3 482.55 119.65 483.2 120.8 485.15 121.25 486 121.4 486.8 122 485.7 122 484.4 122 482.15 120.25 480.45 Z"/>
        <path fill="#FFFFFF" stroke="none" d="
M 101.95 453
Q 98.65 453 96.25 454.9 94.2 456.65 94 459
L 110 459
Q 109.75 456.65 107.6 454.9 105.3 453 101.95 453 Z"/>
    </g>
</svg>
