<svg xmlns="http://www.w3.org/2000/svg" viewBox="0 0 64 64">
    <g transform="translate(-884 -514)">
        <rect width="64" height="64" x="884" y="514" fill="#758C8E"/>
        <path fill="#849EA1" stroke="none" d=" M 944.7 564.2 Q 944.1 564.65 942.65 566.05 941.3 567.5 940.85 568.05 940.1 569.1 940.15 569.85 940.1 570.65 940.85 571.65 941.3 572.25 942.65 573.7 944.1 575.1 944.7 575.5 945.7 576.25 946.5 576.2 947.15 576.25 948 575.7 L 948 564 Q 947.15 563.5 946.5 563.5 945.7 563.5 944.7 564.2 M 948 517.55 Q 947.95 517.55 947.95 517.6 947.75 517.75 947.65 517.95 947.6 518 947.55 518.05 946.4 519.4 946.35 520.5 946.2 521.65 947.2 523.15 947.45 523.6 947.95 524.25 L 948 524.3 948 517.55 M 889.5 576.85 Q 888.95 577.2 888 578 L 895.4 578 Q 894.95 577.5 894.65 577.25 893.25 576.05 892.15 576.05 891 575.9 889.5 576.85 M 888.15 568.05 Q 887.75 567.5 886.35 566.05 884.85 564.65 884.3 564.2 884.15 564.1 884 564 L 884 575.75 Q 884.15 575.65 884.3 575.5 884.85 575.1 886.35 573.7 887.75 572.2 888.15 571.65 888.9 570.65 888.85 569.85 888.9 569.1 888.15 568.05 M 928.2 554.7 Q 927.55 555.4 927.05 555.95 926.05 557.05 925.6 557.65 924.5 559.1 924.55 560.2 924.5 561.35 925.6 562.8 926.25 563.7 928.2 565.75 930.25 567.7 931.15 568.4 932.6 569.45 933.7 569.4 934.85 569.45 936.3 568.4 937.15 567.75 939.25 565.75 941.25 563.7 941.9 562.8 942.95 561.35 942.9 560.2 942.95 559.1 941.9 557.65 941.45 557.05 940.45 555.95 939.9 555.4 939.25 554.7 937.15 552.7 936.3 552.05 934.85 551 933.7 551.05 932.6 551 931.15 552.05 930.25 552.75 928.2 554.7 M 928.9 523.45 Q 927.45 522.05 926.85 521.65 925.85 520.9 925.05 520.9 924.3 520.9 923.3 521.65 922.7 522.05 921.25 523.45 919.85 524.9 919.4 525.5 918.7 526.5 918.7 527.25 918.7 528.05 919.4 529.05 919.85 529.65 921.25 531.1 922.7 532.5 923.3 532.95 924.3 533.65 925.05 533.65 925.85 533.65 926.85 532.95 927.45 532.5 928.9 531.1 930.3 529.65 930.7 529.05 931.45 528.05 931.4 527.25 931.45 526.5 930.7 525.5 930.3 524.95 928.9 523.45 M 888 514 Q 887.3 514.5 886.35 515.25 884.75 516.7 884 517.55 L 884 524.3 Q 884.6 525.1 885.55 526.3 887.5 528.45 888.3 529.15 889.65 530.3 890.8 530.35 891.9 530.45 893.45 529.5 894.4 528.9 896.55 527.1 898.7 525.2 899.4 524.35 900.55 523 900.6 521.85 900.75 520.75 899.8 519.2 899.5 518.75 898.95 517.95 898.3 517.15 897.4 516.05 896.2 514.75 895.4 514 L 888 514 Z"/>
        <path fill="#7D9598" stroke="none" d=" M 931.1 576.45 Q 930.25 577.3 929.65 578 L 943.6 578 Q 942.95 577.3 942.15 576.45 940.05 574.45 939.2 573.85 937.75 572.8 936.6 572.8 935.5 572.8 934.05 573.85 933.15 574.5 931.1 576.45 M 916.25 566.55 Q 914.2 565.05 912.6 565.1 911.05 565.05 909 566.55 907.8 567.45 904.85 570.25 902.05 573.2 901.15 574.45 899.65 576.45 899.7 578 L 925.55 578 Q 925.6 576.45 924.1 574.45 923.2 573.2 920.4 570.25 917.45 567.45 916.25 566.55 M 923.9 517.95 Q 924 517.8 924.1 517.65 925.6 515.6 925.55 514 L 899.7 514 Q 899.65 515.6 901.15 517.65 901.25 517.8 901.4 517.95 902.35 519.2 904.85 521.8 907.8 524.6 909 525.5 911.05 527 912.6 526.95 914.2 527 916.25 525.5 917.45 524.6 920.4 521.8 922.9 519.2 923.9 517.95 M 948 527.55 L 947.95 527.55 Q 945.9 526 944.25 526.05 942.6 526 940.5 527.55 939.2 528.5 936.15 531.4 933.25 534.45 932.3 535.75 930.75 537.9 930.8 539.55 930.75 541.2 932.3 543.3 933.25 544.6 936.15 547.65 939.2 550.55 940.5 551.5 942.6 553.05 944.25 553 945.9 553.05 948 551.55 L 948 527.55 M 945.8 517.95 Q 945.8 516.8 944.75 515.4 944.4 514.9 943.55 514 L 929.7 514 Q 928.85 514.9 928.45 515.4 927.4 516.8 927.45 517.95 L 927.45 518 Q 927.4 519.1 928.45 520.55 929.1 521.45 931.1 523.5 933.15 525.5 934.05 526.15 935.5 527.2 936.6 527.15 937.75 527.2 939.2 526.15 940.05 525.5 942.15 523.5 944.1 521.45 944.75 520.55 945.8 519.1 945.8 518 L 945.8 517.95 M 888.35 531.4 Q 885.25 528.45 884.05 527.55 L 884 527.55 884 551.55 884.05 551.5 Q 885.25 550.6 888.35 547.65 891.25 544.6 892.2 543.3 893.75 541.2 893.7 539.55 893.75 537.9 892.2 535.75 891.25 534.45 888.35 531.4 M 908.45 537.05 Q 905.35 539.9 904.35 541.15 902.65 543.2 902.6 544.85 902.45 546.45 903.9 548.7 904.75 550 907.5 553.25 909 554.9 910.1 555.95 911 556.9 911.6 557.35 913.65 559 915.25 559.05 916.9 559.2 919.15 557.8 919.95 557.25 921.6 555.95 922.5 555.2 923.7 554.2 926.75 551.35 927.8 550.1 929.5 548.05 929.55 546.4 929.7 544.75 928.25 542.55 927.4 541.25 924.65 538 921.8 534.9 920.55 533.9 918.5 532.2 916.85 532.15 915.2 532 913 533.45 911.65 534.3 908.45 537.05 M 903 528.7 Q 902.1 527.8 901.35 527.7 900.6 527.6 899.5 528.15 898.85 528.5 897.2 529.65 895.65 530.9 895.1 531.45 894.25 532.35 894.15 533.1 894 533.85 894.6 534.95 894.95 535.6 896.1 537.25 897.3 538.85 897.85 539.35 898.75 540.25 899.5 540.3 900.3 540.45 901.35 539.85 902.05 539.5 903.65 538.35 905.25 537.1 905.75 536.6 906.65 535.7 906.7 534.95 906.85 534.15 906.3 533.1 905.95 532.45 904.8 530.8 903.55 529.2 903 528.7 M 889.25 555.95 L 889.2 556 Q 888.3 557.55 888.45 558.65 888.5 559.75 889.75 561.1 890.45 561.9 892.65 563.75 894.95 565.5 895.9 566 897.45 566.9 898.55 566.75 899.7 566.65 901 565.45 901.8 564.7 903.65 562.5 905.4 560.25 905.95 559.3 906.85 557.75 906.65 556.6 906.65 556.3 906.55 555.95 906.25 555.1 905.35 554.15 904.6 553.35 902.45 551.55 900.15 549.8 899.2 549.25 897.65 548.35 896.55 548.5 895.4 548.6 894.1 549.8 893.3 550.55 891.45 552.75 889.75 555 889.25 555.95 Z"/>
    </g>
    <g transform="translate(-292 -588)">
        <path fill="#694C39" stroke="none" d="
M 308.35 599.6
L 308.1 604.65
Q 304.5 605.05 300.95 607.3 300.55 607.55 300.3 608 300.05 608.4 300 608.9 299.85 611.2 301.4 612.4 302.5 613.5 304.95 613.6
L 308.95 613.85
Q 308.85 615.5 308.9 617.15
L 308.9 617.2
Q 308.9 617.25 308.9 617.3 308.1 617.65 307.4 618.35
L 307.35 618.4
Q 305.9 619.85 305.9 621.8 305.55 623.45 308 624.45 308.1 624.5 308.15 624.5 308.3 624.55 308.5 624.6 308.45 624.9 308.45 625.2 308.35 626.7 309.65 627.75 308.7 629.95 308.5 632.95 308.4 634.5 308.5 636.3 308.5 636.5 308.55 636.7 308.6 637.1 308.65 637.5 308.65 637.6 308.7 637.75 308.7 637.9 308.75 638.1 308.8 638.3 308.85 638.5 309.85 642.95 314.9 642.95
L 320 642.95
Q 320.2 643.75 320.9 644.6 320.95 644.65 321.05 644.75 321.65 645.3 322.75 645.95 322.9 646 323.1 646.1 323.65 646.3 324.2 646.5 324.25 646.5 324.3 646.55 325.95 647 328.1 647 330.2 647 331.95 646.55 332 646.5 332.1 646.5 332.6 646.3 333.1 646.1 333.4 646 333.6 645.9
L 333.65 645.9
Q 336.1 644.6 336.25 642.95
L 339.4 642.95
Q 343.15 642.95 344.6 640.35 344.95 639.75 345.2 639 345.35 638.5 345.45 637.85 345.6 637.15 345.65 636.45 346 631.7 344.8 628.4 345.2 627.95 345.5 627.4 345.85 626.7 346.1 625.8
L 346.1 625.75
Q 346.2 625.35 346.3 624.85
L 346.3 624.75
Q 346.9 621 346.95 617.25
L 346.95 617.2
Q 347 615.6 346.95 614.1 347.7 613.1 347.8 611.6
L 347.95 609.45
Q 347.95 609.35 347.95 609.3 349.35 595.75 330.45 593.3 330.4 593.25 330.35 593.25 323.15 592.7 315.7 593.4 309.7 593.85 308.55 598.85 308.35 599.15 308.35 599.6 Z"/>
        <path fill="#2ECC71" stroke="none" d="
M 313.7 625.4
Q 310.85 627.95 310.5 633.05 322.35 633.05 325.55 625.4
L 313.7 625.4 Z"/>
        <path fill="#E74C3C" stroke="none" d="
M 310.8 638
Q 311.5 640.95 314.9 640.95
L 339.4 640.95
Q 341.9 640.95 342.9 639.3 343.15 638.9 343.3 638.35 343.4 638.05 343.45 637.6 343.6 636.95 343.65 636.3 344.2 628.95 340.55 625.4
L 325.55 625.4
Q 322.35 633.05 310.5 633.05 310.4 634.55 310.5 636.25
L 310.5 636.3
Q 310.6 636.8 310.65 637.25 310.7 637.45 310.7 637.6 310.75 637.8 310.8 638 Z"/>
        <path fill="#333333" stroke="none" d="
M 321.95 642
Q 321.95 642.15 321.95 642.2 321.95 642.35 321.95 642.45 322.05 642.85 322.4 643.25 322.9 643.7 323.75 644.2 324.3 644.4 324.85 644.6 326.25 645 328.1 645 329.9 645 331.4 644.6 331.95 644.4 332.45 644.2 332.6 644.15 332.7 644.1 334.15 643.35 334.25 642.45 334.25 642.35 334.25 642.2 334.3 642.15 334.3 642 334.3 639.9 332.45 638.45 330.65 636.95 328.1 636.95 325.55 636.95 323.75 638.45 321.95 639.9 321.95 642 Z"/>
        <path fill="#2ECC71" stroke="none" d="
M 336.65 628.3
Q 336.4 628 336.1 627.75 335 626.85 333.8 626.55 333.1 626.35 332.1 626.45 330.1 626.65 328.65 628.15 327.2 630.15 327.3 634.1 327.35 634.4 327.35 634.75 327.5 636.25 329.1 635.95 330.7 635.65 332.85 635.75 335.05 635.85 336.15 636.3 337.15 636.65 337.8 633.25 338.1 630.25 336.65 628.3 Z"/>
        <path fill="#FFE0B1" stroke="none" d="
M 327.85 632.8
Q 327.7 633.05 327.45 633.3 327.5 633.35 327.45 633.45 327.4 633.45 327.4 633.55 326.8 634.6 327.65 636.15 328.6 637.85 330.55 638.9 332.5 640.1 334.35 640.05 336.1 640.1 336.8 638.95 336.9 638.9 336.95 638.75 337.1 638.45 337.25 638.25 338.1 636.5 337.6 634.65 337.2 633.3 336.4 632.35 335.95 631.75 335.05 631.2 333.1 630.05 330.7 630.7 328.9 631.15 327.85 632.8 Z"/>
        <path fill="#694C39" stroke="none" d="
M 344.95 614
Q 344.8 610.8 344.3 607.6 344.1 605.85 343.2 604.9 342.15 603.8 340.25 603.8
L 329.6 603.8
Q 327.9 622.5 344.3 624.6 344.3 624.55 344.3 624.5 344.9 620.85 344.95 617.15 345 615.55 344.95 614 Z"/>
        <path fill="#FFE0B1" stroke="none" d="
M 310.95 613.35
Q 310.85 615.25 310.9 617.15 310.9 617.45 310.9 617.75 311 621 311.4 624.1 311.45 624.3 311.45 624.5 311.5 624.7 311.55 624.95 312.25 628.2 315.7 628.2
L 340.25 628.2
Q 342.75 628.2 343.75 626.4 344 625.95 344.15 625.3 344.25 625 344.3 624.6 327.9 622.5 329.6 603.8
L 315.7 603.8
Q 313.65 603.8 312.6 604.9 311.75 605.85 311.5 607.5 311.15 610.45 310.95 613.35 Z"/>
        <path fill="#694C39" stroke="none" d="
M 321.95 620.9
Q 322.75 620.9 323.35 620 323.95 619.2 323.95 617.85 323.95 616.55 323.35 615.75 322.75 614.85 321.95 614.85 321.1 614.85 320.55 615.75 319.95 616.55 319.95 617.85 319.95 619.2 320.55 620 321.1 620.9 321.95 620.9 Z"/>
        <path fill="#FFE0B1" stroke="none" d="
M 313.05 622.6
Q 313.95 622.25 313.95 621.8 313.85 620.65 313.05 619.8 312.15 618.9 310.9 618.9 309.7 618.9 308.75 619.8 307.9 620.65 307.9 621.8 307.9 622.25 308.75 622.6 309.7 622.9 310.9 622.9 312.15 622.9 313.05 622.6 Z"/>
        <path fill="#694C39" stroke="none" d="
M 318.9 622.2
Q 316.8 620.9 313.95 620.9 313.65 620.9 313.35 620.95 312.2 621.05 311.35 622.2 310.45 623.45 310.45 625.2 310.45 625.95 311.35 626.4 312.2 626.85 313.35 626.9 313.65 626.9 313.95 626.9 316.8 626.9 318.9 626.4 320.95 625.95 320.95 625.2 320.75 623.45 318.9 622.2 Z"/>
        <path fill="#2ECC71" stroke="none" d="
M 317.9 606.8
Q 314.1 606.55 310 606.5 306 606.5 302 609 301.85 611.45 305.05 611.6
L 342.4 613.7
Q 345.7 613.9 345.8 611.45 333.8 607.85 317.9 606.8 Z"/>
        <path fill="#28B162" stroke="none" d="
M 310.3 600.5
Q 313.6 600.65 315.85 602.7 317.75 604.45 317.9 606.8 333.8 607.85 345.8 611.45
L 345.95 609.3
Q 345.95 609.2 345.95 609.1 346.9 597.45 330.2 595.25 323.15 594.7 315.9 595.4 311.2 595.75 310.4 599.7
L 310.35 599.7 310.3 600.5 Z"/>
        <path fill="#FFFFFF" stroke="none" d="
M 315.85 602.7
Q 313.6 600.65 310.3 600.5
L 310 606.5
Q 314.1 606.55 317.9 606.8 317.75 604.45 315.85 602.7 Z"/>
        <path fill="#FFE0B1" stroke="none" d="
M 334.5 615.85
Q 332.65 615.85 331.3 616.95 330 618.15 330 619.95 330 621.55 331.3 622.65 332.65 623.9 334.5 623.9 336.3 623.9 337.6 622.65 338.9 621.6 338.9 619.95
L 338.9 619.8
Q 338.9 618.15 337.6 616.95 336.3 615.85 334.5 615.85 Z"/>
    </g>
</svg>
