<svg xmlns="http://www.w3.org/2000/svg" viewBox="0 0 64 64">
    <g transform="translate(-884 -514)">
        <rect width="64" height="64" x="884" y="514" fill="#758C8E"/>
        <path fill="#849EA1" stroke="none" d=" M 944.7 564.2 Q 944.1 564.65 942.65 566.05 941.3 567.5 940.85 568.05 940.1 569.1 940.15 569.85 940.1 570.65 940.85 571.65 941.3 572.25 942.65 573.7 944.1 575.1 944.7 575.5 945.7 576.25 946.5 576.2 947.15 576.25 948 575.7 L 948 564 Q 947.15 563.5 946.5 563.5 945.7 563.5 944.7 564.2 M 948 517.55 Q 947.95 517.55 947.95 517.6 947.75 517.75 947.65 517.95 947.6 518 947.55 518.05 946.4 519.4 946.35 520.5 946.2 521.65 947.2 523.15 947.45 523.6 947.95 524.25 L 948 524.3 948 517.55 M 889.5 576.85 Q 888.95 577.2 888 578 L 895.4 578 Q 894.95 577.5 894.65 577.25 893.25 576.05 892.15 576.05 891 575.9 889.5 576.85 M 888.15 568.05 Q 887.75 567.5 886.35 566.05 884.85 564.65 884.3 564.2 884.15 564.1 884 564 L 884 575.75 Q 884.15 575.65 884.3 575.5 884.85 575.1 886.35 573.7 887.75 572.2 888.15 571.65 888.9 570.65 888.85 569.85 888.9 569.1 888.15 568.05 M 928.2 554.7 Q 927.55 555.4 927.05 555.95 926.05 557.05 925.6 557.65 924.5 559.1 924.55 560.2 924.5 561.35 925.6 562.8 926.25 563.7 928.2 565.75 930.25 567.7 931.15 568.4 932.6 569.45 933.7 569.4 934.85 569.45 936.3 568.4 937.15 567.75 939.25 565.75 941.25 563.7 941.9 562.8 942.95 561.35 942.9 560.2 942.95 559.1 941.9 557.65 941.45 557.05 940.45 555.95 939.9 555.4 939.25 554.7 937.15 552.7 936.3 552.05 934.85 551 933.7 551.05 932.6 551 931.15 552.05 930.25 552.75 928.2 554.7 M 928.9 523.45 Q 927.45 522.05 926.85 521.65 925.85 520.9 925.05 520.9 924.3 520.9 923.3 521.65 922.7 522.05 921.25 523.45 919.85 524.9 919.4 525.5 918.7 526.5 918.7 527.25 918.7 528.05 919.4 529.05 919.85 529.65 921.25 531.1 922.7 532.5 923.3 532.95 924.3 533.65 925.05 533.65 925.85 533.65 926.85 532.95 927.45 532.5 928.9 531.1 930.3 529.65 930.7 529.05 931.45 528.05 931.4 527.25 931.45 526.5 930.7 525.5 930.3 524.95 928.9 523.45 M 888 514 Q 887.3 514.5 886.35 515.25 884.75 516.7 884 517.55 L 884 524.3 Q 884.6 525.1 885.55 526.3 887.5 528.45 888.3 529.15 889.65 530.3 890.8 530.35 891.9 530.45 893.45 529.5 894.4 528.9 896.55 527.1 898.7 525.2 899.4 524.35 900.55 523 900.6 521.85 900.75 520.75 899.8 519.2 899.5 518.75 898.95 517.95 898.3 517.15 897.4 516.05 896.2 514.75 895.4 514 L 888 514 Z"/>
        <path fill="#7D9598" stroke="none" d=" M 931.1 576.45 Q 930.25 577.3 929.65 578 L 943.6 578 Q 942.95 577.3 942.15 576.45 940.05 574.45 939.2 573.85 937.75 572.8 936.6 572.8 935.5 572.8 934.05 573.85 933.15 574.5 931.1 576.45 M 916.25 566.55 Q 914.2 565.05 912.6 565.1 911.05 565.05 909 566.55 907.8 567.45 904.85 570.25 902.05 573.2 901.15 574.45 899.65 576.45 899.7 578 L 925.55 578 Q 925.6 576.45 924.1 574.45 923.2 573.2 920.4 570.25 917.45 567.45 916.25 566.55 M 923.9 517.95 Q 924 517.8 924.1 517.65 925.6 515.6 925.55 514 L 899.7 514 Q 899.65 515.6 901.15 517.65 901.25 517.8 901.4 517.95 902.35 519.2 904.85 521.8 907.8 524.6 909 525.5 911.05 527 912.6 526.95 914.2 527 916.25 525.5 917.45 524.6 920.4 521.8 922.9 519.2 923.9 517.95 M 948 527.55 L 947.95 527.55 Q 945.9 526 944.25 526.05 942.6 526 940.5 527.55 939.2 528.5 936.15 531.4 933.25 534.45 932.3 535.75 930.75 537.9 930.8 539.55 930.75 541.2 932.3 543.3 933.25 544.6 936.15 547.65 939.2 550.55 940.5 551.5 942.6 553.05 944.25 553 945.9 553.05 948 551.55 L 948 527.55 M 945.8 517.95 Q 945.8 516.8 944.75 515.4 944.4 514.9 943.55 514 L 929.7 514 Q 928.85 514.9 928.45 515.4 927.4 516.8 927.45 517.95 L 927.45 518 Q 927.4 519.1 928.45 520.55 929.1 521.45 931.1 523.5 933.15 525.5 934.05 526.15 935.5 527.2 936.6 527.15 937.75 527.2 939.2 526.15 940.05 525.5 942.15 523.5 944.1 521.45 944.75 520.55 945.8 519.1 945.8 518 L 945.8 517.95 M 888.35 531.4 Q 885.25 528.45 884.05 527.55 L 884 527.55 884 551.55 884.05 551.5 Q 885.25 550.6 888.35 547.65 891.25 544.6 892.2 543.3 893.75 541.2 893.7 539.55 893.75 537.9 892.2 535.75 891.25 534.45 888.35 531.4 M 908.45 537.05 Q 905.35 539.9 904.35 541.15 902.65 543.2 902.6 544.85 902.45 546.45 903.9 548.7 904.75 550 907.5 553.25 909 554.9 910.1 555.95 911 556.9 911.6 557.35 913.65 559 915.25 559.05 916.9 559.2 919.15 557.8 919.95 557.25 921.6 555.95 922.5 555.2 923.7 554.2 926.75 551.35 927.8 550.1 929.5 548.05 929.55 546.4 929.7 544.75 928.25 542.55 927.4 541.25 924.65 538 921.8 534.9 920.55 533.9 918.5 532.2 916.85 532.15 915.2 532 913 533.45 911.65 534.3 908.45 537.05 M 903 528.7 Q 902.1 527.8 901.35 527.7 900.6 527.6 899.5 528.15 898.85 528.5 897.2 529.65 895.65 530.9 895.1 531.45 894.25 532.35 894.15 533.1 894 533.85 894.6 534.95 894.95 535.6 896.1 537.25 897.3 538.85 897.85 539.35 898.75 540.25 899.5 540.3 900.3 540.45 901.35 539.85 902.05 539.5 903.65 538.35 905.25 537.1 905.75 536.6 906.65 535.7 906.7 534.95 906.85 534.15 906.3 533.1 905.95 532.45 904.8 530.8 903.55 529.2 903 528.7 M 889.25 555.95 L 889.2 556 Q 888.3 557.55 888.45 558.65 888.5 559.75 889.75 561.1 890.45 561.9 892.65 563.75 894.95 565.5 895.9 566 897.45 566.9 898.55 566.75 899.7 566.65 901 565.45 901.8 564.7 903.65 562.5 905.4 560.25 905.95 559.3 906.85 557.75 906.65 556.6 906.65 556.3 906.55 555.95 906.25 555.1 905.35 554.15 904.6 553.35 902.45 551.55 900.15 549.8 899.2 549.25 897.65 548.35 896.55 548.5 895.4 548.6 894.1 549.8 893.3 550.55 891.45 552.75 889.75 555 889.25 555.95 Z"/>
    </g>
    <g transform="translate(-70 -588)">
        <path fill="#694C39" stroke="none" d="
M 110.25 593.4
Q 102.85 592.7 95.65 593.25 95.6 593.25 95.55 593.3 76.65 595.75 78.05 609.3 78.05 609.35 78.05 609.45
L 78.2 611.6
Q 78.3 613.1 79.05 614.1 79 615.6 79.05 617.25 79.1 620.95 79.7 624.6 79.7 624.7 79.75 624.8
L 79.75 624.85
Q 79.8 625.35 79.9 625.75 79.9 625.8 79.95 625.85
L 79.95 625.95
Q 80.15 626.75 80.5 627.4 80.8 627.95 81.25 628.4 80 631.7 80.35 636.45 80.4 637.15 80.55 637.85 80.65 638.5 80.8 639 81.05 639.75 81.4 640.35 82.85 642.95 86.6 642.95
L 89.75 642.95
Q 89.9 644.6 92.4 645.9 92.6 646 92.95 646.1 93.4 646.3 93.95 646.5 94 646.5 94.1 646.55 95.8 647 97.9 647 100.05 647 101.7 646.55 101.75 646.5 101.85 646.5 102.4 646.3 102.95 646.1 103.1 646 103.3 645.95 104.35 645.3 104.95 644.75 105.05 644.65 105.1 644.6 105.8 643.75 106 642.95
L 111.1 642.95
Q 116.15 642.95 117.15 638.45 117.2 638.25 117.25 638.1 117.3 637.9 117.3 637.75 117.35 637.6 117.35 637.5 117.4 637.1 117.45 636.7 117.5 636.5 117.5 636.3 117.6 634.5 117.5 632.95 117.3 629.95 116.35 627.75 117.65 626.7 117.55 625.2 117.55 624.9 117.55 624.6 117.7 624.55 117.85 624.5 117.9 624.5 118 624.45 120.45 623.45 120.1 621.8 120.1 619.85 118.7 618.4
L 118.65 618.35
Q 117.9 617.65 117.1 617.3 117.1 617.25 117.1 617.2
L 117.1 617.15
Q 117.15 615.5 117.1 613.85
L 121.1 613.6
Q 123.5 613.5 124.6 612.4 126.15 611.2 126 608.9 125.95 608.4 125.75 608 125.45 607.55 125.05 607.3 121.5 605.05 117.9 604.65
L 117.65 599.6
Q 117.65 599.15 117.45 598.85 116.3 593.85 110.25 593.4 Z"/>
        <path fill="#2ECC71" stroke="none" d="
M 115.5 633.05
Q 115.15 627.95 112.3 625.4
L 100.45 625.4
Q 103.65 633.05 115.5 633.05 Z"/>
        <path fill="#E74C3C" stroke="none" d="
M 85.45 625.4
Q 81.8 628.95 82.35 636.3 82.4 636.95 82.55 637.6 82.6 638.05 82.7 638.35 82.85 638.9 83.1 639.3 84.1 640.95 86.6 640.95
L 111.1 640.95
Q 114.5 640.95 115.2 638 115.25 637.8 115.3 637.6 115.3 637.45 115.35 637.25 115.4 636.8 115.5 636.3
L 115.5 636.25
Q 115.6 634.55 115.5 633.05 103.65 633.05 100.45 625.4
L 85.45 625.4 Z"/>
        <path fill="#333333" stroke="none" d="
M 97.9 636.95
Q 95.35 636.95 93.55 638.45 91.7 639.9 91.7 642 91.7 642.15 91.75 642.2 91.75 642.35 91.75 642.45 91.85 643.35 93.3 644.1 93.4 644.15 93.55 644.2 94.05 644.4 94.6 644.6 96.1 645 97.9 645 99.75 645 101.15 644.6 101.7 644.4 102.25 644.2 103.1 643.7 103.6 643.25 103.95 642.85 104.05 642.45 104.05 642.35 104.05 642.2 104.05 642.15 104.05 642 104.05 639.9 102.25 638.45 100.45 636.95 97.9 636.95 Z"/>
        <path fill="#2ECC71" stroke="none" d="
M 93.9 626.45
Q 92.9 626.35 92.2 626.55 91 626.85 89.9 627.75 89.6 628 89.35 628.3 87.9 630.25 88.2 633.25 88.85 636.65 89.85 636.3 90.95 635.85 93.15 635.75 95.3 635.65 96.9 635.95 98.5 636.25 98.65 634.75 98.65 634.4 98.7 634.1 98.8 630.15 97.35 628.15 95.9 626.65 93.9 626.45 Z"/>
        <path fill="#FFE0B1" stroke="none" d="
M 90.95 631.2
Q 90.05 631.75 89.6 632.35 88.8 633.3 88.4 634.65 87.9 636.5 88.75 638.25 88.9 638.45 89.05 638.75 89.1 638.9 89.2 638.95 89.9 640.1 91.65 640.05 93.5 640.1 95.45 638.9 97.4 637.85 98.35 636.15 99.2 634.6 98.6 633.55 98.6 633.45 98.55 633.45 98.5 633.35 98.55 633.3 98.3 633.05 98.15 632.8 97.1 631.15 95.3 630.7 92.9 630.05 90.95 631.2 Z"/>
        <path fill="#694C39" stroke="none" d="
M 96.4 603.8
L 85.75 603.8
Q 83.85 603.8 82.8 604.9 81.9 605.85 81.7 607.6 81.2 610.8 81.05 614 81 615.55 81.05 617.15 81.1 620.85 81.7 624.5 81.7 624.55 81.7 624.6 98.1 622.5 96.4 603.8 Z"/>
        <path fill="#FFE0B1" stroke="none" d="
M 115.05 613.35
Q 114.85 610.45 114.5 607.5 114.25 605.85 113.4 604.9 112.35 603.8 110.3 603.8
L 96.4 603.8
Q 98.1 622.5 81.7 624.6 81.75 625 81.85 625.3 82 625.95 82.25 626.4 83.25 628.2 85.75 628.2
L 110.3 628.2
Q 113.75 628.2 114.45 624.95 114.5 624.7 114.55 624.5 114.55 624.3 114.6 624.1 115 621 115.1 617.75 115.1 617.45 115.1 617.15 115.15 615.25 115.05 613.35 Z"/>
        <path fill="#694C39" stroke="none" d="
M 102.65 620
Q 103.25 620.9 104.05 620.9 104.9 620.9 105.45 620 106.05 619.2 106.05 617.85 106.05 616.55 105.45 615.75 104.9 614.85 104.05 614.85 103.25 614.85 102.65 615.75 102.05 616.55 102.05 617.85 102.05 619.2 102.65 620 Z"/>
        <path fill="#FFE0B1" stroke="none" d="
M 112.05 621.8
Q 112.05 622.25 112.95 622.6 113.85 622.9 115.1 622.9 116.3 622.9 117.25 622.6 118.1 622.25 118.1 621.8 118.1 620.65 117.25 619.8 116.3 618.9 115.1 618.9 113.85 618.9 112.95 619.8 112.15 620.65 112.05 621.8 Z"/>
        <path fill="#694C39" stroke="none" d="
M 112.05 626.9
Q 112.35 626.9 112.65 626.9 113.8 626.85 114.65 626.4 115.55 625.95 115.55 625.2 115.55 623.45 114.65 622.2 113.8 621.05 112.65 620.95 112.35 620.9 112.05 620.9 109.2 620.9 107.1 622.2 105.25 623.45 105.05 625.2 105.05 625.95 107.1 626.4 109.2 626.9 112.05 626.9 Z"/>
        <path fill="#2ECC71" stroke="none" d="
M 116 606.5
Q 111.9 606.55 108.1 606.8 92.2 607.85 80.2 611.45 80.3 613.9 83.6 613.7
L 120.95 611.6
Q 124.15 611.45 124 609 120 606.5 116 606.5 Z"/>
        <path fill="#FFFFFF" stroke="none" d="
M 115.7 600.5
Q 112.4 600.65 110.15 602.7 108.25 604.45 108.1 606.8 111.9 606.55 116 606.5
L 115.7 600.5 Z"/>
        <path fill="#28B162" stroke="none" d="
M 115.6 599.7
Q 114.8 595.75 110.1 595.4 102.85 594.7 95.8 595.25 79.1 597.45 80.05 609.1 80.05 609.2 80.05 609.3
L 80.2 611.45
Q 92.2 607.85 108.1 606.8 108.25 604.45 110.15 602.7 112.4 600.65 115.7 600.5
L 115.65 599.7 115.6 599.7 Z"/>
        <path fill="#FFE0B1" stroke="none" d="
M 91.5 615.85
Q 89.7 615.85 88.4 616.95 87.1 618.15 87.1 619.8
L 87.1 619.95
Q 87.1 621.6 88.4 622.65 89.7 623.9 91.5 623.9 93.35 623.9 94.7 622.65 96 621.55 96 619.95 96 618.15 94.7 616.95 93.35 615.85 91.5 615.85 Z"/>
    </g>
</svg>
