<svg xmlns="http://www.w3.org/2000/svg" viewBox="0 0 64 64">
    <g transform="translate(-884 -514)">
        <rect width="64" height="64" x="884" y="514" fill="#758C8E"/>
        <path fill="#849EA1" stroke="none" d=" M 944.7 564.2 Q 944.1 564.65 942.65 566.05 941.3 567.5 940.85 568.05 940.1 569.1 940.15 569.85 940.1 570.65 940.85 571.65 941.3 572.25 942.65 573.7 944.1 575.1 944.7 575.5 945.7 576.25 946.5 576.2 947.15 576.25 948 575.7 L 948 564 Q 947.15 563.5 946.5 563.5 945.7 563.5 944.7 564.2 M 948 517.55 Q 947.95 517.55 947.95 517.6 947.75 517.75 947.65 517.95 947.6 518 947.55 518.05 946.4 519.4 946.35 520.5 946.2 521.65 947.2 523.15 947.45 523.6 947.95 524.25 L 948 524.3 948 517.55 M 889.5 576.85 Q 888.95 577.2 888 578 L 895.4 578 Q 894.95 577.5 894.65 577.25 893.25 576.05 892.15 576.05 891 575.9 889.5 576.85 M 888.15 568.05 Q 887.75 567.5 886.35 566.05 884.85 564.65 884.3 564.2 884.15 564.1 884 564 L 884 575.75 Q 884.15 575.65 884.3 575.5 884.85 575.1 886.35 573.7 887.75 572.2 888.15 571.65 888.9 570.65 888.85 569.85 888.9 569.1 888.15 568.05 M 928.2 554.7 Q 927.55 555.4 927.05 555.95 926.05 557.05 925.6 557.65 924.5 559.1 924.55 560.2 924.5 561.35 925.6 562.8 926.25 563.7 928.2 565.75 930.25 567.7 931.15 568.4 932.6 569.45 933.7 569.4 934.85 569.45 936.3 568.4 937.15 567.75 939.25 565.75 941.25 563.7 941.9 562.8 942.95 561.35 942.9 560.2 942.95 559.1 941.9 557.65 941.45 557.05 940.45 555.95 939.9 555.4 939.25 554.7 937.15 552.7 936.3 552.05 934.85 551 933.7 551.05 932.6 551 931.15 552.05 930.25 552.75 928.2 554.7 M 928.9 523.45 Q 927.45 522.05 926.85 521.65 925.85 520.9 925.05 520.9 924.3 520.9 923.3 521.65 922.7 522.05 921.25 523.45 919.85 524.9 919.4 525.5 918.7 526.5 918.7 527.25 918.7 528.05 919.4 529.05 919.85 529.65 921.25 531.1 922.7 532.5 923.3 532.95 924.3 533.65 925.05 533.65 925.85 533.65 926.85 532.95 927.45 532.5 928.9 531.1 930.3 529.65 930.7 529.05 931.45 528.05 931.4 527.25 931.45 526.5 930.7 525.5 930.3 524.95 928.9 523.45 M 888 514 Q 887.3 514.5 886.35 515.25 884.75 516.7 884 517.55 L 884 524.3 Q 884.6 525.1 885.55 526.3 887.5 528.45 888.3 529.15 889.65 530.3 890.8 530.35 891.9 530.45 893.45 529.5 894.4 528.9 896.55 527.1 898.7 525.2 899.4 524.35 900.55 523 900.6 521.85 900.75 520.75 899.8 519.2 899.5 518.75 898.95 517.95 898.3 517.15 897.4 516.05 896.2 514.75 895.4 514 L 888 514 Z"/>
        <path fill="#7D9598" stroke="none" d=" M 931.1 576.45 Q 930.25 577.3 929.65 578 L 943.6 578 Q 942.95 577.3 942.15 576.45 940.05 574.45 939.2 573.85 937.75 572.8 936.6 572.8 935.5 572.8 934.05 573.85 933.15 574.5 931.1 576.45 M 916.25 566.55 Q 914.2 565.05 912.6 565.1 911.05 565.05 909 566.55 907.8 567.45 904.85 570.25 902.05 573.2 901.15 574.45 899.65 576.45 899.7 578 L 925.55 578 Q 925.6 576.45 924.1 574.45 923.2 573.2 920.4 570.25 917.45 567.45 916.25 566.55 M 923.9 517.95 Q 924 517.8 924.1 517.65 925.6 515.6 925.55 514 L 899.7 514 Q 899.65 515.6 901.15 517.65 901.25 517.8 901.4 517.95 902.35 519.2 904.85 521.8 907.8 524.6 909 525.5 911.05 527 912.6 526.95 914.2 527 916.25 525.5 917.45 524.6 920.4 521.8 922.9 519.2 923.9 517.95 M 948 527.55 L 947.95 527.55 Q 945.9 526 944.25 526.05 942.6 526 940.5 527.55 939.2 528.5 936.15 531.4 933.25 534.45 932.3 535.75 930.75 537.9 930.8 539.55 930.75 541.2 932.3 543.3 933.25 544.6 936.15 547.65 939.2 550.55 940.5 551.5 942.6 553.05 944.25 553 945.9 553.05 948 551.55 L 948 527.55 M 945.8 517.95 Q 945.8 516.8 944.75 515.4 944.4 514.9 943.55 514 L 929.7 514 Q 928.85 514.9 928.45 515.4 927.4 516.8 927.45 517.95 L 927.45 518 Q 927.4 519.1 928.45 520.55 929.1 521.45 931.1 523.5 933.15 525.5 934.05 526.15 935.5 527.2 936.6 527.15 937.75 527.2 939.2 526.15 940.05 525.5 942.15 523.5 944.1 521.45 944.75 520.55 945.8 519.1 945.8 518 L 945.8 517.95 M 888.35 531.4 Q 885.25 528.45 884.05 527.55 L 884 527.55 884 551.55 884.05 551.5 Q 885.25 550.6 888.35 547.65 891.25 544.6 892.2 543.3 893.75 541.2 893.7 539.55 893.75 537.9 892.2 535.75 891.25 534.45 888.35 531.4 M 908.45 537.05 Q 905.35 539.9 904.35 541.15 902.65 543.2 902.6 544.85 902.45 546.45 903.9 548.7 904.75 550 907.5 553.25 909 554.9 910.1 555.95 911 556.9 911.6 557.35 913.65 559 915.25 559.05 916.9 559.2 919.15 557.8 919.95 557.25 921.6 555.95 922.5 555.2 923.7 554.2 926.75 551.35 927.8 550.1 929.5 548.05 929.55 546.4 929.7 544.75 928.25 542.55 927.4 541.25 924.65 538 921.8 534.9 920.55 533.9 918.5 532.2 916.85 532.15 915.2 532 913 533.45 911.65 534.3 908.45 537.05 M 903 528.7 Q 902.1 527.8 901.35 527.7 900.6 527.6 899.5 528.15 898.85 528.5 897.2 529.65 895.65 530.9 895.1 531.45 894.25 532.35 894.15 533.1 894 533.85 894.6 534.95 894.95 535.6 896.1 537.25 897.3 538.85 897.85 539.35 898.75 540.25 899.5 540.3 900.3 540.45 901.35 539.85 902.05 539.5 903.65 538.35 905.25 537.1 905.75 536.6 906.65 535.7 906.7 534.95 906.85 534.15 906.3 533.1 905.95 532.45 904.8 530.8 903.55 529.2 903 528.7 M 889.25 555.95 L 889.2 556 Q 888.3 557.55 888.45 558.65 888.5 559.75 889.75 561.1 890.45 561.9 892.65 563.75 894.95 565.5 895.9 566 897.45 566.9 898.55 566.75 899.7 566.65 901 565.45 901.8 564.7 903.65 562.5 905.4 560.25 905.95 559.3 906.85 557.75 906.65 556.6 906.65 556.3 906.55 555.95 906.25 555.1 905.35 554.15 904.6 553.35 902.45 551.55 900.15 549.8 899.2 549.25 897.65 548.35 896.55 548.5 895.4 548.6 894.1 549.8 893.3 550.55 891.45 552.75 889.75 555 889.25 555.95 Z"/>
    </g>
    <g transform="translate(-70 -440)">
        <path fill="#694C39" stroke="none" d="
M 89.1 446
Q 82.95 446.85 82.15 451.85 82 452.2 82 452.6
L 82 462.55
Q 81.95 464.4 82.85 465.5 81.85 465.85 81 466.6
L 80.95 466.65
Q 78.95 468.45 79 470.9
L 79 471.05
Q 79 473.55 80.95 475.2 82.15 476.4 83.7 476.8 83.7 476.846875 83.75 476.9
L 83.7 476.85
Q 83.75 477.4 83.9 477.85 83.05 478.3 82.35 479.05 82.3 479.05 82.3 479.1 79.95 481.35 80 484.4 80 485.85 80.55 487.15 80.45 488.4 80.85 489.85
L 80.85 489.9
Q 81.5 492.4 83.65 493.95 83.7 494 83.8 494.05 83.9 494.1 84 494.15 84 494.45 84.05 494.75 84 496.6 86.75 497.9
L 86.7 497.9
Q 86.8 497.95 86.9 498 87 498.05 87.05 498.05 87.6 498.3 88.3 498.5 88.35 498.5 88.4 498.55 90.1 499 92.2 499 94.3 499 96 498.55 96.05 498.5 96.15 498.5 96.7 498.25 97.25 498.05 97.3 498.05 97.4 498 98.6 497.4 99.25 496.8 99.35 496.7 99.4 496.65 100.1 495.8 100.3 495 100.35 494.75 100.35 494.5 100.35 494.4 100.35 494.25 100.35 494.2 100.35 494.05 100.35 493.7 100.35 493.35 101.1 493.25 102 493.25 102.9 493.25 103.7 493.35 103.65 493.7 103.65 494.05 103.65 494.45 103.7 494.75 103.65 496.6 106.4 497.9
L 106.35 497.9
Q 106.55 498 106.9 498.1 107.35 498.3 107.9 498.5 107.95 498.5 108.05 498.55 109.75 499 111.85 499 114 499 115.65 498.55 115.7 498.5 115.8 498.5 116.35 498.3 116.9 498.1 117 498.05 117.15 498 118.25 497.4 118.9 496.8 119 496.7 119.05 496.65 119.75 495.8 119.95 495 120 494.75 120 494.5 120 494.4 120 494.25 120 494.2 120 494.15 120.1 494.1 120.25 494.05 120.3 494 120.35 493.95 122.5 492.4 123.2 489.9
L 123.2 489.85
Q 123.55 488.4 123.45 487.15 124 485.85 124 484.4 124.05 481.35 121.7 479.1 121.7 479.05 121.65 479.05 121 478.35 120.2 477.9 120.25 477.7 120.3 477.5
L 120.3 477.45
Q 120.35 477.25 120.4 477.1 120.45 476.9 120.45 476.75 121.85 476.35 123 475.3 125.05 473.55 125 471.05 125 468.4 123.05 466.65
L 123 466.6
Q 122.15 465.85 121.15 465.5 122 464.4 122 462.55
L 122 452.6
Q 122 452.15 121.85 451.8 121 446.85 114.95 446.05 102 444.05 89.15 446
L 89.1 446 Z"/>
        <path fill="#333333" stroke="none" d="
M 92.2 489
Q 89.65 489 87.8 490.5 86 491.95 86 494.05 86 494.2 86.05 494.25 86.05 494.4 86.05 494.5 86.15 495.4 87.6 496.1 87.7 496.15 87.8 496.2 88.3 496.4 88.9 496.6 90.4 497 92.2 497 94 497 95.45 496.6 96 496.4 96.5 496.2 97.4 495.75 97.9 495.3 98.25 494.9 98.35 494.5 98.35 494.4 98.35 494.25 98.35 494.2 98.35 494.05 98.35 491.95 96.5 490.5 94.75 489 92.2 489 Z"/>
        <path fill="#333333" stroke="none" d="
M 111.85 489
Q 109.3 489 107.5 490.5 105.65 491.95 105.65 494.05 105.65 494.2 105.7 494.25 105.7 494.4 105.7 494.5 105.8 495.4 107.25 496.1 107.35 496.15 107.5 496.2 108 496.4 108.55 496.6 110.05 497 111.85 497 113.7 497 115.1 496.6 115.65 496.4 116.2 496.2 117.05 495.75 117.55 495.3 117.9 494.9 118 494.5 118 494.4 118 494.25 118 494.2 118 494.05 118 491.95 116.2 490.5 114.4 489 111.85 489 Z"/>
        <path fill="#CD4335" stroke="none" d="
M 95.8 493
Q 96 492.85 96.25 492.65 98.6 491.25 102 491.25 105.4 491.25 107.75 492.65 107.95 492.85 108.2 493
L 109.75 493
Q 109.15 490.8 107.75 488.9 107.5 488.6 107.3 488.35 105.05 485.95 102 485.95 98.95 485.95 96.75 488.35 96.5 488.6 96.25 488.9 94.8 490.8 94.25 493
L 95.8 493 Z"/>
        <path fill="#E74C3C" stroke="none" d="
M 86.25 491.35
Q 87.25 493 89.75 493
L 94.25 493
Q 94.8 490.8 96.25 488.9 96.5 488.6 96.75 488.35 98.95 485.95 102 485.95 105.05 485.95 107.3 488.35 107.5 488.6 107.75 488.9 109.15 490.8 109.75 493
L 114.25 493
Q 117.65 493 118.35 490.05 118.4 489.85 118.45 489.65 118.45 489.5 118.5 489.3 118.55 488.85 118.65 488.35
L 118.65 488.3
Q 119.15 480.75 115.45 477.45
L 88.6 477.45
Q 84.95 481 85.5 488.35 85.55 489 85.7 489.65 85.75 490.1 85.85 490.4 86 490.95 86.25 491.35 Z"/>
        <path fill="#D7BD93" stroke="none" d="
M 85.4 467
Q 83.6 467 82.3 468.1 81 469.3 81 470.9
L 81 471.05
Q 81 472.7 82.3 473.75 83.6 475 85.4 475 87.25 475 88.55 473.75 89.85 472.65 89.85 471.05 89.85 469.3 88.55 468.1 87.25 467 85.4 467
M 118.55 467
Q 116.7 467 115.4 468.1 114.15 469.3 114.1 470.9
L 114.1 471.05
Q 114.15 472.7 115.4 473.75 116.7 475 118.55 475 120.4 475 121.7 473.75 123 472.65 123 471.05 123 469.3 121.7 468.1 120.4 467 118.55 467 Z"/>
        <path fill="#2ECC71" stroke="none" d="
M 94.25 480.3
Q 94.8 481.5 96.25 482.45 98.6 484 102 484 105.4 484 107.75 482.45 109.15 481.5 109.75 480.3
L 94.25 480.3 Z"/>
        <path fill="#694C39" stroke="none" d="
M 85.05 466.15
Q 85 467.7 85.05 469.3 89.8 465.45 89.8 457.1 89.75 456.6 89.75 456 87.85 456 86.8 457.1 85.9 458.05 85.7 459.75 85.2 462.95 85.05 466.15
M 114.25 456
Q 114.3 456.6 114.35 457.1 115 465.1 119 469.3 119.05 467.4 118.95 465.5 118.75 462.6 118.4 459.65 118.15 458.05 117.3 457.1 116.25 456 114.25 456 Z"/>
        <path fill="#FFE0B1" stroke="none" d="
M 114.35 457.1
Q 114.3 456.6 114.25 456
L 89.75 456
Q 89.75 456.6 89.8 457.1 89.8 465.45 85.05 469.3 85.1 472.95 85.7 476.6 85.75 477.05 85.85 477.4 86 478.05 86.25 478.5 87.25 480.3 89.75 480.3
L 94.25 480.3 109.75 480.3 114.25 480.3
Q 117.65 480.3 118.35 477.05 118.4 476.8 118.45 476.6 118.45 476.4 118.5 476.2 118.9 473.1 119 469.9 119 469.6 119 469.3 115 465.1 114.35 457.1 Z"/>
        <path fill="#694C39" stroke="none" d="
M 112.4 472.1
Q 113 471.3 113 470 113 468.7 112.4 467.9 111.9 467 111 467 110.2 467 109.6 467.9 109 468.7 109 470 109 471.3 109.6 472.1 110.2 473 111 473 111.9 473 112.4 472.1 Z"/>
        <path fill="#694C39" stroke="none" d="
M 91 470
Q 91 471.3 91.6 472.1 92.2 473 93 473 93.85 473 94.4 472.1 95 471.3 95 470 95 468.7 94.4 467.9 93.85 467 93 467 92.2 467 91.6 467.9 91 468.7 91 470 Z"/>
        <path fill="#694C39" stroke="none" d="
M 95 477.3
Q 95 478.05 97.05 478.5 99.15 479 102 479 104.9 479 107 478.5 109 478.05 109 477.3 109 475.55 107 474.3 104.9 473 102 473 99.15 473 97.05 474.3 95.2 475.55 95 477.3 Z"/>
        <path fill="#28B162" stroke="none" d="
M 119.95 452.6
Q 119.4 448.65 114.65 448 102 446.05 89.4 447.95 84.55 448.65 84.05 452.6
L 84 452.6 84 460.2
Q 102.25 458.15 120 460.2
L 120 452.6 119.95 452.6 Z"/>
        <path fill="#2ECC71" stroke="none" d="
M 117.35 465
Q 120 465 120 462.55
L 120 460.2
Q 102.25 458.15 84 460.2
L 84 462.55
Q 83.95 465 86.65 465
L 117.35 465 Z"/>
        <path fill="#D7BD93" stroke="none" d="
M 99 473.9
Q 99 474.35 99.9 474.7 100.8 475 102.05 475 103.25 475 104.15 474.7 105 474.35 105 473.9 105 472.75 104.15 471.9 103.25 471 102.05 471 100.8 471 99.9 471.9 99.1 472.75 99 473.9 Z"/>
        <path fill="#FFE0B1" stroke="none" d="
M 90.8 483.15
Q 90.5 483 90.25 482.9 88.5 482.05 86.7 482.55 84.35 483.2 83.2 485.15 82.7 486 82.6 486.8 82.4 488 82.75 489.35 83.25 491.2 84.8 492.3 85.05 492.45 85.35 492.6 85.45 492.7 85.55 492.75 86.7 493.35 88.2 492.45 89.85 491.55 90.95 489.55 92.1 487.65 92.1 485.7 92.05 483.95 91 483.3 90.95 483.25 90.9 483.25 90.85 483.2 90.8 483.15 Z"/>
        <path fill="#2ECC71" stroke="none" d="
M 86.45 479
Q 84.85 479.3 83.75 480.45 82 482.15 82 484.4 82 485.7 82.6 486.8 82.7 486 83.2 485.15 84.35 483.2 86.7 482.55 88.5 482.05 90.25 482.9 90.5 483 90.8 483.15 86.75 480.35 86.45 479 Z"/>
        <path fill="#FFE0B1" stroke="none" d="
M 121.4 486.8
Q 121.25 486 120.8 485.15 119.65 483.2 117.3 482.55 115.5 482.05 113.75 482.9 113.5 483 113.2 483.15 113.15 483.2 113.1 483.25 113.05 483.25 113 483.3 111.95 483.95 111.9 485.7 111.9 487.65 113.05 489.55 114.15 491.55 115.8 492.45 117.3 493.35 118.45 492.75 118.55 492.7 118.65 492.6 118.95 492.45 119.2 492.3 120.75 491.2 121.25 489.35 121.6 488 121.4 486.8 Z"/>
        <path fill="#2ECC71" stroke="none" d="
M 120.25 480.45
Q 119.15 479.3 117.55 479 117.25 480.35 113.2 483.15 113.5 483 113.75 482.9 115.5 482.05 117.3 482.55 119.65 483.2 120.8 485.15 121.25 486 121.4 486.8 122 485.7 122 484.4 122 482.15 120.25 480.45 Z"/>
        <path fill="#FFFFFF" stroke="none" d="
M 101.95 453
Q 98.65 453 96.25 454.9 94.2 456.65 94 459
L 110 459
Q 109.75 456.65 107.6 454.9 105.3 453 101.95 453 Z"/>
    </g>
</svg>
