<svg xmlns="http://www.w3.org/2000/svg" viewBox="0 0 64 64">
    <g transform="translate(-884 -514)">
        <rect width="64" height="64" x="884" y="514" fill="#758C8E"/>
        <path fill="#849EA1" stroke="none" d=" M 944.7 564.2 Q 944.1 564.65 942.65 566.05 941.3 567.5 940.85 568.05 940.1 569.1 940.15 569.85 940.1 570.65 940.85 571.65 941.3 572.25 942.65 573.7 944.1 575.1 944.7 575.5 945.7 576.25 946.5 576.2 947.15 576.25 948 575.7 L 948 564 Q 947.15 563.5 946.5 563.5 945.7 563.5 944.7 564.2 M 948 517.55 Q 947.95 517.55 947.95 517.6 947.75 517.75 947.65 517.95 947.6 518 947.55 518.05 946.4 519.4 946.35 520.5 946.2 521.65 947.2 523.15 947.45 523.6 947.95 524.25 L 948 524.3 948 517.55 M 889.5 576.85 Q 888.95 577.2 888 578 L 895.4 578 Q 894.95 577.5 894.65 577.25 893.25 576.05 892.15 576.05 891 575.9 889.5 576.85 M 888.15 568.05 Q 887.75 567.5 886.35 566.05 884.85 564.65 884.3 564.2 884.15 564.1 884 564 L 884 575.75 Q 884.15 575.65 884.3 575.5 884.85 575.1 886.35 573.7 887.75 572.2 888.15 571.65 888.9 570.65 888.85 569.85 888.9 569.1 888.15 568.05 M 928.2 554.7 Q 927.55 555.4 927.05 555.95 926.05 557.05 925.6 557.65 924.5 559.1 924.55 560.2 924.5 561.35 925.6 562.8 926.25 563.7 928.2 565.75 930.25 567.7 931.15 568.4 932.6 569.45 933.7 569.4 934.85 569.45 936.3 568.4 937.15 567.75 939.25 565.75 941.25 563.7 941.9 562.8 942.95 561.35 942.9 560.2 942.95 559.1 941.9 557.65 941.45 557.05 940.45 555.95 939.9 555.4 939.25 554.7 937.15 552.7 936.3 552.05 934.85 551 933.7 551.05 932.6 551 931.15 552.05 930.25 552.75 928.2 554.7 M 928.9 523.45 Q 927.45 522.05 926.85 521.65 925.85 520.9 925.05 520.9 924.3 520.9 923.3 521.65 922.7 522.05 921.25 523.45 919.85 524.9 919.4 525.5 918.7 526.5 918.7 527.25 918.7 528.05 919.4 529.05 919.85 529.65 921.25 531.1 922.7 532.5 923.3 532.95 924.3 533.65 925.05 533.65 925.85 533.65 926.85 532.95 927.45 532.5 928.9 531.1 930.3 529.65 930.7 529.05 931.45 528.05 931.4 527.25 931.45 526.5 930.7 525.5 930.3 524.95 928.9 523.45 M 888 514 Q 887.3 514.5 886.35 515.25 884.75 516.7 884 517.55 L 884 524.3 Q 884.6 525.1 885.55 526.3 887.5 528.45 888.3 529.15 889.65 530.3 890.8 530.35 891.9 530.45 893.45 529.5 894.4 528.9 896.55 527.1 898.7 525.2 899.4 524.35 900.55 523 900.6 521.85 900.75 520.75 899.8 519.2 899.5 518.75 898.95 517.95 898.3 517.15 897.4 516.05 896.2 514.75 895.4 514 L 888 514 Z"/>
        <path fill="#7D9598" stroke="none" d=" M 931.1 576.45 Q 930.25 577.3 929.65 578 L 943.6 578 Q 942.95 577.3 942.15 576.45 940.05 574.45 939.2 573.85 937.75 572.8 936.6 572.8 935.5 572.8 934.05 573.85 933.15 574.5 931.1 576.45 M 916.25 566.55 Q 914.2 565.05 912.6 565.1 911.05 565.05 909 566.55 907.8 567.45 904.85 570.25 902.05 573.2 901.15 574.45 899.65 576.45 899.7 578 L 925.55 578 Q 925.6 576.45 924.1 574.45 923.2 573.2 920.4 570.25 917.45 567.45 916.25 566.55 M 923.9 517.95 Q 924 517.8 924.1 517.65 925.6 515.6 925.55 514 L 899.7 514 Q 899.65 515.6 901.15 517.65 901.25 517.8 901.4 517.95 902.35 519.2 904.85 521.8 907.8 524.6 909 525.5 911.05 527 912.6 526.95 914.2 527 916.25 525.5 917.45 524.6 920.4 521.8 922.9 519.2 923.9 517.95 M 948 527.55 L 947.95 527.55 Q 945.9 526 944.25 526.05 942.6 526 940.5 527.55 939.2 528.5 936.15 531.4 933.25 534.45 932.3 535.75 930.75 537.9 930.8 539.55 930.75 541.2 932.3 543.3 933.25 544.6 936.15 547.65 939.2 550.55 940.5 551.5 942.6 553.05 944.25 553 945.9 553.05 948 551.55 L 948 527.55 M 945.8 517.95 Q 945.8 516.8 944.75 515.4 944.4 514.9 943.55 514 L 929.7 514 Q 928.85 514.9 928.45 515.4 927.4 516.8 927.45 517.95 L 927.45 518 Q 927.4 519.1 928.45 520.55 929.1 521.45 931.1 523.5 933.15 525.5 934.05 526.15 935.5 527.2 936.6 527.15 937.75 527.2 939.2 526.15 940.05 525.5 942.15 523.5 944.1 521.45 944.75 520.55 945.8 519.1 945.8 518 L 945.8 517.95 M 888.35 531.4 Q 885.25 528.45 884.05 527.55 L 884 527.55 884 551.55 884.05 551.5 Q 885.25 550.6 888.35 547.65 891.25 544.6 892.2 543.3 893.75 541.2 893.7 539.55 893.75 537.9 892.2 535.75 891.25 534.45 888.35 531.4 M 908.45 537.05 Q 905.35 539.9 904.35 541.15 902.65 543.2 902.6 544.85 902.45 546.45 903.9 548.7 904.75 550 907.5 553.25 909 554.9 910.1 555.95 911 556.9 911.6 557.35 913.65 559 915.25 559.05 916.9 559.2 919.15 557.8 919.95 557.25 921.6 555.95 922.5 555.2 923.7 554.2 926.75 551.35 927.8 550.1 929.5 548.05 929.55 546.4 929.7 544.75 928.25 542.55 927.4 541.25 924.65 538 921.8 534.9 920.55 533.9 918.5 532.2 916.85 532.15 915.2 532 913 533.45 911.65 534.3 908.45 537.05 M 903 528.7 Q 902.1 527.8 901.35 527.7 900.6 527.6 899.5 528.15 898.85 528.5 897.2 529.65 895.65 530.9 895.1 531.45 894.25 532.35 894.15 533.1 894 533.85 894.6 534.95 894.95 535.6 896.1 537.25 897.3 538.85 897.85 539.35 898.75 540.25 899.5 540.3 900.3 540.45 901.35 539.85 902.05 539.5 903.65 538.35 905.25 537.1 905.75 536.6 906.65 535.7 906.7 534.95 906.85 534.15 906.3 533.1 905.95 532.45 904.8 530.8 903.55 529.2 903 528.7 M 889.25 555.95 L 889.2 556 Q 888.3 557.55 888.45 558.65 888.5 559.75 889.75 561.1 890.45 561.9 892.65 563.75 894.95 565.5 895.9 566 897.45 566.9 898.55 566.75 899.7 566.65 901 565.45 901.8 564.7 903.65 562.5 905.4 560.25 905.95 559.3 906.85 557.75 906.65 556.6 906.65 556.3 906.55 555.95 906.25 555.1 905.35 554.15 904.6 553.35 902.45 551.55 900.15 549.8 899.2 549.25 897.65 548.35 896.55 548.5 895.4 548.6 894.1 549.8 893.3 550.55 891.45 552.75 889.75 555 889.25 555.95 Z"/>
    </g>
    <g transform="translate(-292 -440)">
        <path fill="#694C39" stroke="none" d="
M 311.1 446
Q 304.95 446.85 304.15 451.85 304 452.2 304 452.6
L 304 462.55
Q 303.95 464.4 304.85 465.5 303.85 465.85 303 466.6
L 302.95 466.65
Q 300.95 468.45 301 470.9
L 301 471.05
Q 301 473.55 302.95 475.2 304.15 476.4 305.7 476.8 305.7 476.846875 305.75 476.9
L 305.7 476.85
Q 305.75 477.4 305.9 477.85 305.05 478.3 304.35 479.05 304.3 479.05 304.3 479.1 301.95 481.35 302 484.4 302 485.85 302.55 487.15 302.45 488.4 302.85 489.85
L 302.85 489.9
Q 303.5 492.4 305.65 493.95 305.7 494 305.8 494.05 305.9 494.1 306 494.15 306 494.45 306.05 494.75 306 496.6 308.75 497.9
L 308.7 497.9
Q 308.8 497.95 308.9 498 309 498.05 309.05 498.05 309.6 498.3 310.3 498.5 310.35 498.5 310.4 498.55 312.1 499 314.2 499 316.3 499 318 498.55 318.05 498.5 318.15 498.5 318.7 498.25 319.25 498.05 319.3 498.05 319.4 498 320.6 497.4 321.25 496.8 321.35 496.7 321.4 496.65 322.1 495.8 322.3 495 322.35 494.75 322.35 494.5 322.35 494.4 322.35 494.25 322.35 494.2 322.35 494.05 322.35 493.7 322.35 493.35 323.1 493.25 324 493.25 324.9 493.25 325.7 493.35 325.65 493.7 325.65 494.05 325.65 494.45 325.7 494.75 325.65 496.6 328.4 497.9
L 328.35 497.9
Q 328.55 498 328.9 498.1 329.35 498.3 329.9 498.5 329.95 498.5 330.05 498.55 331.75 499 333.85 499 336 499 337.65 498.55 337.7 498.5 337.8 498.5 338.35 498.3 338.9 498.1 339 498.05 339.15 498 340.25 497.4 340.9 496.8 341 496.7 341.05 496.65 341.75 495.8 341.95 495 342 494.75 342 494.5 342 494.4 342 494.25 342 494.2 342 494.15 342.1 494.1 342.25 494.05 342.3 494 342.35 493.95 344.5 492.4 345.2 489.9
L 345.2 489.85
Q 345.55 488.4 345.45 487.15 346 485.85 346 484.4 346.05 481.35 343.7 479.1 343.7 479.05 343.65 479.05 343 478.35 342.2 477.9 342.25 477.7 342.3 477.5
L 342.3 477.45
Q 342.35 477.25 342.4 477.1 342.45 476.9 342.45 476.75 343.85 476.35 345 475.3 347.05 473.55 347 471.05 347 468.4 345.05 466.65
L 345 466.6
Q 344.15 465.85 343.15 465.5 344 464.4 344 462.55
L 344 452.6
Q 344 452.15 343.85 451.8 343 446.85 336.95 446.05 324 444.05 311.15 446
L 311.1 446 Z"/>
        <path fill="#FFE0B1" stroke="none" d="
M 312.8 483.15
Q 312.5 483 312.25 482.9 310.5 482.05 308.7 482.55 306.35 483.2 305.2 485.15 304.7 486 304.6 486.8 304.4 488 304.75 489.35 305.25 491.2 306.8 492.3 307.05 492.45 307.35 492.6 307.45 492.7 307.55 492.75 308.7 493.35 310.2 492.45 311.85 491.55 312.95 489.55 314.1 487.65 314.1 485.7 314.05 483.95 313 483.3 312.95 483.25 312.9 483.25 312.85 483.2 312.8 483.15 Z"/>
        <path fill="#2ECC71" stroke="none" d="
M 308.45 479
Q 306.85 479.3 305.75 480.45 304 482.15 304 484.4 304 485.7 304.6 486.8 304.7 486 305.2 485.15 306.35 483.2 308.7 482.55 310.5 482.05 312.25 482.9 312.5 483 312.8 483.15 308.75 480.35 308.45 479 Z"/>
        <path fill="#FFE0B1" stroke="none" d="
M 343.4 486.8
Q 343.25 486 342.8 485.15 341.65 483.2 339.3 482.55 337.5 482.05 335.75 482.9 335.5 483 335.2 483.15 335.15 483.2 335.1 483.25 335.05 483.25 335 483.3 333.95 483.95 333.9 485.7 333.9 487.65 335.05 489.55 336.15 491.55 337.8 492.45 339.3 493.35 340.45 492.75 340.55 492.7 340.65 492.6 340.95 492.45 341.2 492.3 342.75 491.2 343.25 489.35 343.6 488 343.4 486.8 Z"/>
        <path fill="#2ECC71" stroke="none" d="
M 342.25 480.45
Q 341.15 479.3 339.55 479 339.25 480.35 335.2 483.15 335.5 483 335.75 482.9 337.5 482.05 339.3 482.55 341.65 483.2 342.8 485.15 343.25 486 343.4 486.8 344 485.7 344 484.4 344 482.15 342.25 480.45 Z"/>
        <path fill="#333333" stroke="none" d="
M 314.2 489
Q 311.65 489 309.8 490.5 308 491.95 308 494.05 308 494.2 308.05 494.25 308.05 494.4 308.05 494.5 308.15 495.4 309.6 496.1 309.7 496.15 309.8 496.2 310.3 496.4 310.9 496.6 312.4 497 314.2 497 316 497 317.45 496.6 318 496.4 318.5 496.2 319.4 495.75 319.9 495.3 320.25 494.9 320.35 494.5 320.35 494.4 320.35 494.25 320.35 494.2 320.35 494.05 320.35 491.95 318.5 490.5 316.75 489 314.2 489 Z"/>
        <path fill="#333333" stroke="none" d="
M 338.2 490.5
Q 336.4 489 333.85 489 331.3 489 329.5 490.5 327.65 491.95 327.65 494.05 327.65 494.2 327.7 494.25 327.7 494.4 327.7 494.5 327.8 495.4 329.25 496.1 329.35 496.15 329.5 496.2 330 496.4 330.55 496.6 332.05 497 333.85 497 335.7 497 337.1 496.6 337.65 496.4 338.2 496.2 339.05 495.75 339.55 495.3 339.9 494.9 340 494.5 340 494.4 340 494.25 340 494.2 340 494.05 340 491.95 338.2 490.5 Z"/>
        <path fill="#E74C3C" stroke="none" d="
M 307.7 489.65
Q 307.75 490.1 307.85 490.4 308 490.95 308.25 491.35 309.25 493 311.75 493
L 317.8 493
Q 318 492.85 318.25 492.65 320.6 491.25 324 491.25 327.4 491.25 329.75 492.65 329.95 492.85 330.2 493
L 336.25 493
Q 339.65 493 340.35 490.05 340.4 489.85 340.45 489.65 340.45 489.5 340.5 489.3 340.55 488.85 340.65 488.35
L 340.65 488.3
Q 341.15 480.75 337.45 477.45
L 310.6 477.45
Q 306.95 481 307.5 488.35 307.55 489 307.7 489.65
M 312.45 489.85
Q 311.5 488.9 311.5 487.55
L 311.5 486.3 318 486.3 318 487.55
Q 318 488.9 317.05 489.85 316.1 490.8 314.75 490.8 313.4 490.8 312.45 489.85
M 330.95 489.85
Q 330 488.9 330 487.55
L 330 486.3 336.5 486.3 336.5 487.55
Q 336.5 488.9 335.55 489.85 334.6 490.8 333.25 490.8 331.9 490.8 330.95 489.85 Z"/>
        <path fill="#CD4335" stroke="none" d="
M 330 487.55
Q 330 488.9 330.95 489.85 331.9 490.8 333.25 490.8 334.6 490.8 335.55 489.85 336.5 488.9 336.5 487.55
L 336.5 486.3 330 486.3 330 487.55
M 311.5 487.55
Q 311.5 488.9 312.45 489.85 313.4 490.8 314.75 490.8 316.1 490.8 317.05 489.85 318 488.9 318 487.55
L 318 486.3 311.5 486.3 311.5 487.55 Z"/>
        <path fill="#D7BD93" stroke="none" d="
M 343.7 468.1
Q 342.4 467 340.55 467 338.7 467 337.4 468.1 336.15 469.3 336.1 470.9
L 336.1 471.05
Q 336.15 472.7 337.4 473.75 338.7 475 340.55 475 342.4 475 343.7 473.75 345 472.65 345 471.05 345 469.3 343.7 468.1
M 307.4 467
Q 305.6 467 304.3 468.1 303 469.3 303 470.9
L 303 471.05
Q 303 472.7 304.3 473.75 305.6 475 307.4 475 309.25 475 310.55 473.75 311.85 472.65 311.85 471.05 311.85 469.3 310.55 468.1 309.25 467 307.4 467 Z"/>
        <path fill="#FFE0B1" stroke="none" d="
M 311.75 480.3
L 316.25 480.3 331.75 480.3 336.25 480.3
Q 339.65 480.3 340.35 477.05 340.4 476.8 340.45 476.6 340.45 476.4 340.5 476.2 340.75 474.45 340.85 472.65 324.05 477.1 307.2 472.65 307.4 474.65 307.7 476.6 307.75 477.05 307.85 477.4 308 478.05 308.25 478.5 309.25 480.3 311.75 480.3 Z"/>
        <path fill="#2ECC71" stroke="none" d="
M 316.25 480.3
Q 316.8 481.5 318.25 482.45 320.6 484 324 484 327.4 484 329.75 482.45 331.15 481.5 331.75 480.3
L 316.25 480.3 Z"/>
        <path fill="#694C39" stroke="none" d="
M 311.75 456
Q 309.85 456 308.8 457.1 307.9 458.05 307.7 459.75 307.2 462.95 307.05 466.15 307 467.7 307.05 469.3 307.05 471 307.2 472.65 324.05 477.1 340.85 472.65 340.95 471.3 341 469.9 341 469.6 341 469.3 341.05 467.4 340.95 465.5 340.75 462.6 340.4 459.65 340.15 458.05 339.3 457.1 338.25 456 336.25 456
L 311.75 456 Z"/>
        <path fill="#28B162" stroke="none" d="
M 306 452.6
L 306 460 342 460 342 452.6 341.95 452.6
Q 341.4 448.65 336.65 448 324 446.05 311.4 447.95 306.55 448.65 306.05 452.6
L 306 452.6 Z"/>
        <path fill="#24A65B" stroke="none" d="
M 306 462.55
Q 305.95 465 308.65 465
L 339.35 465
Q 342 465 342 462.55
L 342 460 306 460 306 462.55 Z"/>
        <path fill="#694C39" stroke="none" d="
M 320.5 459.2
Q 319.15 460.35 319 461.95 319 462.2 319.15 462.45 319.25 462.7 319.5 462.85 319.75 463 320 463
L 328 463
Q 328.3 463 328.55 462.85 328.8 462.7 328.9 462.45 329.05 462.2 329 461.9 328.85 460.35 327.45 459.2 326.05 458 324 458 322 458 320.5 459.2 Z"/>
    </g>
</svg>
