<svg xmlns="http://www.w3.org/2000/svg" viewBox="0 0 64 64">
    <g transform="translate(-588 -514)">
        <rect width="64" height="64" x="588" y="514" fill="#758C8E"/>
        <path fill="#566768" stroke="none" d=" M 605 545 L 635 545 635 531 605 531 605 545 M 605 563 L 605 576 635 576 635 563 605 563 M 603 563 L 590 563 590 570.3 Q 590.15 576 595.95 576 L 603 576 603 563 M 590 547 L 590 561 619 561 619 547 590 547 M 603 531 L 590 531 590 545 603 545 603 531 M 619 529 L 619 516 595.95 516 Q 590 516 590 521.95 L 590 529 619 529 M 650 545 L 650 531 637 531 637 545 650 545 M 650 570.3 L 650 563 637 563 637 576 644.05 576 Q 649.85 576 650 570.3 M 650 561 L 650 547 621 547 621 561 650 561 M 650 529 L 650 521.95 Q 650 516 644.05 516 L 621 516 621 529 650 529 Z"/>
    </g>
</svg>
