<svg xmlns="http://www.w3.org/2000/svg" viewBox="0 0 64 64">
    <rect width="64" height="64" fill="#758C8E"></rect>
    <path fill="#33E27D" stroke="none"
        d="M 64 7.95 C 64 2.65 61.35 0 56.05 0 L 7.95 0 C 2.65 0 0 2.65 0 7.95 L 0 56.05 C 0 61.35 2.65 64 7.95 64 L 56.05 64 C 61.35 64 64 61.35 64 56.05 L 64 7.95 M 56.05 2 C 60.017 2 62 3.983 62 7.95 L 62 56.05 C 62 60.017 60.017 62 56.05 62 L 7.95 62 C 3.983 62 2 60.017 2 56.05 L 2 7.95 C 2 3.983 3.983 2 7.95 2 L 56.05 2 Z"></path>
    <path fill="#2ECC71" stroke="none"
        d="M 62 7.95 C 62 3.983 60.017 2 56.05 2 L 7.95 2 C 3.983 2 2 3.983 2 7.95 L 2 56.05 C 2 60.017 3.983 62 7.95 62 L 56.05 62 C 60.017 62 62 60.017 62 56.05 L 62 7.95 M 44 10 L 54 10 L 54 20 L 54 44 L 54 54 L 44 54 L 20 54 L 10 54 L 10 44 L 10 20 L 10 10 L 20 10 L 44 10 Z"></path>
    <path fill="#28B462" stroke="none"
        d="M 54 54 L 54 44 L 44.5 34.5 L 34.5 44.5 L 44 54 L 54 54 M 20 54 L 29.5 44.5 L 19.5 34.5 L 10 44 L 10 54 L 20 54 M 22 32 L 32 42 L 42 32 L 32 22 L 22 32 M 29.5 19.5 L 20 10 L 10 10 L 10 20 L 19.5 29.5 L 29.5 19.5 M 54 10 L 44 10 L 34.5 19.5 L 44.5 29.5 L 54 20 L 54 10 Z"></path>
    <path fill="#219853" stroke="none"
        d="M 20 10 L 29.5 19.5 L 19.5 29.5 L 10 20 L 10 44 L 19.5 34.5 L 29.5 44.5 L 20 54 L 44 54 L 34.5 44.5 L 44.5 34.5 L 54 44 L 54 20 L 44.5 29.5 L 34.5 19.5 L 44 10 L 20 10 M 32 42 L 22 32 L 32 22 L 42 32 L 32 42 Z"></path>
</svg>