<svg xmlns="http://www.w3.org/2000/svg" viewBox="0 0 64 64">
    <rect width="64" height="64" fill="#758C8E"></rect>
    <path fill="#849EA1" stroke="none"
        d="M 60.7 50.2 C 60.3 50.5 59.617 51.117 58.65 52.05 C 57.75 53.017 57.15 53.683 56.85 54.05 C 56.35 54.75 56.117 55.35 56.15 55.85 C 56.117 56.383 56.35 56.983 56.85 57.65 C 57.15 58.05 57.75 58.733 58.65 59.7 C 59.617 60.633 60.3 61.233 60.7 61.5 C 61.367 62 61.967 62.233 62.5 62.2 C 62.933 62.233 63.433 62.067 64 61.7 L 64 50 C 63.433 49.667 62.933 49.5 62.5 49.5 C 61.967 49.5 61.367 49.733 60.7 50.2 M 64 3.55 C 63.967 3.55 63.95 3.567 63.95 3.6 C 63.817 3.7 63.717 3.817 63.65 3.95 C 63.617 3.983 63.583 4.017 63.55 4.05 C 62.783 4.95 62.383 5.767 62.35 6.5 C 62.25 7.267 62.533 8.15 63.2 9.15 C 63.367 9.45 63.617 9.817 63.95 10.25 L 64 10.3 L 64 3.55 M 5.5 62.85 C 5.133 63.083 4.633 63.467 4 64 L 11.4 64 C 11.1 63.667 10.85 63.417 10.65 63.25 C 9.717 62.45 8.883 62.05 8.15 62.05 C 7.383 61.95 6.5 62.217 5.5 62.85 M 4.15 54.05 C 3.883 53.683 3.283 53.017 2.35 52.05 C 1.35 51.117 0.667 50.5 0.3 50.2 C 0.2 50.133 0.1 50.067 0 50 L 0 61.75 C 0.1 61.683 0.2 61.6 0.3 61.5 C 0.667 61.233 1.35 60.633 2.35 59.7 C 3.283 58.7 3.883 58.017 4.15 57.65 C 4.65 56.983 4.883 56.383 4.85 55.85 C 4.883 55.35 4.65 54.75 4.15 54.05 M 44.2 40.7 C 43.767 41.167 43.383 41.583 43.05 41.95 C 42.383 42.683 41.9 43.25 41.6 43.65 C 40.867 44.617 40.517 45.467 40.55 46.2 C 40.517 46.967 40.867 47.833 41.6 48.8 C 42.033 49.4 42.9 50.383 44.2 51.75 C 45.567 53.05 46.55 53.933 47.15 54.4 C 48.117 55.1 48.967 55.433 49.7 55.4 C 50.467 55.433 51.333 55.1 52.3 54.4 C 52.867 53.967 53.85 53.083 55.25 51.75 C 56.583 50.383 57.467 49.4 57.9 48.8 C 58.6 47.833 58.933 46.967 58.9 46.2 C 58.933 45.467 58.6 44.617 57.9 43.65 C 57.6 43.25 57.117 42.683 56.45 41.95 C 56.083 41.583 55.683 41.167 55.25 40.7 C 53.85 39.367 52.867 38.483 52.3 38.05 C 51.333 37.35 50.467 37.017 49.7 37.05 C 48.967 37.017 48.117 37.35 47.15 38.05 C 46.55 38.517 45.567 39.4 44.2 40.7 M 44.9 9.45 C 43.933 8.517 43.25 7.917 42.85 7.65 C 42.183 7.15 41.583 6.9 41.05 6.9 C 40.55 6.9 39.967 7.15 39.3 7.65 C 38.9 7.917 38.217 8.517 37.25 9.45 C 36.317 10.417 35.7 11.1 35.4 11.5 C 34.933 12.167 34.7 12.75 34.7 13.25 C 34.7 13.783 34.933 14.383 35.4 15.05 C 35.7 15.45 36.317 16.133 37.25 17.1 C 38.217 18.033 38.9 18.65 39.3 18.95 C 39.967 19.417 40.55 19.65 41.05 19.65 C 41.583 19.65 42.183 19.417 42.85 18.95 C 43.25 18.65 43.933 18.033 44.9 17.1 C 45.833 16.133 46.433 15.45 46.7 15.05 C 47.2 14.383 47.433 13.783 47.4 13.25 C 47.433 12.75 47.2 12.167 46.7 11.5 C 46.433 11.133 45.833 10.45 44.9 9.45 M 4 0 C 3.533 0.333 2.983 0.75 2.35 1.25 C 1.283 2.217 0.5 2.983 0 3.55 L 0 10.3 C 0.4 10.833 0.917 11.5 1.55 12.3 C 2.85 13.733 3.767 14.683 4.3 15.15 C 5.2 15.917 6.033 16.317 6.8 16.35 C 7.533 16.417 8.417 16.133 9.45 15.5 C 10.083 15.1 11.117 14.3 12.55 13.1 C 13.983 11.833 14.933 10.917 15.4 10.35 C 16.167 9.45 16.567 8.617 16.6 7.85 C 16.7 7.117 16.433 6.233 15.8 5.2 C 15.6 4.9 15.317 4.483 14.95 3.95 C 14.517 3.417 14 2.783 13.4 2.05 C 12.6 1.183 11.933 0.5 11.4 0 L 4 0 Z"></path>
    <path fill="#7D9598" stroke="none"
        d="M 47.1 62.45 C 46.533 63.017 46.05 63.533 45.65 64 L 59.6 64 C 59.167 63.533 58.683 63.017 58.15 62.45 C 56.75 61.117 55.767 60.25 55.2 59.85 C 54.233 59.15 53.367 58.8 52.6 58.8 C 51.867 58.8 51.017 59.15 50.05 59.85 C 49.45 60.283 48.467 61.15 47.1 62.45 M 32.25 52.55 C 30.883 51.55 29.667 51.067 28.6 51.1 C 27.567 51.067 26.367 51.55 25 52.55 C 24.2 53.15 22.817 54.383 20.85 56.25 C 18.983 58.217 17.75 59.617 17.15 60.45 C 16.15 61.783 15.667 62.967 15.7 64 L 41.55 64 C 41.583 62.967 41.1 61.783 40.1 60.45 C 39.5 59.617 38.267 58.217 36.4 56.25 C 34.433 54.383 33.05 53.15 32.25 52.55 M 39.9 3.95 C 39.967 3.85 40.033 3.75 40.1 3.65 C 41.1 2.283 41.583 1.067 41.55 0 L 15.7 0 C 15.667 1.067 16.15 2.283 17.15 3.65 C 17.217 3.75 17.3 3.85 17.4 3.95 C 18.033 4.783 19.183 6.067 20.85 7.8 C 22.817 9.667 24.2 10.9 25 11.5 C 26.367 12.5 27.567 12.983 28.6 12.95 C 29.667 12.983 30.883 12.5 32.25 11.5 C 33.05 10.9 34.433 9.667 36.4 7.8 C 38.067 6.067 39.233 4.783 39.9 3.95 M 64 13.55 L 63.95 13.55 C 62.583 12.517 61.35 12.017 60.25 12.05 C 59.15 12.017 57.9 12.517 56.5 13.55 C 55.633 14.183 54.183 15.467 52.15 17.4 C 50.217 19.433 48.933 20.883 48.3 21.75 C 47.267 23.183 46.767 24.45 46.8 25.55 C 46.767 26.65 47.267 27.9 48.3 29.3 C 48.933 30.167 50.217 31.617 52.15 33.65 C 54.183 35.583 55.633 36.867 56.5 37.5 C 57.9 38.533 59.15 39.033 60.25 39 C 61.35 39.033 62.6 38.55 64 37.55 L 64 13.55 M 61.8 3.95 C 61.8 3.183 61.45 2.333 60.75 1.4 C 60.517 1.067 60.117 0.6 59.55 0 L 45.7 0 C 45.133 0.6 44.717 1.067 44.45 1.4 C 43.75 2.333 43.417 3.183 43.45 3.95 L 43.45 4 C 43.417 4.733 43.75 5.583 44.45 6.55 C 44.883 7.15 45.767 8.133 47.1 9.5 C 48.467 10.833 49.45 11.717 50.05 12.15 C 51.017 12.85 51.867 13.183 52.6 13.15 C 53.367 13.183 54.233 12.85 55.2 12.15 C 55.767 11.717 56.75 10.833 58.15 9.5 C 59.45 8.133 60.317 7.15 60.75 6.55 C 61.45 5.583 61.8 4.733 61.8 4 L 61.8 3.95 M 4.35 17.4 C 2.283 15.433 0.85 14.15 0.05 13.55 L 0 13.55 L 0 37.55 L 0.05 37.5 C 0.85 36.9 2.283 35.617 4.35 33.65 C 6.283 31.617 7.567 30.167 8.2 29.3 C 9.233 27.9 9.733 26.65 9.7 25.55 C 9.733 24.45 9.233 23.183 8.2 21.75 C 7.567 20.883 6.283 19.433 4.35 17.4 M 24.45 23.05 C 22.383 24.95 21.017 26.317 20.35 27.15 C 19.217 28.517 18.633 29.75 18.6 30.85 C 18.5 31.917 18.933 33.2 19.9 34.7 C 20.467 35.567 21.667 37.083 23.5 39.25 C 24.5 40.35 25.367 41.25 26.1 41.95 C 26.7 42.583 27.2 43.05 27.6 43.35 C 28.967 44.45 30.183 45.017 31.25 45.05 C 32.35 45.15 33.65 44.733 35.15 43.8 C 35.683 43.433 36.5 42.817 37.6 41.95 C 38.2 41.45 38.9 40.867 39.7 40.2 C 41.733 38.3 43.1 36.933 43.8 36.1 C 44.933 34.733 45.517 33.5 45.55 32.4 C 45.65 31.3 45.217 30.017 44.25 28.55 C 43.683 27.683 42.483 26.167 40.65 24 C 38.75 21.933 37.383 20.567 36.55 19.9 C 35.183 18.767 33.95 18.183 32.85 18.15 C 31.75 18.05 30.467 18.483 29 19.45 C 28.1 20.017 26.583 21.217 24.45 23.05 M 19 14.7 C 18.4 14.1 17.85 13.767 17.35 13.7 C 16.85 13.633 16.233 13.783 15.5 14.15 C 15.067 14.383 14.3 14.883 13.2 15.65 C 12.167 16.483 11.467 17.083 11.1 17.45 C 10.533 18.05 10.217 18.6 10.15 19.1 C 10.05 19.6 10.2 20.217 10.6 20.95 C 10.833 21.383 11.333 22.15 12.1 23.25 C 12.9 24.317 13.483 25.017 13.85 25.35 C 14.45 25.95 15 26.267 15.5 26.3 C 16.033 26.4 16.65 26.25 17.35 25.85 C 17.817 25.617 18.583 25.117 19.65 24.35 C 20.717 23.517 21.417 22.933 21.75 22.6 C 22.35 22 22.667 21.45 22.7 20.95 C 22.8 20.417 22.667 19.8 22.3 19.1 C 22.067 18.667 21.567 17.9 20.8 16.8 C 19.967 15.733 19.367 15.033 19 14.7 M 5.25 41.95 L 5.2 42 C 4.6 43.033 4.35 43.917 4.45 44.65 C 4.483 45.383 4.917 46.2 5.75 47.1 C 6.217 47.633 7.183 48.517 8.65 49.75 C 10.183 50.917 11.267 51.667 11.9 52 C 12.933 52.6 13.817 52.85 14.55 52.75 C 15.317 52.683 16.133 52.25 17 51.45 C 17.533 50.95 18.417 49.967 19.65 48.5 C 20.817 47 21.583 45.933 21.95 45.3 C 22.55 44.267 22.783 43.367 22.65 42.6 C 22.65 42.4 22.617 42.183 22.55 41.95 C 22.35 41.383 21.95 40.783 21.35 40.15 C 20.85 39.617 19.883 38.75 18.45 37.55 C 16.917 36.383 15.833 35.617 15.2 35.25 C 14.167 34.65 13.283 34.4 12.55 34.5 C 11.783 34.567 10.967 35 10.1 35.8 C 9.567 36.3 8.683 37.283 7.45 38.75 C 6.317 40.25 5.583 41.317 5.25 41.95 Z"></path>
    <path fill="#33E27D" stroke="none"
        d="M 34.9 23.55 C 33 21.65 31.1 21.65 29.2 23.55 L 23.55 29.2 C 22.783 29.967 22.333 30.733 22.2 31.5 C 21.967 32.633 22.417 33.767 23.55 34.9 L 29.2 40.55 C 31.1 42.417 33 42.4 34.9 40.5 L 40.55 34.85 C 41.65 33.75 42.117 32.667 41.95 31.6 C 41.817 30.8 41.35 30 40.55 29.2 L 34.9 23.55 M 30.65 25 C 31.583 24.033 32.533 24.033 33.5 25 L 39.15 30.65 C 39.65 31.117 39.933 31.583 40 32.05 C 39.9 32.483 39.617 32.95 39.15 33.45 L 33.5 39.1 C 32.533 40.033 31.567 40.05 30.6 39.15 L 30.65 39.15 L 25 33.5 C 24.033 32.533 24.033 31.583 25 30.65 L 30.65 25 Z"></path>
    <path fill="#2ECC71" stroke="none"
        d="M 33.5 25 C 32.533 24.033 31.583 24.033 30.65 25 L 25 30.65 C 24.033 31.583 24.033 32.533 25 33.5 L 30.65 39.15 L 30.6 39.15 C 31.567 40.05 32.533 40.033 33.5 39.1 L 39.15 33.45 C 39.617 32.95 39.9 32.483 40 32.05 C 39.933 31.583 39.65 31.117 39.15 30.65 L 33.5 25 Z"></path>
</svg>