<svg xmlns="http://www.w3.org/2000/svg" viewBox="0 0 64 64">
    <path fill="#694C39" stroke="none"
        d="M 19.1 6 C 15 6.567 12.683 8.517 12.15 11.85 C 12.05 12.083 12 12.333 12 12.6 L 12 22.55 C 11.967 23.783 12.25 24.767 12.85 25.5 C 12.183 25.733 11.567 26.1 11 26.6 L 10.95 26.65 C 9.617 27.85 8.967 29.267 9 30.9 L 9 31.05 C 9 32.717 9.65 34.1 10.95 35.2 C 11.75 36 12.667 36.533 13.7 36.8 C 13.7 36.831 13.717 36.865 13.75 36.9 L 13.7 36.85 C 13.733 37.217 13.8 37.55 13.9 37.85 C 13.333 38.15 12.817 38.55 12.35 39.05 C 12.317 39.05 12.3 39.067 12.3 39.1 C 10.733 40.6 9.967 42.367 10 44.4 C 10 45.367 10.183 46.283 10.55 47.15 C 10.483 47.983 10.583 48.883 10.85 49.85 L 10.85 49.9 C 11.283 51.567 12.217 52.917 13.65 53.95 C 13.683 53.983 13.733 54.017 13.8 54.05 C 13.867 54.083 13.933 54.117 14 54.15 C 14 54.35 14.017 54.55 14.05 54.75 C 14.017 55.983 14.917 57.033 16.75 57.9 L 16.7 57.9 C 16.767 57.933 16.833 57.967 16.9 58 C 16.967 58.033 17.017 58.05 17.05 58.05 C 17.417 58.217 17.833 58.367 18.3 58.5 C 18.333 58.5 18.367 58.517 18.4 58.55 C 19.533 58.85 20.8 59 22.2 59 C 23.6 59 24.867 58.85 26 58.55 C 26.033 58.517 26.083 58.5 26.15 58.5 C 26.517 58.333 26.883 58.183 27.25 58.05 C 27.283 58.05 27.333 58.033 27.4 58 C 28.2 57.6 28.817 57.2 29.25 56.8 C 29.317 56.733 29.367 56.683 29.4 56.65 C 29.867 56.083 30.167 55.533 30.3 55 C 30.333 54.833 30.35 54.667 30.35 54.5 C 30.35 54.433 30.35 54.35 30.35 54.25 C 30.35 54.217 30.35 54.15 30.35 54.05 C 30.35 53.817 30.35 53.583 30.35 53.35 C 30.85 53.283 31.4 53.25 32 53.25 C 32.6 53.25 33.167 53.283 33.7 53.35 C 33.667 53.583 33.65 53.817 33.65 54.05 C 33.65 54.317 33.667 54.55 33.7 54.75 C 33.667 55.983 34.567 57.033 36.4 57.9 L 36.35 57.9 C 36.483 57.967 36.667 58.033 36.9 58.1 C 37.2 58.233 37.533 58.367 37.9 58.5 C 37.933 58.5 37.983 58.517 38.05 58.55 C 39.183 58.85 40.45 59 41.85 59 C 43.283 59 44.55 58.85 45.65 58.55 C 45.683 58.517 45.733 58.5 45.8 58.5 C 46.167 58.367 46.533 58.233 46.9 58.1 C 46.967 58.067 47.05 58.033 47.15 58 C 47.883 57.6 48.467 57.2 48.9 56.8 C 48.967 56.733 49.017 56.683 49.05 56.65 C 49.517 56.083 49.817 55.533 49.95 55 C 49.983 54.833 50 54.667 50 54.5 C 50 54.433 50 54.35 50 54.25 C 50 54.217 50 54.183 50 54.15 C 50.067 54.117 50.15 54.083 50.25 54.05 C 50.283 54.017 50.317 53.983 50.35 53.95 C 51.783 52.917 52.733 51.567 53.2 49.9 L 53.2 49.85 C 53.433 48.883 53.517 47.983 53.45 47.15 C 53.817 46.283 54 45.367 54 44.4 C 54.033 42.367 53.267 40.6 51.7 39.1 C 51.7 39.067 51.683 39.05 51.65 39.05 C 51.217 38.583 50.733 38.2 50.2 37.9 C 50.233 37.767 50.267 37.633 50.3 37.5 L 50.3 37.45 C 50.333 37.317 50.367 37.2 50.4 37.1 C 50.433 36.967 50.45 36.85 50.45 36.75 C 51.383 36.483 52.233 36 53 35.3 C 54.367 34.133 55.033 32.717 55 31.05 C 55 29.283 54.35 27.817 53.05 26.65 L 53 26.6 C 52.433 26.1 51.817 25.733 51.15 25.5 C 51.717 24.767 52 23.783 52 22.55 L 52 12.6 C 52 12.3 51.95 12.033 51.85 11.8 C 51.283 8.5 48.983 6.583 44.95 6.05 C 36.317 4.717 27.717 4.7 19.15 6 L 19.1 6 Z"></path>
    <path fill="#333333" stroke="none"
        d="M 22.2 49 C 20.5 49 19.033 49.5 17.8 50.5 C 16.6 51.467 16 52.65 16 54.05 C 16 54.15 16.017 54.217 16.05 54.25 C 16.05 54.35 16.05 54.433 16.05 54.5 C 16.117 55.1 16.633 55.633 17.6 56.1 C 17.667 56.133 17.733 56.167 17.8 56.2 C 18.133 56.333 18.5 56.467 18.9 56.6 C 19.9 56.867 21 57 22.2 57 C 23.4 57 24.483 56.867 25.45 56.6 C 25.817 56.467 26.167 56.333 26.5 56.2 C 27.1 55.9 27.567 55.6 27.9 55.3 C 28.133 55.033 28.283 54.767 28.35 54.5 C 28.35 54.433 28.35 54.35 28.35 54.25 C 28.35 54.217 28.35 54.15 28.35 54.05 C 28.35 52.65 27.733 51.467 26.5 50.5 C 25.333 49.5 23.9 49 22.2 49 Z"></path>
    <path fill="#333333" stroke="none"
        d="M 41.85 49 C 40.15 49 38.7 49.5 37.5 50.5 C 36.267 51.467 35.65 52.65 35.65 54.05 C 35.65 54.15 35.667 54.217 35.7 54.25 C 35.7 54.35 35.7 54.433 35.7 54.5 C 35.767 55.1 36.283 55.633 37.25 56.1 C 37.317 56.133 37.4 56.167 37.5 56.2 C 37.833 56.333 38.183 56.467 38.55 56.6 C 39.55 56.867 40.65 57 41.85 57 C 43.083 57 44.167 56.867 45.1 56.6 C 45.467 56.467 45.833 56.333 46.2 56.2 C 46.767 55.9 47.217 55.6 47.55 55.3 C 47.783 55.033 47.933 54.767 48 54.5 C 48 54.433 48 54.35 48 54.25 C 48 54.217 48 54.15 48 54.05 C 48 52.65 47.4 51.467 46.2 50.5 C 45 49.5 43.55 49 41.85 49 Z"></path>
    <path fill="#CD4335" stroke="none"
        d="M 25.8 53 C 25.933 52.9 26.083 52.783 26.25 52.65 C 27.817 51.717 29.733 51.25 32 51.25 C 34.267 51.25 36.183 51.717 37.75 52.65 C 37.883 52.783 38.033 52.9 38.2 53 L 39.75 53 C 39.35 51.533 38.683 50.167 37.75 48.9 C 37.583 48.7 37.433 48.517 37.3 48.35 C 35.8 46.75 34.033 45.95 32 45.95 C 29.967 45.95 28.217 46.75 26.75 48.35 C 26.583 48.517 26.417 48.7 26.25 48.9 C 25.283 50.167 24.617 51.533 24.25 53 L 25.8 53 Z"></path>
    <path fill="#E74C3C" stroke="none"
        d="M 16.25 51.35 C 16.917 52.45 18.083 53 19.75 53 L 24.25 53 C 24.617 51.533 25.283 50.167 26.25 48.9 C 26.417 48.7 26.583 48.517 26.75 48.35 C 28.217 46.75 29.967 45.95 32 45.95 C 34.033 45.95 35.8 46.75 37.3 48.35 C 37.433 48.517 37.583 48.7 37.75 48.9 C 38.683 50.167 39.35 51.533 39.75 53 L 44.25 53 C 46.517 53 47.883 52.017 48.35 50.05 C 48.383 49.917 48.417 49.783 48.45 49.65 C 48.45 49.55 48.467 49.433 48.5 49.3 C 48.533 49 48.583 48.683 48.65 48.35 L 48.65 48.3 C 48.983 43.267 47.917 39.65 45.45 37.45 L 18.6 37.45 C 16.167 39.817 15.133 43.45 15.5 48.35 C 15.533 48.783 15.6 49.217 15.7 49.65 C 15.733 49.95 15.783 50.2 15.85 50.4 C 15.95 50.767 16.083 51.083 16.25 51.35 Z"></path>
    <path fill="#D7BD93" stroke="none"
        d="M 15.4 27 C 14.2 27 13.167 27.367 12.3 28.1 C 11.433 28.9 11 29.833 11 30.9 L 11 31.05 C 11 32.15 11.433 33.05 12.3 33.75 C 13.167 34.583 14.2 35 15.4 35 C 16.633 35 17.683 34.583 18.55 33.75 C 19.417 33.017 19.85 32.117 19.85 31.05 C 19.85 29.883 19.417 28.9 18.55 28.1 C 17.683 27.367 16.633 27 15.4 27 M 48.55 27 C 47.317 27 46.267 27.367 45.4 28.1 C 44.567 28.9 44.133 29.833 44.1 30.9 L 44.1 31.05 C 44.133 32.15 44.567 33.05 45.4 33.75 C 46.267 34.583 47.317 35 48.55 35 C 49.783 35 50.833 34.583 51.7 33.75 C 52.567 33.017 53 32.117 53 31.05 C 53 29.883 52.567 28.9 51.7 28.1 C 50.833 27.367 49.783 27 48.55 27 Z"></path>
    <path fill="#2ECC71" stroke="none"
        d="M 24.25 40.3 C 24.617 41.1 25.283 41.817 26.25 42.45 C 27.817 43.483 29.733 44 32 44 C 34.267 44 36.183 43.483 37.75 42.45 C 38.683 41.817 39.35 41.1 39.75 40.3 L 24.25 40.3 Z"></path>
    <path fill="#694C39" stroke="none"
        d="M 15.05 26.15 C 15.017 27.183 15.017 28.233 15.05 29.3 C 18.217 26.733 19.8 22.667 19.8 17.1 C 19.767 16.767 19.75 16.4 19.75 16 C 18.483 16 17.5 16.367 16.8 17.1 C 16.2 17.733 15.833 18.617 15.7 19.75 C 15.367 21.883 15.15 24.017 15.05 26.15 M 44.25 16 C 44.283 16.4 44.317 16.767 44.35 17.1 C 44.783 22.433 46.333 26.5 49 29.3 C 49.033 28.033 49.017 26.767 48.95 25.5 C 48.817 23.567 48.633 21.617 48.4 19.65 C 48.233 18.583 47.867 17.733 47.3 17.1 C 46.6 16.367 45.583 16 44.25 16 Z"></path>
    <path fill="#FFE0B1" stroke="none"
        d="M 44.35 17.1 C 44.317 16.767 44.283 16.4 44.25 16 L 19.75 16 C 19.75 16.4 19.767 16.767 19.8 17.1 C 19.8 22.667 18.217 26.733 15.05 29.3 C 15.083 31.733 15.3 34.167 15.7 36.6 C 15.733 36.9 15.783 37.167 15.85 37.4 C 15.95 37.833 16.083 38.2 16.25 38.5 C 16.917 39.7 18.083 40.3 19.75 40.3 L 24.25 40.3 L 39.75 40.3 L 44.25 40.3 C 46.517 40.3 47.883 39.217 48.35 37.05 C 48.383 36.883 48.417 36.733 48.45 36.6 C 48.45 36.467 48.467 36.333 48.5 36.2 C 48.767 34.133 48.933 32.033 49 29.9 C 49 29.7 49 29.5 49 29.3 C 46.333 26.5 44.783 22.433 44.35 17.1 Z"></path>
    <path fill="#694C39" stroke="none"
        d="M 42.4 32.1 C 42.8 31.567 43 30.867 43 30 C 43 29.133 42.8 28.433 42.4 27.9 C 42.067 27.3 41.6 27 41 27 C 40.467 27 40 27.3 39.6 27.9 C 39.2 28.433 39 29.133 39 30 C 39 30.867 39.2 31.567 39.6 32.1 C 40 32.7 40.467 33 41 33 C 41.6 33 42.067 32.7 42.4 32.1 Z"></path>
    <path fill="#694C39" stroke="none"
        d="M 21 30 C 21 30.867 21.2 31.567 21.6 32.1 C 22 32.7 22.467 33 23 33 C 23.567 33 24.033 32.7 24.4 32.1 C 24.8 31.567 25 30.867 25 30 C 25 29.133 24.8 28.433 24.4 27.9 C 24.033 27.3 23.567 27 23 27 C 22.467 27 22 27.3 21.6 27.9 C 21.2 28.433 21 29.133 21 30 Z"></path>
    <path fill="#694C39" stroke="none"
        d="M 25 37.3 C 25 37.8 25.683 38.2 27.05 38.5 C 28.45 38.833 30.1 39 32 39 C 33.933 39 35.6 38.833 37 38.5 C 38.333 38.2 39 37.8 39 37.3 C 39 36.133 38.333 35.133 37 34.3 C 35.6 33.433 33.933 33 32 33 C 30.1 33 28.45 33.433 27.05 34.3 C 25.817 35.133 25.133 36.133 25 37.3 Z"></path>
    <path fill="#28B162" stroke="none"
        d="M 49.95 12.6 C 49.583 9.967 47.817 8.433 44.65 8 C 36.217 6.7 27.8 6.683 19.4 7.95 C 16.167 8.417 14.383 9.967 14.05 12.6 L 14 12.6 L 14 20.2 C 26.167 18.833 38.167 18.833 50 20.2 L 50 12.6 L 49.95 12.6 Z"></path>
    <path fill="#2ECC71" stroke="none"
        d="M 47.35 25 C 49.117 25 50 24.183 50 22.55 L 50 20.2 C 38.167 18.833 26.167 18.833 14 20.2 L 14 22.55 C 13.967 24.183 14.85 25 16.65 25 L 47.35 25 Z"></path>
    <path fill="#D7BD93" stroke="none"
        d="M 29 33.9 C 29 34.2 29.3 34.467 29.9 34.7 C 30.5 34.9 31.217 35 32.05 35 C 32.85 35 33.55 34.9 34.15 34.7 C 34.717 34.467 35 34.2 35 33.9 C 35 33.133 34.717 32.467 34.15 31.9 C 33.55 31.3 32.85 31 32.05 31 C 31.217 31 30.5 31.3 29.9 31.9 C 29.367 32.467 29.067 33.133 29 33.9 Z"></path>
    <path fill="#FFE0B1" stroke="none"
        d="M 20.8 43.15 C 20.6 43.05 20.417 42.967 20.25 42.9 C 19.083 42.333 17.9 42.217 16.7 42.55 C 15.133 42.983 13.967 43.85 13.2 45.15 C 12.867 45.717 12.667 46.267 12.6 46.8 C 12.467 47.6 12.517 48.45 12.75 49.35 C 13.083 50.583 13.767 51.567 14.8 52.3 C 14.967 52.4 15.15 52.5 15.35 52.6 C 15.417 52.667 15.483 52.717 15.55 52.75 C 16.317 53.15 17.2 53.05 18.2 52.45 C 19.3 51.85 20.217 50.883 20.95 49.55 C 21.717 48.283 22.1 47 22.1 45.7 C 22.067 44.533 21.7 43.733 21 43.3 C 20.967 43.267 20.933 43.25 20.9 43.25 C 20.867 43.217 20.833 43.183 20.8 43.15 Z"></path>
    <path fill="#2ECC71" stroke="none"
        d="M 16.45 39 C 15.383 39.2 14.483 39.683 13.75 40.45 C 12.583 41.583 12 42.9 12 44.4 C 12 45.267 12.2 46.067 12.6 46.8 C 12.667 46.267 12.867 45.717 13.2 45.15 C 13.967 43.85 15.133 42.983 16.7 42.55 C 17.9 42.217 19.083 42.333 20.25 42.9 C 20.417 42.967 20.6 43.05 20.8 43.15 C 18.1 41.283 16.65 39.9 16.45 39 Z"></path>
    <path fill="#FFE0B1" stroke="none"
        d="M 51.4 46.8 C 51.3 46.267 51.1 45.717 50.8 45.15 C 50.033 43.85 48.867 42.983 47.3 42.55 C 46.1 42.217 44.917 42.333 43.75 42.9 C 43.583 42.967 43.4 43.05 43.2 43.15 C 43.167 43.183 43.133 43.217 43.1 43.25 C 43.067 43.25 43.033 43.267 43 43.3 C 42.3 43.733 41.933 44.533 41.9 45.7 C 41.9 47 42.283 48.283 43.05 49.55 C 43.783 50.883 44.7 51.85 45.8 52.45 C 46.8 53.05 47.683 53.15 48.45 52.75 C 48.517 52.717 48.583 52.667 48.65 52.6 C 48.85 52.5 49.033 52.4 49.2 52.3 C 50.233 51.567 50.917 50.583 51.25 49.35 C 51.483 48.45 51.533 47.6 51.4 46.8 Z"></path>
    <path fill="#2ECC71" stroke="none"
        d="M 50.25 40.45 C 49.517 39.683 48.617 39.2 47.55 39 C 47.35 39.9 45.9 41.283 43.2 43.15 C 43.4 43.05 43.583 42.967 43.75 42.9 C 44.917 42.333 46.1 42.217 47.3 42.55 C 48.867 42.983 50.033 43.85 50.8 45.15 C 51.1 45.717 51.3 46.267 51.4 46.8 C 51.8 46.067 52 45.267 52 44.4 C 52 42.9 51.417 41.583 50.25 40.45 Z"></path>
    <path fill="#FFFFFF" stroke="none"
        d="M 31.95 13 C 29.75 13 27.85 13.633 26.25 14.9 C 24.883 16.067 24.133 17.433 24 19 L 40 19 C 39.833 17.433 39.033 16.067 37.6 14.9 C 36.067 13.633 34.183 13 31.95 13 Z"></path>
</svg>