<svg xmlns="http://www.w3.org/2000/svg" viewBox="0 0 64 64">
    <rect width="64" height="64" fill="#758C8E"></rect>
    <path fill="#849EA1" stroke="none"
        d="M 60.7 50.2 C 60.3 50.5 59.617 51.117 58.65 52.05 C 57.75 53.017 57.15 53.683 56.85 54.05 C 56.35 54.75 56.117 55.35 56.15 55.85 C 56.117 56.383 56.35 56.983 56.85 57.65 C 57.15 58.05 57.75 58.733 58.65 59.7 C 59.617 60.633 60.3 61.233 60.7 61.5 C 61.367 62 61.967 62.233 62.5 62.2 C 62.933 62.233 63.433 62.067 64 61.7 L 64 50 C 63.433 49.667 62.933 49.5 62.5 49.5 C 61.967 49.5 61.367 49.733 60.7 50.2 M 64 3.55 C 63.967 3.55 63.95 3.567 63.95 3.6 C 63.817 3.7 63.717 3.817 63.65 3.95 C 63.617 3.983 63.583 4.017 63.55 4.05 C 62.783 4.95 62.383 5.767 62.35 6.5 C 62.25 7.267 62.533 8.15 63.2 9.15 C 63.367 9.45 63.617 9.817 63.95 10.25 L 64 10.3 L 64 3.55 M 5.5 62.85 C 5.133 63.083 4.633 63.467 4 64 L 11.4 64 C 11.1 63.667 10.85 63.417 10.65 63.25 C 9.717 62.45 8.883 62.05 8.15 62.05 C 7.383 61.95 6.5 62.217 5.5 62.85 M 4.15 54.05 C 3.883 53.683 3.283 53.017 2.35 52.05 C 1.35 51.117 0.667 50.5 0.3 50.2 C 0.2 50.133 0.1 50.067 0 50 L 0 61.75 C 0.1 61.683 0.2 61.6 0.3 61.5 C 0.667 61.233 1.35 60.633 2.35 59.7 C 3.283 58.7 3.883 58.017 4.15 57.65 C 4.65 56.983 4.883 56.383 4.85 55.85 C 4.883 55.35 4.65 54.75 4.15 54.05 M 44.2 40.7 C 43.767 41.167 43.383 41.583 43.05 41.95 C 42.383 42.683 41.9 43.25 41.6 43.65 C 40.867 44.617 40.517 45.467 40.55 46.2 C 40.517 46.967 40.867 47.833 41.6 48.8 C 42.033 49.4 42.9 50.383 44.2 51.75 C 45.567 53.05 46.55 53.933 47.15 54.4 C 48.117 55.1 48.967 55.433 49.7 55.4 C 50.467 55.433 51.333 55.1 52.3 54.4 C 52.867 53.967 53.85 53.083 55.25 51.75 C 56.583 50.383 57.467 49.4 57.9 48.8 C 58.6 47.833 58.933 46.967 58.9 46.2 C 58.933 45.467 58.6 44.617 57.9 43.65 C 57.6 43.25 57.117 42.683 56.45 41.95 C 56.083 41.583 55.683 41.167 55.25 40.7 C 53.85 39.367 52.867 38.483 52.3 38.05 C 51.333 37.35 50.467 37.017 49.7 37.05 C 48.967 37.017 48.117 37.35 47.15 38.05 C 46.55 38.517 45.567 39.4 44.2 40.7 M 44.9 9.45 C 43.933 8.517 43.25 7.917 42.85 7.65 C 42.183 7.15 41.583 6.9 41.05 6.9 C 40.55 6.9 39.967 7.15 39.3 7.65 C 38.9 7.917 38.217 8.517 37.25 9.45 C 36.317 10.417 35.7 11.1 35.4 11.5 C 34.933 12.167 34.7 12.75 34.7 13.25 C 34.7 13.783 34.933 14.383 35.4 15.05 C 35.7 15.45 36.317 16.133 37.25 17.1 C 38.217 18.033 38.9 18.65 39.3 18.95 C 39.967 19.417 40.55 19.65 41.05 19.65 C 41.583 19.65 42.183 19.417 42.85 18.95 C 43.25 18.65 43.933 18.033 44.9 17.1 C 45.833 16.133 46.433 15.45 46.7 15.05 C 47.2 14.383 47.433 13.783 47.4 13.25 C 47.433 12.75 47.2 12.167 46.7 11.5 C 46.433 11.133 45.833 10.45 44.9 9.45 M 4 0 C 3.533 0.333 2.983 0.75 2.35 1.25 C 1.283 2.217 0.5 2.983 0 3.55 L 0 10.3 C 0.4 10.833 0.917 11.5 1.55 12.3 C 2.85 13.733 3.767 14.683 4.3 15.15 C 5.2 15.917 6.033 16.317 6.8 16.35 C 7.533 16.417 8.417 16.133 9.45 15.5 C 10.083 15.1 11.117 14.3 12.55 13.1 C 13.983 11.833 14.933 10.917 15.4 10.35 C 16.167 9.45 16.567 8.617 16.6 7.85 C 16.7 7.117 16.433 6.233 15.8 5.2 C 15.6 4.9 15.317 4.483 14.95 3.95 C 14.517 3.417 14 2.783 13.4 2.05 C 12.6 1.183 11.933 0.5 11.4 0 L 4 0 Z"></path>
    <path fill="#7D9598" stroke="none"
        d="M 47.1 62.45 C 46.533 63.017 46.05 63.533 45.65 64 L 59.6 64 C 59.167 63.533 58.683 63.017 58.15 62.45 C 56.75 61.117 55.767 60.25 55.2 59.85 C 54.233 59.15 53.367 58.8 52.6 58.8 C 51.867 58.8 51.017 59.15 50.05 59.85 C 49.45 60.283 48.467 61.15 47.1 62.45 M 32.25 52.55 C 30.883 51.55 29.667 51.067 28.6 51.1 C 27.567 51.067 26.367 51.55 25 52.55 C 24.2 53.15 22.817 54.383 20.85 56.25 C 18.983 58.217 17.75 59.617 17.15 60.45 C 16.15 61.783 15.667 62.967 15.7 64 L 41.55 64 C 41.583 62.967 41.1 61.783 40.1 60.45 C 39.5 59.617 38.267 58.217 36.4 56.25 C 34.433 54.383 33.05 53.15 32.25 52.55 M 39.9 3.95 C 39.967 3.85 40.033 3.75 40.1 3.65 C 41.1 2.283 41.583 1.067 41.55 0 L 15.7 0 C 15.667 1.067 16.15 2.283 17.15 3.65 C 17.217 3.75 17.3 3.85 17.4 3.95 C 18.033 4.783 19.183 6.067 20.85 7.8 C 22.817 9.667 24.2 10.9 25 11.5 C 26.367 12.5 27.567 12.983 28.6 12.95 C 29.667 12.983 30.883 12.5 32.25 11.5 C 33.05 10.9 34.433 9.667 36.4 7.8 C 38.067 6.067 39.233 4.783 39.9 3.95 M 64 13.55 L 63.95 13.55 C 62.583 12.517 61.35 12.017 60.25 12.05 C 59.15 12.017 57.9 12.517 56.5 13.55 C 55.633 14.183 54.183 15.467 52.15 17.4 C 50.217 19.433 48.933 20.883 48.3 21.75 C 47.267 23.183 46.767 24.45 46.8 25.55 C 46.767 26.65 47.267 27.9 48.3 29.3 C 48.933 30.167 50.217 31.617 52.15 33.65 C 54.183 35.583 55.633 36.867 56.5 37.5 C 57.9 38.533 59.15 39.033 60.25 39 C 61.35 39.033 62.6 38.55 64 37.55 L 64 13.55 M 61.8 3.95 C 61.8 3.183 61.45 2.333 60.75 1.4 C 60.517 1.067 60.117 0.6 59.55 0 L 45.7 0 C 45.133 0.6 44.717 1.067 44.45 1.4 C 43.75 2.333 43.417 3.183 43.45 3.95 L 43.45 4 C 43.417 4.733 43.75 5.583 44.45 6.55 C 44.883 7.15 45.767 8.133 47.1 9.5 C 48.467 10.833 49.45 11.717 50.05 12.15 C 51.017 12.85 51.867 13.183 52.6 13.15 C 53.367 13.183 54.233 12.85 55.2 12.15 C 55.767 11.717 56.75 10.833 58.15 9.5 C 59.45 8.133 60.317 7.15 60.75 6.55 C 61.45 5.583 61.8 4.733 61.8 4 L 61.8 3.95 M 4.35 17.4 C 2.283 15.433 0.85 14.15 0.05 13.55 L 0 13.55 L 0 37.55 L 0.05 37.5 C 0.85 36.9 2.283 35.617 4.35 33.65 C 6.283 31.617 7.567 30.167 8.2 29.3 C 9.233 27.9 9.733 26.65 9.7 25.55 C 9.733 24.45 9.233 23.183 8.2 21.75 C 7.567 20.883 6.283 19.433 4.35 17.4 M 24.45 23.05 C 22.383 24.95 21.017 26.317 20.35 27.15 C 19.217 28.517 18.633 29.75 18.6 30.85 C 18.5 31.917 18.933 33.2 19.9 34.7 C 20.467 35.567 21.667 37.083 23.5 39.25 C 24.5 40.35 25.367 41.25 26.1 41.95 C 26.7 42.583 27.2 43.05 27.6 43.35 C 28.967 44.45 30.183 45.017 31.25 45.05 C 32.35 45.15 33.65 44.733 35.15 43.8 C 35.683 43.433 36.5 42.817 37.6 41.95 C 38.2 41.45 38.9 40.867 39.7 40.2 C 41.733 38.3 43.1 36.933 43.8 36.1 C 44.933 34.733 45.517 33.5 45.55 32.4 C 45.65 31.3 45.217 30.017 44.25 28.55 C 43.683 27.683 42.483 26.167 40.65 24 C 38.75 21.933 37.383 20.567 36.55 19.9 C 35.183 18.767 33.95 18.183 32.85 18.15 C 31.75 18.05 30.467 18.483 29 19.45 C 28.1 20.017 26.583 21.217 24.45 23.05 M 19 14.7 C 18.4 14.1 17.85 13.767 17.35 13.7 C 16.85 13.633 16.233 13.783 15.5 14.15 C 15.067 14.383 14.3 14.883 13.2 15.65 C 12.167 16.483 11.467 17.083 11.1 17.45 C 10.533 18.05 10.217 18.6 10.15 19.1 C 10.05 19.6 10.2 20.217 10.6 20.95 C 10.833 21.383 11.333 22.15 12.1 23.25 C 12.9 24.317 13.483 25.017 13.85 25.35 C 14.45 25.95 15 26.267 15.5 26.3 C 16.033 26.4 16.65 26.25 17.35 25.85 C 17.817 25.617 18.583 25.117 19.65 24.35 C 20.717 23.517 21.417 22.933 21.75 22.6 C 22.35 22 22.667 21.45 22.7 20.95 C 22.8 20.417 22.667 19.8 22.3 19.1 C 22.067 18.667 21.567 17.9 20.8 16.8 C 19.967 15.733 19.367 15.033 19 14.7 M 5.25 41.95 L 5.2 42 C 4.6 43.033 4.35 43.917 4.45 44.65 C 4.483 45.383 4.917 46.2 5.75 47.1 C 6.217 47.633 7.183 48.517 8.65 49.75 C 10.183 50.917 11.267 51.667 11.9 52 C 12.933 52.6 13.817 52.85 14.55 52.75 C 15.317 52.683 16.133 52.25 17 51.45 C 17.533 50.95 18.417 49.967 19.65 48.5 C 20.817 47 21.583 45.933 21.95 45.3 C 22.55 44.267 22.783 43.367 22.65 42.6 C 22.65 42.4 22.617 42.183 22.55 41.95 C 22.35 41.383 21.95 40.783 21.35 40.15 C 20.85 39.617 19.883 38.75 18.45 37.55 C 16.917 36.383 15.833 35.617 15.2 35.25 C 14.167 34.65 13.283 34.4 12.55 34.5 C 11.783 34.567 10.967 35 10.1 35.8 C 9.567 36.3 8.683 37.283 7.45 38.75 C 6.317 40.25 5.583 41.317 5.25 41.95 Z"></path>
    <path fill="#694C39" stroke="none"
        d="M 40.25 5.4 C 35.317 4.933 30.45 4.883 25.65 5.25 C 25.617 5.25 25.583 5.267 25.55 5.3 C 12.95 6.933 7.117 12.267 8.05 21.3 C 8.05 21.333 8.05 21.383 8.05 21.45 L 8.2 23.6 C 8.267 24.6 8.55 25.433 9.05 26.1 C 9.017 27.1 9.017 28.15 9.05 29.25 C 9.083 31.717 9.3 34.167 9.7 36.6 C 9.7 36.667 9.717 36.733 9.75 36.8 L 9.75 36.85 C 9.783 37.183 9.833 37.483 9.9 37.75 C 9.9 37.783 9.917 37.817 9.95 37.85 L 9.95 37.95 C 10.083 38.483 10.267 38.967 10.5 39.4 C 10.7 39.767 10.95 40.1 11.25 40.4 C 10.417 42.6 10.117 45.283 10.35 48.45 C 10.383 48.917 10.45 49.383 10.55 49.85 C 10.617 50.283 10.7 50.667 10.8 51 C 10.967 51.5 11.167 51.95 11.4 52.35 C 12.367 54.083 14.1 54.95 16.6 54.95 L 19.75 54.95 C 19.85 56.05 20.733 57.033 22.4 57.9 C 22.533 57.967 22.717 58.033 22.95 58.1 C 23.25 58.233 23.583 58.367 23.95 58.5 C 23.983 58.5 24.033 58.517 24.1 58.55 C 25.233 58.85 26.5 59 27.9 59 C 29.333 59 30.6 58.85 31.7 58.55 C 31.733 58.517 31.783 58.5 31.85 58.5 C 32.217 58.367 32.583 58.233 32.95 58.1 C 33.05 58.033 33.167 57.983 33.3 57.95 C 34 57.517 34.55 57.117 34.95 56.75 C 35.017 56.683 35.067 56.633 35.1 56.6 C 35.567 56.033 35.867 55.483 36 54.95 L 41.1 54.95 C 44.467 54.95 46.483 53.45 47.15 50.45 C 47.183 50.317 47.217 50.2 47.25 50.1 C 47.283 49.967 47.3 49.85 47.3 49.75 C 47.333 49.65 47.35 49.567 47.35 49.5 C 47.383 49.233 47.417 48.967 47.45 48.7 C 47.483 48.567 47.5 48.433 47.5 48.3 C 47.567 47.1 47.567 45.983 47.5 44.95 C 47.367 42.95 46.983 41.217 46.35 39.75 C 47.217 39.05 47.617 38.2 47.55 37.2 C 47.55 37 47.55 36.8 47.55 36.6 C 47.65 36.567 47.75 36.533 47.85 36.5 C 47.883 36.5 47.933 36.483 48 36.45 C 49.633 35.783 50.333 34.9 50.1 33.8 C 50.1 32.5 49.633 31.367 48.7 30.4 L 48.65 30.35 C 48.15 29.883 47.633 29.533 47.1 29.3 C 47.1 29.267 47.1 29.233 47.1 29.2 L 47.1 29.15 C 47.133 28.05 47.133 26.95 47.1 25.85 L 51.1 25.6 C 52.7 25.533 53.867 25.133 54.6 24.4 C 55.633 23.6 56.1 22.433 56 20.9 C 55.967 20.567 55.883 20.267 55.75 20 C 55.55 19.7 55.317 19.467 55.05 19.3 C 52.683 17.8 50.3 16.917 47.9 16.65 L 47.65 11.6 C 47.65 11.3 47.583 11.05 47.45 10.85 C 46.683 7.517 44.283 5.7 40.25 5.4 Z"></path>
    <path fill="#2ECC71" stroke="none"
        d="M 45.5 45.05 C 45.267 41.65 44.2 39.1 42.3 37.4 L 30.45 37.4 C 32.583 42.5 37.6 45.05 45.5 45.05 Z"></path>
    <path fill="#E74C3C" stroke="none"
        d="M 15.45 37.4 C 13.017 39.767 11.983 43.4 12.35 48.3 C 12.383 48.733 12.45 49.167 12.55 49.6 C 12.583 49.9 12.633 50.15 12.7 50.35 C 12.8 50.717 12.933 51.033 13.1 51.3 C 13.767 52.4 14.933 52.95 16.6 52.95 L 41.1 52.95 C 43.367 52.95 44.733 51.967 45.2 50 C 45.233 49.867 45.267 49.733 45.3 49.6 C 45.3 49.5 45.317 49.383 45.35 49.25 C 45.383 48.95 45.433 48.633 45.5 48.3 L 45.5 48.25 C 45.567 47.117 45.567 46.05 45.5 45.05 C 37.6 45.05 32.583 42.5 30.45 37.4 L 15.45 37.4 Z"></path>
    <path fill="#333333" stroke="none"
        d="M 27.9 48.95 C 26.2 48.95 24.75 49.45 23.55 50.45 C 22.317 51.417 21.7 52.6 21.7 54 C 21.7 54.1 21.717 54.167 21.75 54.2 C 21.75 54.3 21.75 54.383 21.75 54.45 C 21.817 55.05 22.333 55.6 23.3 56.1 C 23.367 56.133 23.45 56.167 23.55 56.2 C 23.883 56.333 24.233 56.467 24.6 56.6 C 25.6 56.867 26.7 57 27.9 57 C 29.133 57 30.217 56.867 31.15 56.6 C 31.517 56.467 31.883 56.333 32.25 56.2 C 32.817 55.867 33.267 55.55 33.6 55.25 C 33.833 54.983 33.983 54.717 34.05 54.45 C 34.05 54.383 34.05 54.3 34.05 54.2 C 34.05 54.167 34.05 54.1 34.05 54 C 34.05 52.6 33.45 51.417 32.25 50.45 C 31.05 49.45 29.6 48.95 27.9 48.95 Z"></path>
    <path fill="#2ECC71" stroke="none"
        d="M 23.9 38.45 C 23.233 38.383 22.667 38.417 22.2 38.55 C 21.4 38.75 20.633 39.15 19.9 39.75 C 19.7 39.917 19.517 40.1 19.35 40.3 C 18.383 41.6 18 43.25 18.2 45.25 C 18.633 47.517 19.183 48.533 19.85 48.3 C 20.583 48 21.683 47.817 23.15 47.75 C 24.583 47.683 25.833 47.75 26.9 47.95 C 27.967 48.15 28.55 47.75 28.65 46.75 C 28.65 46.517 28.667 46.3 28.7 46.1 C 28.767 43.467 28.317 41.483 27.35 40.15 C 26.383 39.15 25.233 38.583 23.9 38.45 Z"></path>
    <path fill="#FFE0B1" stroke="none"
        d="M 20.95 43.2 C 20.35 43.567 19.9 43.95 19.6 44.35 C 19.067 44.983 18.667 45.75 18.4 46.65 C 18.067 47.883 18.183 49.083 18.75 50.25 C 18.85 50.383 18.95 50.55 19.05 50.75 C 19.083 50.85 19.133 50.917 19.2 50.95 C 19.667 51.717 20.483 52.083 21.65 52.05 C 22.883 52.083 24.15 51.7 25.45 50.9 C 26.75 50.2 27.717 49.283 28.35 48.15 C 28.917 47.117 29 46.25 28.6 45.55 C 28.6 45.483 28.583 45.45 28.55 45.45 C 28.517 45.383 28.517 45.333 28.55 45.3 C 28.383 45.133 28.25 44.967 28.15 44.8 C 27.45 43.7 26.5 43 25.3 42.7 C 23.7 42.267 22.25 42.433 20.95 43.2 Z"></path>
    <path fill="#694C39" stroke="none"
        d="M 26.4 15.8 L 15.75 15.8 C 14.483 15.8 13.5 16.167 12.8 16.9 C 12.2 17.533 11.833 18.433 11.7 19.6 C 11.367 21.733 11.15 23.867 11.05 26 C 11.017 27.033 11.017 28.083 11.05 29.15 C 11.083 31.617 11.3 34.067 11.7 36.5 C 11.7 36.533 11.7 36.567 11.7 36.6 C 22.633 35.2 27.533 28.267 26.4 15.8 Z"></path>
    <path fill="#FFE0B1" stroke="none"
        d="M 45.05 25.35 C 44.917 23.417 44.733 21.467 44.5 19.5 C 44.333 18.4 43.967 17.533 43.4 16.9 C 42.7 16.167 41.667 15.8 40.3 15.8 L 26.4 15.8 C 27.533 28.267 22.633 35.2 11.7 36.6 C 11.733 36.867 11.783 37.1 11.85 37.3 C 11.95 37.733 12.083 38.1 12.25 38.4 C 12.917 39.6 14.083 40.2 15.75 40.2 L 40.3 40.2 C 42.6 40.2 43.983 39.117 44.45 36.95 C 44.483 36.783 44.517 36.633 44.55 36.5 C 44.55 36.367 44.567 36.233 44.6 36.1 C 44.867 34.033 45.033 31.917 45.1 29.75 C 45.1 29.55 45.1 29.35 45.1 29.15 C 45.133 27.883 45.117 26.617 45.05 25.35 Z"></path>
    <path fill="#694C39" stroke="none"
        d="M 32.65 32 C 33.05 32.6 33.517 32.9 34.05 32.9 C 34.617 32.9 35.083 32.6 35.45 32 C 35.85 31.467 36.05 30.75 36.05 29.85 C 36.05 28.983 35.85 28.283 35.45 27.75 C 35.083 27.15 34.617 26.85 34.05 26.85 C 33.517 26.85 33.05 27.15 32.65 27.75 C 32.25 28.283 32.05 28.983 32.05 29.85 C 32.05 30.75 32.25 31.467 32.65 32 Z"></path>
    <path fill="#FFE0B1" stroke="none"
        d="M 42.05 33.8 C 42.05 34.1 42.35 34.367 42.95 34.6 C 43.55 34.8 44.267 34.9 45.1 34.9 C 45.9 34.9 46.617 34.8 47.25 34.6 C 47.817 34.367 48.1 34.1 48.1 33.8 C 48.1 33.033 47.817 32.367 47.25 31.8 C 46.617 31.2 45.9 30.9 45.1 30.9 C 44.267 30.9 43.55 31.2 42.95 31.8 C 42.417 32.367 42.117 33.033 42.05 33.8 Z"></path>
    <path fill="#694C39" stroke="none"
        d="M 42.05 38.9 C 42.25 38.9 42.45 38.9 42.65 38.9 C 43.417 38.867 44.083 38.7 44.65 38.4 C 45.25 38.1 45.55 37.7 45.55 37.2 C 45.55 36.033 45.25 35.033 44.65 34.2 C 44.083 33.433 43.417 33.017 42.65 32.95 C 42.45 32.917 42.25 32.9 42.05 32.9 C 40.15 32.9 38.5 33.333 37.1 34.2 C 35.867 35.033 35.183 36.033 35.05 37.2 C 35.05 37.7 35.733 38.1 37.1 38.4 C 38.5 38.733 40.15 38.9 42.05 38.9 Z"></path>
    <path fill="#2ECC71" stroke="none"
        d="M 46 18.5 C 43.267 18.533 40.633 18.633 38.1 18.8 C 27.5 19.5 18.2 21.05 10.2 23.45 C 10.267 25.083 11.4 25.833 13.6 25.7 L 50.95 23.6 C 53.083 23.5 54.1 22.633 54 21 C 51.333 19.333 48.667 18.5 46 18.5 Z"></path>
    <path fill="#FFFFFF" stroke="none"
        d="M 45.7 12.5 C 43.5 12.6 41.65 13.333 40.15 14.7 C 38.883 15.867 38.2 17.233 38.1 18.8 C 40.633 18.633 43.267 18.533 46 18.5 L 45.7 12.5 Z"></path>
    <path fill="#28B162" stroke="none"
        d="M 45.6 11.7 C 45.067 9.067 43.233 7.633 40.1 7.4 C 35.267 6.933 30.5 6.883 25.8 7.25 C 14.667 8.717 9.417 13.333 10.05 21.1 C 10.05 21.167 10.05 21.233 10.05 21.3 L 10.2 23.45 C 18.2 21.05 27.5 19.5 38.1 18.8 C 38.2 17.233 38.883 15.867 40.15 14.7 C 41.65 13.333 43.5 12.6 45.7 12.5 L 45.65 11.7 L 45.6 11.7 Z"></path>
    <path fill="#FFE0B1" stroke="none"
        d="M 21.5 27.85 C 20.3 27.85 19.267 28.217 18.4 28.95 C 17.533 29.75 17.1 30.7 17.1 31.8 L 17.1 31.95 C 17.1 33.05 17.533 33.95 18.4 34.65 C 19.267 35.483 20.3 35.9 21.5 35.9 C 22.733 35.9 23.8 35.483 24.7 34.65 C 25.567 33.917 26 33.017 26 31.95 C 26 30.75 25.567 29.75 24.7 28.95 C 23.8 28.217 22.733 27.85 21.5 27.85 Z"></path>
</svg>