<svg xmlns="http://www.w3.org/2000/svg" viewBox="0 0 64 64">
    <rect width="64" height="64" fill="#758C8E"></rect>
    <path fill="#849EA1" stroke="none"
        d="M 60.7 50.2 C 60.3 50.5 59.617 51.117 58.65 52.05 C 57.75 53.017 57.15 53.683 56.85 54.05 C 56.35 54.75 56.117 55.35 56.15 55.85 C 56.117 56.383 56.35 56.983 56.85 57.65 C 57.15 58.05 57.75 58.733 58.65 59.7 C 59.617 60.633 60.3 61.233 60.7 61.5 C 61.367 62 61.967 62.233 62.5 62.2 C 62.933 62.233 63.433 62.067 64 61.7 L 64 50 C 63.433 49.667 62.933 49.5 62.5 49.5 C 61.967 49.5 61.367 49.733 60.7 50.2 M 64 3.55 C 63.967 3.55 63.95 3.567 63.95 3.6 C 63.817 3.7 63.717 3.817 63.65 3.95 C 63.617 3.983 63.583 4.017 63.55 4.05 C 62.783 4.95 62.383 5.767 62.35 6.5 C 62.25 7.267 62.533 8.15 63.2 9.15 C 63.367 9.45 63.617 9.817 63.95 10.25 L 64 10.3 L 64 3.55 M 5.5 62.85 C 5.133 63.083 4.633 63.467 4 64 L 11.4 64 C 11.1 63.667 10.85 63.417 10.65 63.25 C 9.717 62.45 8.883 62.05 8.15 62.05 C 7.383 61.95 6.5 62.217 5.5 62.85 M 4.15 54.05 C 3.883 53.683 3.283 53.017 2.35 52.05 C 1.35 51.117 0.667 50.5 0.3 50.2 C 0.2 50.133 0.1 50.067 0 50 L 0 61.75 C 0.1 61.683 0.2 61.6 0.3 61.5 C 0.667 61.233 1.35 60.633 2.35 59.7 C 3.283 58.7 3.883 58.017 4.15 57.65 C 4.65 56.983 4.883 56.383 4.85 55.85 C 4.883 55.35 4.65 54.75 4.15 54.05 M 44.2 40.7 C 43.767 41.167 43.383 41.583 43.05 41.95 C 42.383 42.683 41.9 43.25 41.6 43.65 C 40.867 44.617 40.517 45.467 40.55 46.2 C 40.517 46.967 40.867 47.833 41.6 48.8 C 42.033 49.4 42.9 50.383 44.2 51.75 C 45.567 53.05 46.55 53.933 47.15 54.4 C 48.117 55.1 48.967 55.433 49.7 55.4 C 50.467 55.433 51.333 55.1 52.3 54.4 C 52.867 53.967 53.85 53.083 55.25 51.75 C 56.583 50.383 57.467 49.4 57.9 48.8 C 58.6 47.833 58.933 46.967 58.9 46.2 C 58.933 45.467 58.6 44.617 57.9 43.65 C 57.6 43.25 57.117 42.683 56.45 41.95 C 56.083 41.583 55.683 41.167 55.25 40.7 C 53.85 39.367 52.867 38.483 52.3 38.05 C 51.333 37.35 50.467 37.017 49.7 37.05 C 48.967 37.017 48.117 37.35 47.15 38.05 C 46.55 38.517 45.567 39.4 44.2 40.7 M 44.9 9.45 C 43.933 8.517 43.25 7.917 42.85 7.65 C 42.183 7.15 41.583 6.9 41.05 6.9 C 40.55 6.9 39.967 7.15 39.3 7.65 C 38.9 7.917 38.217 8.517 37.25 9.45 C 36.317 10.417 35.7 11.1 35.4 11.5 C 34.933 12.167 34.7 12.75 34.7 13.25 C 34.7 13.783 34.933 14.383 35.4 15.05 C 35.7 15.45 36.317 16.133 37.25 17.1 C 38.217 18.033 38.9 18.65 39.3 18.95 C 39.967 19.417 40.55 19.65 41.05 19.65 C 41.583 19.65 42.183 19.417 42.85 18.95 C 43.25 18.65 43.933 18.033 44.9 17.1 C 45.833 16.133 46.433 15.45 46.7 15.05 C 47.2 14.383 47.433 13.783 47.4 13.25 C 47.433 12.75 47.2 12.167 46.7 11.5 C 46.433 11.133 45.833 10.45 44.9 9.45 M 4 0 C 3.533 0.333 2.983 0.75 2.35 1.25 C 1.283 2.217 0.5 2.983 0 3.55 L 0 10.3 C 0.4 10.833 0.917 11.5 1.55 12.3 C 2.85 13.733 3.767 14.683 4.3 15.15 C 5.2 15.917 6.033 16.317 6.8 16.35 C 7.533 16.417 8.417 16.133 9.45 15.5 C 10.083 15.1 11.117 14.3 12.55 13.1 C 13.983 11.833 14.933 10.917 15.4 10.35 C 16.167 9.45 16.567 8.617 16.6 7.85 C 16.7 7.117 16.433 6.233 15.8 5.2 C 15.6 4.9 15.317 4.483 14.95 3.95 C 14.517 3.417 14 2.783 13.4 2.05 C 12.6 1.183 11.933 0.5 11.4 0 L 4 0 Z"></path>
    <path fill="#7D9598" stroke="none"
        d="M 47.1 62.45 C 46.533 63.017 46.05 63.533 45.65 64 L 59.6 64 C 59.167 63.533 58.683 63.017 58.15 62.45 C 56.75 61.117 55.767 60.25 55.2 59.85 C 54.233 59.15 53.367 58.8 52.6 58.8 C 51.867 58.8 51.017 59.15 50.05 59.85 C 49.45 60.283 48.467 61.15 47.1 62.45 M 32.25 52.55 C 30.883 51.55 29.667 51.067 28.6 51.1 C 27.567 51.067 26.367 51.55 25 52.55 C 24.2 53.15 22.817 54.383 20.85 56.25 C 18.983 58.217 17.75 59.617 17.15 60.45 C 16.15 61.783 15.667 62.967 15.7 64 L 41.55 64 C 41.583 62.967 41.1 61.783 40.1 60.45 C 39.5 59.617 38.267 58.217 36.4 56.25 C 34.433 54.383 33.05 53.15 32.25 52.55 M 39.9 3.95 C 39.967 3.85 40.033 3.75 40.1 3.65 C 41.1 2.283 41.583 1.067 41.55 0 L 15.7 0 C 15.667 1.067 16.15 2.283 17.15 3.65 C 17.217 3.75 17.3 3.85 17.4 3.95 C 18.033 4.783 19.183 6.067 20.85 7.8 C 22.817 9.667 24.2 10.9 25 11.5 C 26.367 12.5 27.567 12.983 28.6 12.95 C 29.667 12.983 30.883 12.5 32.25 11.5 C 33.05 10.9 34.433 9.667 36.4 7.8 C 38.067 6.067 39.233 4.783 39.9 3.95 M 64 13.55 L 63.95 13.55 C 62.583 12.517 61.35 12.017 60.25 12.05 C 59.15 12.017 57.9 12.517 56.5 13.55 C 55.633 14.183 54.183 15.467 52.15 17.4 C 50.217 19.433 48.933 20.883 48.3 21.75 C 47.267 23.183 46.767 24.45 46.8 25.55 C 46.767 26.65 47.267 27.9 48.3 29.3 C 48.933 30.167 50.217 31.617 52.15 33.65 C 54.183 35.583 55.633 36.867 56.5 37.5 C 57.9 38.533 59.15 39.033 60.25 39 C 61.35 39.033 62.6 38.55 64 37.55 L 64 13.55 M 61.8 3.95 C 61.8 3.183 61.45 2.333 60.75 1.4 C 60.517 1.067 60.117 0.6 59.55 0 L 45.7 0 C 45.133 0.6 44.717 1.067 44.45 1.4 C 43.75 2.333 43.417 3.183 43.45 3.95 L 43.45 4 C 43.417 4.733 43.75 5.583 44.45 6.55 C 44.883 7.15 45.767 8.133 47.1 9.5 C 48.467 10.833 49.45 11.717 50.05 12.15 C 51.017 12.85 51.867 13.183 52.6 13.15 C 53.367 13.183 54.233 12.85 55.2 12.15 C 55.767 11.717 56.75 10.833 58.15 9.5 C 59.45 8.133 60.317 7.15 60.75 6.55 C 61.45 5.583 61.8 4.733 61.8 4 L 61.8 3.95 M 4.35 17.4 C 2.283 15.433 0.85 14.15 0.05 13.55 L 0 13.55 L 0 37.55 L 0.05 37.5 C 0.85 36.9 2.283 35.617 4.35 33.65 C 6.283 31.617 7.567 30.167 8.2 29.3 C 9.233 27.9 9.733 26.65 9.7 25.55 C 9.733 24.45 9.233 23.183 8.2 21.75 C 7.567 20.883 6.283 19.433 4.35 17.4 M 24.45 23.05 C 22.383 24.95 21.017 26.317 20.35 27.15 C 19.217 28.517 18.633 29.75 18.6 30.85 C 18.5 31.917 18.933 33.2 19.9 34.7 C 20.467 35.567 21.667 37.083 23.5 39.25 C 24.5 40.35 25.367 41.25 26.1 41.95 C 26.7 42.583 27.2 43.05 27.6 43.35 C 28.967 44.45 30.183 45.017 31.25 45.05 C 32.35 45.15 33.65 44.733 35.15 43.8 C 35.683 43.433 36.5 42.817 37.6 41.95 C 38.2 41.45 38.9 40.867 39.7 40.2 C 41.733 38.3 43.1 36.933 43.8 36.1 C 44.933 34.733 45.517 33.5 45.55 32.4 C 45.65 31.3 45.217 30.017 44.25 28.55 C 43.683 27.683 42.483 26.167 40.65 24 C 38.75 21.933 37.383 20.567 36.55 19.9 C 35.183 18.767 33.95 18.183 32.85 18.15 C 31.75 18.05 30.467 18.483 29 19.45 C 28.1 20.017 26.583 21.217 24.45 23.05 M 19 14.7 C 18.4 14.1 17.85 13.767 17.35 13.7 C 16.85 13.633 16.233 13.783 15.5 14.15 C 15.067 14.383 14.3 14.883 13.2 15.65 C 12.167 16.483 11.467 17.083 11.1 17.45 C 10.533 18.05 10.217 18.6 10.15 19.1 C 10.05 19.6 10.2 20.217 10.6 20.95 C 10.833 21.383 11.333 22.15 12.1 23.25 C 12.9 24.317 13.483 25.017 13.85 25.35 C 14.45 25.95 15 26.267 15.5 26.3 C 16.033 26.4 16.65 26.25 17.35 25.85 C 17.817 25.617 18.583 25.117 19.65 24.35 C 20.717 23.517 21.417 22.933 21.75 22.6 C 22.35 22 22.667 21.45 22.7 20.95 C 22.8 20.417 22.667 19.8 22.3 19.1 C 22.067 18.667 21.567 17.9 20.8 16.8 C 19.967 15.733 19.367 15.033 19 14.7 M 5.25 41.95 L 5.2 42 C 4.6 43.033 4.35 43.917 4.45 44.65 C 4.483 45.383 4.917 46.2 5.75 47.1 C 6.217 47.633 7.183 48.517 8.65 49.75 C 10.183 50.917 11.267 51.667 11.9 52 C 12.933 52.6 13.817 52.85 14.55 52.75 C 15.317 52.683 16.133 52.25 17 51.45 C 17.533 50.95 18.417 49.967 19.65 48.5 C 20.817 47 21.583 45.933 21.95 45.3 C 22.55 44.267 22.783 43.367 22.65 42.6 C 22.65 42.4 22.617 42.183 22.55 41.95 C 22.35 41.383 21.95 40.783 21.35 40.15 C 20.85 39.617 19.883 38.75 18.45 37.55 C 16.917 36.383 15.833 35.617 15.2 35.25 C 14.167 34.65 13.283 34.4 12.55 34.5 C 11.783 34.567 10.967 35 10.1 35.8 C 9.567 36.3 8.683 37.283 7.45 38.75 C 6.317 40.25 5.583 41.317 5.25 41.95 Z"></path>
    <path fill="#694C39" stroke="none"
        d="M 16.35 11.6 L 16.1 16.65 C 13.7 16.917 11.317 17.8 8.95 19.3 C 8.683 19.467 8.467 19.7 8.3 20 C 8.133 20.267 8.033 20.567 8 20.9 C 7.9 22.433 8.367 23.6 9.4 24.4 C 10.133 25.133 11.317 25.533 12.95 25.6 L 16.95 25.85 C 16.883 26.95 16.867 28.05 16.9 29.15 L 16.9 29.2 C 16.9 29.233 16.9 29.267 16.9 29.3 C 16.367 29.533 15.867 29.883 15.4 30.35 L 15.35 30.4 C 14.383 31.367 13.9 32.5 13.9 33.8 C 13.667 34.9 14.367 35.783 16 36.45 C 16.067 36.483 16.117 36.5 16.15 36.5 C 16.25 36.533 16.367 36.567 16.5 36.6 C 16.467 36.8 16.45 37 16.45 37.2 C 16.383 38.2 16.783 39.05 17.65 39.75 C 17.017 41.217 16.633 42.95 16.5 44.95 C 16.433 45.983 16.433 47.1 16.5 48.3 C 16.5 48.433 16.517 48.567 16.55 48.7 C 16.583 48.967 16.617 49.233 16.65 49.5 C 16.65 49.567 16.667 49.65 16.7 49.75 C 16.7 49.85 16.717 49.967 16.75 50.1 C 16.783 50.233 16.817 50.367 16.85 50.5 C 17.517 53.467 19.533 54.95 22.9 54.95 L 28 54.95 C 28.133 55.483 28.433 56.033 28.9 56.6 C 28.933 56.633 28.983 56.683 29.05 56.75 C 29.45 57.117 30.017 57.517 30.75 57.95 C 30.85 57.983 30.967 58.033 31.1 58.1 C 31.467 58.233 31.833 58.367 32.2 58.5 C 32.233 58.5 32.267 58.517 32.3 58.55 C 33.4 58.85 34.667 59 36.1 59 C 37.5 59 38.783 58.85 39.95 58.55 C 39.983 58.517 40.033 58.5 40.1 58.5 C 40.433 58.367 40.767 58.233 41.1 58.1 C 41.3 58.033 41.467 57.967 41.6 57.9 L 41.65 57.9 C 43.283 57.033 44.15 56.05 44.25 54.95 L 47.4 54.95 C 49.9 54.95 51.633 54.083 52.6 52.35 C 52.833 51.95 53.033 51.5 53.2 51 C 53.3 50.667 53.383 50.283 53.45 49.85 C 53.55 49.383 53.617 48.917 53.65 48.45 C 53.883 45.283 53.6 42.6 52.8 40.4 C 53.067 40.1 53.3 39.767 53.5 39.4 C 53.733 38.933 53.933 38.4 54.1 37.8 L 54.1 37.75 C 54.167 37.483 54.233 37.183 54.3 36.85 L 54.3 36.75 C 54.7 34.25 54.917 31.75 54.95 29.25 L 54.95 29.2 C 54.983 28.133 54.983 27.1 54.95 26.1 C 55.45 25.433 55.733 24.6 55.8 23.6 L 55.95 21.45 C 55.95 21.383 55.95 21.333 55.95 21.3 C 56.883 12.267 51.05 6.933 38.45 5.3 C 38.417 5.267 38.383 5.25 38.35 5.25 C 33.55 4.883 28.667 4.933 23.7 5.4 C 19.7 5.7 17.317 7.517 16.55 10.85 C 16.417 11.05 16.35 11.3 16.35 11.6 Z"></path>
    <path fill="#2ECC71" stroke="none"
        d="M 21.7 37.4 C 19.8 39.1 18.733 41.65 18.5 45.05 C 26.4 45.05 31.417 42.5 33.55 37.4 L 21.7 37.4 Z"></path>
    <path fill="#E74C3C" stroke="none"
        d="M 18.8 50 C 19.267 51.967 20.633 52.95 22.9 52.95 L 47.4 52.95 C 49.067 52.95 50.233 52.4 50.9 51.3 C 51.067 51.033 51.2 50.717 51.3 50.35 C 51.367 50.15 51.417 49.9 51.45 49.6 C 51.55 49.167 51.617 48.733 51.65 48.3 C 52.017 43.4 50.983 39.767 48.55 37.4 L 33.55 37.4 C 31.417 42.5 26.4 45.05 18.5 45.05 C 18.433 46.05 18.433 47.117 18.5 48.25 L 18.5 48.3 C 18.567 48.633 18.617 48.95 18.65 49.25 C 18.683 49.383 18.7 49.5 18.7 49.6 C 18.733 49.733 18.767 49.867 18.8 50 Z"></path>
    <path fill="#333333" stroke="none"
        d="M 29.95 54 C 29.95 54.1 29.95 54.167 29.95 54.2 C 29.95 54.3 29.95 54.383 29.95 54.45 C 30.017 54.717 30.167 54.983 30.4 55.25 C 30.733 55.55 31.183 55.867 31.75 56.2 C 32.117 56.333 32.483 56.467 32.85 56.6 C 33.783 56.867 34.867 57 36.1 57 C 37.3 57 38.4 56.867 39.4 56.6 C 39.767 56.467 40.117 56.333 40.45 56.2 C 40.55 56.167 40.633 56.133 40.7 56.1 C 41.667 55.6 42.183 55.05 42.25 54.45 C 42.25 54.383 42.25 54.3 42.25 54.2 C 42.283 54.167 42.3 54.1 42.3 54 C 42.3 52.6 41.683 51.417 40.45 50.45 C 39.25 49.45 37.8 48.95 36.1 48.95 C 34.4 48.95 32.95 49.45 31.75 50.45 C 30.55 51.417 29.95 52.6 29.95 54 Z"></path>
    <path fill="#2ECC71" stroke="none"
        d="M 44.65 40.3 C 44.483 40.1 44.3 39.917 44.1 39.75 C 43.367 39.15 42.6 38.75 41.8 38.55 C 41.333 38.417 40.767 38.383 40.1 38.45 C 38.767 38.583 37.617 39.15 36.65 40.15 C 35.683 41.483 35.233 43.467 35.3 46.1 C 35.333 46.3 35.35 46.517 35.35 46.75 C 35.45 47.75 36.033 48.15 37.1 47.95 C 38.167 47.75 39.417 47.683 40.85 47.75 C 42.317 47.817 43.417 48 44.15 48.3 C 44.817 48.533 45.367 47.517 45.8 45.25 C 46 43.25 45.617 41.6 44.65 40.3 Z"></path>
    <path fill="#FFE0B1" stroke="none"
        d="M 35.85 44.8 C 35.75 44.967 35.617 45.133 35.45 45.3 C 35.483 45.333 35.483 45.383 35.45 45.45 C 35.417 45.45 35.4 45.483 35.4 45.55 C 35 46.25 35.083 47.117 35.65 48.15 C 36.283 49.283 37.25 50.2 38.55 50.9 C 39.85 51.7 41.117 52.083 42.35 52.05 C 43.517 52.083 44.333 51.717 44.8 50.95 C 44.867 50.917 44.917 50.85 44.95 50.75 C 45.05 50.55 45.15 50.383 45.25 50.25 C 45.817 49.083 45.933 47.883 45.6 46.65 C 45.333 45.75 44.933 44.983 44.4 44.35 C 44.1 43.95 43.65 43.567 43.05 43.2 C 41.75 42.433 40.3 42.267 38.7 42.7 C 37.5 43 36.55 43.7 35.85 44.8 Z"></path>
    <path fill="#694C39" stroke="none"
        d="M 52.95 26 C 52.85 23.867 52.633 21.733 52.3 19.6 C 52.167 18.433 51.8 17.533 51.2 16.9 C 50.5 16.167 49.517 15.8 48.25 15.8 L 37.6 15.8 C 36.467 28.267 41.367 35.2 52.3 36.6 C 52.3 36.567 52.3 36.533 52.3 36.5 C 52.7 34.067 52.917 31.617 52.95 29.15 C 52.983 28.083 52.983 27.033 52.95 26 Z"></path>
    <path fill="#FFE0B1" stroke="none"
        d="M 18.95 25.35 C 18.883 26.617 18.867 27.883 18.9 29.15 C 18.9 29.35 18.9 29.55 18.9 29.75 C 18.967 31.917 19.133 34.033 19.4 36.1 C 19.433 36.233 19.45 36.367 19.45 36.5 C 19.483 36.633 19.517 36.783 19.55 36.95 C 20.017 39.117 21.4 40.2 23.7 40.2 L 48.25 40.2 C 49.917 40.2 51.083 39.6 51.75 38.4 C 51.917 38.1 52.05 37.733 52.15 37.3 C 52.217 37.1 52.267 36.867 52.3 36.6 C 41.367 35.2 36.467 28.267 37.6 15.8 L 23.7 15.8 C 22.333 15.8 21.3 16.167 20.6 16.9 C 20.033 17.533 19.667 18.4 19.5 19.5 C 19.267 21.467 19.083 23.417 18.95 25.35 Z"></path>
    <path fill="#694C39" stroke="none"
        d="M 29.95 32.9 C 30.483 32.9 30.95 32.6 31.35 32 C 31.75 31.467 31.95 30.75 31.95 29.85 C 31.95 28.983 31.75 28.283 31.35 27.75 C 30.95 27.15 30.483 26.85 29.95 26.85 C 29.383 26.85 28.917 27.15 28.55 27.75 C 28.15 28.283 27.95 28.983 27.95 29.85 C 27.95 30.75 28.15 31.467 28.55 32 C 28.917 32.6 29.383 32.9 29.95 32.9 Z"></path>
    <path fill="#FFE0B1" stroke="none"
        d="M 21.05 34.6 C 21.65 34.367 21.95 34.1 21.95 33.8 C 21.883 33.033 21.583 32.367 21.05 31.8 C 20.45 31.2 19.733 30.9 18.9 30.9 C 18.1 30.9 17.383 31.2 16.75 31.8 C 16.183 32.367 15.9 33.033 15.9 33.8 C 15.9 34.1 16.183 34.367 16.75 34.6 C 17.383 34.8 18.1 34.9 18.9 34.9 C 19.733 34.9 20.45 34.8 21.05 34.6 Z"></path>
    <path fill="#694C39" stroke="none"
        d="M 26.9 34.2 C 25.5 33.333 23.85 32.9 21.95 32.9 C 21.75 32.9 21.55 32.917 21.35 32.95 C 20.583 33.017 19.917 33.433 19.35 34.2 C 18.75 35.033 18.45 36.033 18.45 37.2 C 18.45 37.7 18.75 38.1 19.35 38.4 C 19.917 38.7 20.583 38.867 21.35 38.9 C 21.55 38.9 21.75 38.9 21.95 38.9 C 23.85 38.9 25.5 38.733 26.9 38.4 C 28.267 38.1 28.95 37.7 28.95 37.2 C 28.817 36.033 28.133 35.033 26.9 34.2 Z"></path>
    <path fill="#2ECC71" stroke="none"
        d="M 25.9 18.8 C 23.367 18.633 20.733 18.533 18 18.5 C 15.333 18.5 12.667 19.333 10 21 C 9.9 22.633 10.917 23.5 13.05 23.6 L 50.4 25.7 C 52.6 25.833 53.733 25.083 53.8 23.45 C 45.8 21.05 36.5 19.5 25.9 18.8 Z"></path>
    <path fill="#28B162" stroke="none"
        d="M 18.3 12.5 C 20.5 12.6 22.35 13.333 23.85 14.7 C 25.117 15.867 25.8 17.233 25.9 18.8 C 36.5 19.5 45.8 21.05 53.8 23.45 L 53.95 21.3 C 53.95 21.233 53.95 21.167 53.95 21.1 C 54.583 13.333 49.333 8.717 38.2 7.25 C 33.5 6.883 28.733 6.933 23.9 7.4 C 20.767 7.633 18.933 9.067 18.4 11.7 L 18.35 11.7 L 18.3 12.5 Z"></path>
    <path fill="#FFFFFF" stroke="none"
        d="M 23.85 14.7 C 22.35 13.333 20.5 12.6 18.3 12.5 L 18 18.5 C 20.733 18.533 23.367 18.633 25.9 18.8 C 25.8 17.233 25.117 15.867 23.85 14.7 Z"></path>
    <path fill="#FFE0B1" stroke="none"
        d="M 42.5 27.85 C 41.267 27.85 40.2 28.217 39.3 28.95 C 38.433 29.75 38 30.75 38 31.95 C 38 33.017 38.433 33.917 39.3 34.65 C 40.2 35.483 41.267 35.9 42.5 35.9 C 43.7 35.9 44.733 35.483 45.6 34.65 C 46.467 33.95 46.9 33.05 46.9 31.95 L 46.9 31.8 C 46.9 30.7 46.467 29.75 45.6 28.95 C 44.733 28.217 43.7 27.85 42.5 27.85 Z"></path>
</svg>