<svg version="1.1" viewBox="0.0 0.0 500.0 500.0" fill="none" stroke="none" stroke-linecap="square"
  stroke-miterlimit="10" xmlns:xlink="http://www.w3.org/1999/xlink"
  xmlns="http://www.w3.org/2000/svg">
  <clipPath id="p.0">
    <path d="m0 0l500.0 0l0 500.0l-500.0 0l0 -500.0z" clip-rule="nonzero" />
  </clipPath>
  <g clip-path="url(#p.0)">
    <path fill="#000000" fill-opacity="0.0" d="m0 0l500.0 0l0 500.0l-500.0 0z" fill-rule="evenodd" />
    <path fill="#f1c232"
      d="m145.63486 276.01974c1.8766022 -0.6830139 3.6808777 -0.88775635 5.412842 -0.6142273c1.7406311 0.2550354 3.334381 0.84698486 4.78125 1.7758179c1.4419403 0.9152832 2.7148438 2.106598 3.8187103 3.573944c1.1125488 1.4488525 1.9864044 3.045868 2.6215973 4.7910156c0.6499634 1.7857361 0.9921875 3.614563 1.0267029 5.4864197c0.034500122 1.8718567 -0.2447052 3.6434326 -0.83761597 5.3146667c-0.59783936 1.6577454 -1.5272064 3.14505 -2.7881012 4.461914c-1.2522125 1.2984009 -2.8370209 2.2965393 -4.75441 2.9944153c-1.9174042 0.697876 -3.758728 0.8854675 -5.5239716 0.56277466c-1.751648 -0.32763672 -3.3681488 -1.0032043 -4.8494873 -2.0267334c-1.4813385 -1.023529 -2.7769928 -2.2984924 -3.8869476 -3.8248901c-1.1099701 -1.5263977 -1.9751587 -3.1418762 -2.5955658 -4.846466c-0.6499634 -1.7857361 -0.9798889 -3.580719 -0.9897766 -5.3849487c-0.014801025 -1.817749 0.2982788 -3.517395 0.93925476 -5.098877c0.6496582 -1.6000061 1.6036377 -3.0196533 2.8619537 -4.2590027c1.258316 -1.2393188 2.8461761 -2.2079468 4.763565 -2.9058228zm-10.483719 -26.51889c-3.6716003 1.3363647 -6.9749756 3.1132202 -9.910133 5.3305664c-2.9351501 2.2173462 -5.4914017 4.7564087 -7.66877 7.6171875c-2.1637573 2.855835 -3.9299927 5.9576416 -5.2986984 9.30542c-1.3687057 3.3477783 -2.3156052 6.8178406 -2.8407211 10.410126c-0.51151276 3.5873108 -0.57766724 7.2347107 -0.19847107 10.942139c0.3742752 3.6939087 1.2039871 7.3063354 2.4891357 10.837219c1.3146896 3.612091 3.0332336 6.9162903 5.1556244 9.912659c2.135994 2.9914246 4.5560226 5.641968 7.260086 7.9516907c2.7127457 2.2912292 5.6719055 4.2016907 8.877457 5.7313843c3.2142487 1.5112 6.577347 2.585205 10.089325 3.2220154c3.5070648 0.6232605 7.089493 0.7977905 10.747284 0.5235901c3.671402 -0.2791748 7.3428955 -1.0869446 11.014496 -2.4233093c3.793991 -1.3808899 7.2042847 -3.1813354 10.230881 -5.4013367c3.0216675 -2.2335205 5.642166 -4.76532 7.861496 -7.595398c2.2329254 -2.8350525 4.045471 -5.9154053 5.437622 -9.241089c1.4008179 -3.3441467 2.3569794 -6.809906 2.8684998 -10.397247c0.52511597 -3.5922852 0.59313965 -7.2556763 0.20410156 -10.990173c-0.39398193 -3.7480164 -1.2630768 -7.4686584 -2.607315 -11.161896c-2.1566772 -5.925415 -5.0609283 -10.942963 -8.7127075 -15.052582c-3.6431274 -4.128128 -7.80719 -7.254654 -12.492203 -9.379578c-4.676346 -2.143402 -9.787811 -3.2398376 -15.334427 -3.2893066c-5.5330048 -0.05441284 -11.257187 0.99490356 -17.172562 3.1479187zm-72.22322 16.911041c-4.4875183 1.6333313 -8.573746 3.9249268 -12.258682 6.8747864c-3.6849365 2.9498901 -6.667427 6.348816 -8.947456 10.196838c-2.27137 3.8295288 -3.6875305 7.998932 -4.2484894 12.508179c-0.5522957 4.490753 0.043102264 9.130676 1.7861748 13.919708c1.2703743 3.490326 3.0207977 6.5224915 5.2512665 9.096497c2.225544 2.5604858 4.7613754 4.5560913 7.6075134 5.9867554c2.8548012 1.4122314 5.938431 2.204956 9.250881 2.3781738c3.3260384 0.16824341 6.7432823 -0.3861084 10.251705 -1.6630859l1.9581909 -0.7127075c0.81591034 -0.29696655 1.7077866 -0.57562256 2.6756287 -0.835968c0.9678421 -0.26034546 1.9757843 -0.47399902 3.0238113 -0.6409607c1.0431061 -0.18051147 2.0162277 -0.2359314 2.919365 -0.1663208c0.89821625 0.05609131 1.693039 0.27236938 2.384468 0.64886475c0.6865082 0.36294556 1.1700897 0.92996216 1.4507523 1.7010803c0.41361237 1.136383 0.3844452 2.1351929 -0.087501526 2.996399c-0.47194672 0.86117554 -1.1544495 1.6304932 -2.0474854 2.3079224c-0.8843765 0.65893555 -1.8649826 1.2226562 -2.9418411 1.6912231c-1.0817871 0.4550171 -2.0102386 0.8235779 -2.7853546 1.1057129c-4.079567 1.4848328 -8.428421 2.4625244 -13.046555 2.933075c-4.6094666 0.4520874 -9.024685 0.27426147 -13.245678 -0.5334778l6.43647 26.061584c2.0496483 0.17324829 4.370556 0.30899048 6.9627495 0.40731812c2.600853 0.079833984 5.2704163 0.073394775 8.008667 -0.019348145c2.7333221 -0.10626221 5.385872 -0.32867432 7.957657 -0.6672363c2.5853653 -0.34347534 4.877556 -0.8790283 6.876541 -1.6065979c5.1810455 -1.8857422 9.770996 -4.3377075 13.769875 -7.355896c4.0124817 -3.0231323 7.1958923 -6.5258484 9.550247 -10.508148c2.367958 -3.9872437 3.7616043 -8.408905 4.1809464 -13.264923c0.4280243 -4.874542 -0.3698349 -10.091858 -2.3935776 -15.652008c-1.1817398 -3.2468262 -2.7452927 -6.0405884 -4.6906586 -8.381317c-1.936676 -2.3592224 -4.1706467 -4.181244 -6.7019043 -5.466095c-2.5176468 -1.2897949 -5.2961273 -2.0480347 -8.335426 -2.2747192c-3.0393066 -0.22665405 -6.2277145 0.15249634 -9.565224 1.1374207c-0.5117035 0.11730957 -1.115593 0.30264282 -1.8116684 0.55599976c-0.23202515 0.08444214 -0.47428894 0.17645264 -0.726799 0.2760315c-0.50748444 0.1923523 -1.0365982 0.38876343 -1.5873413 0.5892334c-0.5507431 0.20043945 -1.1231079 0.40493774 -1.7171097 0.6134949c-1.1929169 0.40353394 -2.4166794 0.76467896 -3.671257 1.083435c-1.2409973 0.31381226 -2.4188004 0.5050049 -3.533409 0.5736389c-1.1059494 0.0501709 -2.0769653 -0.07901001 -2.9130478 -0.3875122c-0.8274231 -0.32699585 -1.4240112 -0.9295044 -1.7897873 -1.8075256c-0.3214569 -0.7562561 -0.36121368 -1.5001526 -0.119270325 -2.2316895c0.24195099 -0.73150635 0.6685333 -1.4000244 1.2797546 -2.0054932c0.60630035 -0.61901855 1.3416672 -1.2007446 2.206108 -1.7451782c0.8644409 -0.5444336 1.7349701 -1.0298157 2.6116104 -1.4561157c0.8853073 -0.4447937 1.7402573 -0.82492065 2.5648499 -1.1403809c0.8332596 -0.33392334 1.5150604 -0.5973816 2.0454025 -0.7904358c2.896492 -1.0542297 5.976692 -1.8153076 9.240585 -2.2832031c3.2725754 -0.48638916 6.46579 -0.7676697 9.579643 -0.8439331l-6.670685 -25.562683c-2.105217 -0.19894409 -4.2607193 -0.21875 -6.466507 -0.05935669c-2.2057953 0.15939331 -4.4290466 0.44003296 -6.6697693 0.84191895c-2.2271194 0.39697266 -4.4259872 0.9138489 -6.596596 1.5506897c-2.175537 0.62332153 -4.262802 1.2987671 -6.2617836 2.0263367z"
      fill-rule="evenodd" />
    <path fill="#f1c232"
      d="m410.07263 172.60188c2.5180664 -0.82458496 4.8494263 -1.0832825 6.9940186 -0.7760925c2.139679 0.2936554 4.073059 1.0147705 5.80011 2.1633453c1.7357178 1.1301117 3.2244568 2.618225 4.4661865 4.4643555c1.2553406 1.8411713 2.261444 3.864975 3.018341 6.0714264l0.31021118 0.85227966c0.775177 2.3836365 1.1653442 4.8307953 1.1705627 7.341461c0.013885498 2.4922028 -0.37680054 4.909485 -1.1720276 7.251892c-0.78656006 2.3239136 -1.9528198 4.4719543 -3.4988098 6.444153c-1.5509033 1.9586487 -3.4837646 3.5660706 -5.7985535 4.822235l-11.290039 -38.635056zm-231.71486 54.140854c4.7066193 14.32753 9.451675 28.549149 14.235184 42.664856c4.797104 14.110748 9.650955 28.292755 14.561539 42.54605l50.062454 -22.771515l-7.2678986 -27.965118c-2.284546 0.83151245 -4.52092 1.668457 -6.7091217 2.5108643c-2.1881866 0.8424072 -4.4245605 1.6793518 -6.7091064 2.5108643l-5.6909943 2.07135c-1.8766022 0.68304443 -3.7883606 1.3329163 -5.735306 1.9496155c-2.9121857 -9.143524 -5.5525055 -18.301743 -7.9209747 -27.47464c-2.3733978 -9.186417 -4.7084656 -18.394455 -7.005188 -27.624115zm221.68486 -79.03238c-4.691498 1.7075653 -9.308655 3.7251434 -13.851501 6.052704c-4.534149 2.3090973 -8.786499 4.9905396 -12.756989 8.044357l28.022217 82.32144c1.991272 -0.49494934 3.9244995 -1.0224152 5.7996826 -1.582367c1.8702698 -0.57347107 3.7640991 -1.2091522 5.681488 -1.9070282c5.140259 -1.8709106 10.0017395 -4.0846405 14.584412 -6.641205c4.5913696 -2.5750275 8.751312 -5.467987 12.479858 -8.678848c3.7236023 -3.224411 6.9355164 -6.7757874 9.635712 -10.65416c2.7001648 -3.8783722 4.717499 -8.067398 6.051941 -12.567093c1.3431091 -4.518158 1.9193115 -9.324036 1.7286072 -14.417633c-0.1956482 -5.107132 -1.3275146 -10.501663 -3.3955688 -16.183578c-2.1862183 -6.006592 -5.1362 -11.022797 -8.849884 -15.048645c-3.7000732 -4.030777 -7.923004 -7.0439606 -12.668732 -9.0395355c-4.7457275 -1.995575 -9.883942 -2.9750366 -15.414581 -2.938385c-5.53067 0.03665161 -11.212891 1.1166534 -17.046661 3.239975zm-88.211426 30.865494l29.993256 88.49831l52.305573 -20.41661c-1.4061584 -4.4980164 -2.780182 -8.992401 -4.1220703 -13.48317c-1.333252 -4.5092316 -2.689911 -9.040573 -4.070038 -13.594025l-25.946014 9.4436035l-2.623108 -9.110855l18.136444 -7.290573l-5.5226135 -19.362076l-18.235657 6.637253l-2.1799316 -7.8933105l25.458527 -10.782913c-1.0621643 -3.933792 -2.1707764 -7.804718 -3.3258057 -11.612793c-1.1550293 -3.808075 -2.3044434 -7.664154 -3.4482117 -11.568253zm-54.54654 20.542816l-28.030746 13.23587l58.69078 75.57127l29.731537 -12.751831l-8.446747 -92.89348l-28.81372 8.419098l6.7873535 54.062393l-29.918457 -45.643326z"
      fill-rule="evenodd" />
    <path stroke="#bf9000" stroke-width="1.6000000961183563" stroke-linejoin="round"
      stroke-linecap="butt"
      d="m144.5404 273.01273c1.1074524 -0.40307617 2.3953094 -0.7137146 3.4943085 -0.8384094c1.1129913 -0.12631226 2.429062 -0.10067749 3.4945679 0.067596436c1.0163116 0.14889526 2.1760406 0.44351196 3.1333313 0.79904175c0.9592743 0.35629272 2.0274963 0.89056396 2.8881836 1.4430847c0.841568 0.5342102 1.7564545 1.2441406 2.5009155 1.9408875c0.74050903 0.6930237 1.5198517 1.5648193 2.1436157 2.3939514c0.6216736 0.80960083 1.2530975 1.777771 1.7493744 2.6847534c0.4957428 0.90597534 0.97288513 1.962738 1.3315582 2.9481812c0.36943054 1.0149841 0.6870117 2.171936 0.88253784 3.2167969c0.19570923 1.0458374 0.3169098 2.2362976 0.3366089 3.3051147c0.01977539 1.0727844 -0.060150146 2.2628174 -0.22200012 3.289734c-0.16247559 1.0309448 -0.45307922 2.1781616 -0.79922485 3.1538696c-0.0018615723 0.005218506 -0.0037231445 0.010437012 -0.0055999756 0.015655518c-0.3564911 0.9884949 -0.88687134 2.080719 -1.4418793 2.9689026c-0.5534363 0.88571167 -1.3032684 1.8457031 -2.045105 2.6204834c-0.002670288 0.0027770996 -0.005340576 0.005554199 -0.008026123 0.008331299c-0.7628784 0.79104614 -1.7727814 1.608551 -2.7257385 2.2087097c-0.9429016 0.5938721 -2.1254578 1.166565 -3.2375488 1.5713196c-1.1358643 0.41342163 -2.4615479 0.7257385 -3.5891418 0.8406067c-1.1422424 0.11639404 -2.4960785 0.06567383 -3.6046753 -0.13699341c-0.004348755 -7.9345703E-4 -0.008682251 -0.0015869141 -0.013015747 -0.002380371c-1.0404053 -0.19464111 -2.206192 -0.5418701 -3.1716614 -0.945343c-0.96461487 -0.40316772 -2.0321655 -0.9887085 -2.9084625 -1.5941772c-0.85498047 -0.5907593 -1.7622528 -1.3416748 -2.5081635 -2.0756836c-0.7435608 -0.73172 -1.5167389 -1.6320801 -2.147812 -2.4999084c-1.2391357 -1.7040405 -2.315918 -3.7145996 -3.014511 -5.6339417c-0.3698578 -1.0161743 -0.68551636 -2.1697083 -0.8751831 -3.2015686c-0.19032288 -1.0355225 -0.3018036 -2.2163086 -0.30749512 -3.2561035c-0.008575439 -1.0531006 0.09173584 -2.236084 0.2765808 -3.2395325c0.18579102 -1.0085754 0.51501465 -2.1408386 0.89730835 -3.084076c0.3869629 -0.9530029 0.94255066 -1.999176 1.5119934 -2.8466187c0.5683441 -0.84573364 1.327591 -1.7583313 2.069748 -2.4892883c0.763855 -0.75234985 1.7665558 -1.5301819 2.713684 -2.1079712c0.9360504 -0.5709839 2.0996857 -1.1242065 3.2009277 -1.5250244zm-8.294785 -20.504852c-1.7294159 0.62945557 -3.2620392 1.3135223 -4.8098297 2.1460724c-1.5445709 0.83081055 -2.8973083 1.6968842 -4.2658844 2.7307892c-1.3822403 1.04422 -2.5917053 2.0917969 -3.7923584 3.2843628c-1.1997452 1.1916809 -2.23732 2.3753052 -3.256836 3.7147827c-1.0166931 1.3418884 -1.8839645 2.6566162 -2.7152023 4.116394c-0.8314743 1.4602051 -1.5245819 2.8861694 -2.16996 4.4647217c-0.64759064 1.5839844 -1.1638565 3.1040344 -1.6115952 4.744812c-0.44778442 1.6409607 -0.77619934 3.2165833 -1.0239792 4.911621c-0.24095917 1.6899109 -0.36964417 3.3015747 -0.40093994 5.0267944c-0.031318665 1.726593 0.038772583 3.3733215 0.21885681 5.133972c0.17723083 1.7492065 0.445755 3.3787231 0.83823395 5.0875244c0.39261627 1.7093506 0.86531067 3.3059692 1.4743652 4.9793396c0.62218475 1.7094116 1.2965775 3.2471619 2.1068802 4.8051147c0.8091507 1.5557251 1.65551 2.9440613 2.6495132 4.347412c1.0093842 1.4136047 2.027855 2.6748657 3.1724014 3.9284363c1.1434631 1.2523804 2.2819748 2.3544922 3.551506 3.4388733c1.2716141 1.0740356 2.5248642 2.002411 3.9179916 2.9018555c1.3931122 0.89941406 2.7553406 1.6595764 4.257721 2.3765259c1.5046539 0.70739746 2.954773 1.2773743 4.5366364 1.7825317c1.5821075 0.505249 3.0993652 0.8828125 4.7482758 1.1817932c1.6474457 0.29278564 3.2174988 0.46948242 4.907379 0.55178833c1.6914062 0.08239746 3.3037872 0.06021118 5.0335236 -0.06945801c1.7205963 -0.13082886 3.3335876 -0.3695984 5.0605316 -0.74954224c1.7301636 -0.38064575 3.3623657 -0.85723877 5.1004333 -1.4898682c1.7965698 -0.65390015 3.3975067 -1.3608398 5.0036926 -2.2088318c1.6024323 -0.8460083 3.0119476 -1.7263489 4.4242554 -2.7622986c1.422699 -1.0516052 2.6722717 -2.106964 3.9055634 -3.298523c1.2315826 -1.1898804 2.2939606 -2.3668823 3.3352356 -3.6947021c0.0014038086 -0.0018005371 0.0028076172 -0.0035705566 0.004211426 -0.0053710938c1.0497894 -1.3328552 1.9389191 -2.6329346 2.7900085 -4.079376c0.8510895 -1.4463806 1.5552673 -2.8540344 2.2098236 -4.417694c0.6613159 -1.5787354 1.1838379 -3.088379 1.6346588 -4.722473c0.45083618 -1.6340942 0.77615356 -3.1975098 1.0175781 -4.890503c5.187988E-4 -0.003692627 0.0010528564 -0.0074157715 0.0016021729 -0.011108398c0.247818 -1.6954651 0.3795929 -3.3074646 0.41174316 -5.0383606c0.032165527 -1.7325745 -0.039596558 -3.386383 -0.22393799 -5.155945c-0.18630981 -1.7725525 -0.46879578 -3.4428406 -0.8807831 -5.2066345c-0.4124756 -1.7657776 -0.9110718 -3.435852 -1.5509186 -5.1938477c-0.51664734 -1.4195251 -1.0513458 -2.719635 -1.6550751 -4.025055c-0.602478 -1.3026733 -1.2144623 -2.4837952 -1.9031067 -3.6735535c-0.6873169 -1.187439 -1.3749084 -2.2530518 -2.1478271 -3.3291016c-0.771698 -1.0743408 -1.5344391 -2.0289917 -2.391739 -2.9937744c-0.0024261475 -0.0027160645 -0.004837036 -0.005432129 -0.007232666 -0.008178711c-0.8592224 -0.9736023 -1.6920776 -1.8294678 -2.6089935 -2.6815186c-0.9152374 -0.85046387 -1.795227 -1.5871277 -2.7684937 -2.317871c-0.9720459 -0.7298584 -1.9013824 -1.3522949 -2.932434 -1.9641571c-1.0306091 -0.6116028 -2.0135345 -1.1242065 -3.1047668 -1.6191406c-0.0038604736 -0.0017547607 -0.0077056885 -0.0034942627 -0.0115356445 -0.005264282c-1.0888977 -0.49908447 -2.1211853 -0.90501404 -3.2611084 -1.2823334c-1.1405792 -0.37753296 -2.2239075 -0.6716461 -3.4176025 -0.92770386c-1.1952972 -0.2564087 -2.3357086 -0.43873596 -3.5861053 -0.5731964c-1.2528229 -0.13468933 -2.4553986 -0.20352173 -3.7662811 -0.21520996c-1.3054962 -0.012832642 -2.5440369 0.036331177 -3.8739166 0.15385437c-1.3317871 0.1177063 -2.60318 0.29092407 -3.9619904 0.5400238c-2.724823 0.4994812 -5.3757477 1.2288055 -8.212189 2.2612zm-72.223236 16.911041c-2.1230469 0.7727051 -4.0306206 1.6459656 -5.9595184 2.7277222c-1.9282112 1.0813599 -3.6534119 2.244995 -5.393818 3.638214c-1.7351418 1.388977 -3.1984978 2.7824097 -4.5950813 4.3740234c-1.3939247 1.588562 -2.5351982 3.1601868 -3.5995216 4.9564514c-1.0515976 1.7730103 -1.8340797 3.4703674 -2.4883194 5.3965454c-0.65480804 1.9278564 -1.0766449 3.7795105 -1.3370323 5.87265c-0.12533188 1.0190735 -0.17977524 1.9480286 -0.17486572 2.9880981c0.004917145 1.0418091 0.06888199 1.9961853 0.20536423 3.0598145c0.13686752 1.0665588 0.32318497 2.0542603 0.5936661 3.144867c0.27140427 1.0943604 0.5857582 2.1201477 0.9932251 3.2396545c0.58883286 1.6177979 1.226635 2.994934 2.0299416 4.386444c0.80003357 1.3858643 1.6186867 2.5387573 2.6310844 3.7070923c1.0146484 1.1673279 1.9868889 2.0976562 3.1332169 2.9997559c1.1423073 0.8989563 2.216343 1.5827026 3.4855804 2.2207336c1.2691231 0.6278076 2.441822 1.0632324 3.822506 1.4181824c1.3840065 0.35577393 2.6673317 0.54959106 4.1647186 0.62789917c1.4879761 0.07525635 2.8358307 -0.0018920898 4.380638 -0.25253296c1.5542297 -0.2521057 2.9942322 -0.63287354 4.612175 -1.2217712l1.9582214 -0.71273804c0.885437 -0.32226562 1.9091187 -0.64212036 2.9388504 -0.9190979c1.0511398 -0.28277588 2.2231293 -0.53118896 3.3304977 -0.7076111c1.202652 -0.20809937 2.5728683 -0.28616333 3.6666412 -0.20187378c1.2007217 0.07501221 2.6717758 0.47528076 3.6747665 1.0214233c0.58865356 0.31121826 1.3564453 0.9214783 1.7993393 1.4407959c0.43676758 0.512146 0.91189575 1.3440857 1.145401 1.9855957c0.3005829 0.8258362 0.5042572 1.9570923 0.4799652 2.7892761c-0.02557373 0.8753357 -0.3482666 2.0730896 -0.7682266 2.839447c-0.64521027 1.1773682 -1.775917 2.4518738 -2.919815 3.3195496c-0.00730896 0.005554199 -0.014640808 0.011077881 -0.022003174 0.016540527c-1.036705 0.77246094 -2.3366318 1.5197754 -3.5770493 2.0594788c-0.011978149 0.005218506 -0.023994446 0.010345459 -0.03604126 0.015411377c-1.1116409 0.46759033 -2.11306 0.8651428 -2.931549 1.1630554c-2.1372757 0.77789307 -4.4409103 1.4509277 -6.7138824 1.9619446c-2.2697144 0.5102844 -4.7004395 0.90283203 -7.1027603 1.1476135c-0.004005432 4.272461E-4 -0.008018494 8.239746E-4 -0.012023926 0.0012207031c-2.4120903 0.23657227 -4.889084 0.3118286 -7.209652 0.21838379c-2.3249626 -0.09365845 -4.720703 -0.3670349 -2.0441704 0.14517212l4.688633 18.984497c-0.27853012 -0.023529053 1.9682426 0.10787964 4.516102 0.20449829c2.5363693 0.07785034 5.102661 0.07168579 7.7826004 -0.019073486c2.6537018 -0.10321045 5.1595154 -0.31329346 7.654442 -0.64172363c2.4288177 -0.3227234 4.382576 -0.7791443 6.201599 -1.4412537c2.4871826 -0.90527344 4.722801 -1.8977051 6.9149323 -3.0687866c2.1870346 -1.1683044 4.1237183 -2.401764 6.0227585 -3.835083c1.8910599 -1.4247437 3.4677124 -2.8546143 4.9554977 -4.4916077c1.4832382 -1.632019 2.6736221 -3.2409668 3.7668152 -5.090088c0.0010757446 -0.0018005371 0.0021514893 -0.0036010742 0.0032196045 -0.005432129c0.5450516 -0.91778564 0.99121857 -1.7779846 1.4236221 -2.7445984c0.4323883 -0.96661377 0.7762146 -1.8723755 1.0969849 -2.8900452c0.64271545 -2.0391846 1.0286407 -4.014099 1.2235947 -6.271637c1.373291E-4 -0.0015258789 2.670288E-4 -0.0030517578 4.043579E-4 -0.0045776367c0.09817505 -1.1180725 0.123687744 -2.1593628 0.08104706 -3.3230896c-0.042785645 -1.1673584 -0.14807129 -2.2668762 -0.3339157 -3.4821777c-0.18650818 -1.219574 -0.42855835 -2.3819275 -0.7606888 -3.6505432c-0.33328247 -1.2730103 -0.7180481 -2.4996033 -1.1993027 -3.8218384c-0.548439 -1.5068054 -1.1280212 -2.782074 -1.8443909 -4.0621033c-0.71196747 -1.2721558 -1.423706 -2.3136292 -2.30027 -3.3683472c-0.0041275024 -0.0049438477 -0.0082473755 -0.0099487305 -0.01234436 -0.014923096c-0.87002563 -1.059845 -1.6873474 -1.879242 -2.677147 -2.6865234c-0.9849243 -0.8033142 -1.8884888 -1.3924255 -2.9998016 -1.9565125c-0.0035552979 -0.0018005371 -0.0071105957 -0.0036315918 -0.010665894 -0.0054626465c-1.1099396 -0.56863403 -2.124733 -0.9610596 -3.3554688 -1.2969055c-1.2367554 -0.3374939 -2.3881454 -0.5324402 -3.7588806 -0.63464355c-1.3616943 -0.1015625 -2.609993 -0.07098389 -4.0549316 0.10083008c-1.454773 0.17297363 -2.822029 0.45877075 -4.3665466 0.9145813c-0.063072205 0.018615723 -0.12670898 0.03527832 -0.19080353 0.049987793c-0.39868164 0.09136963 -0.8132019 0.21859741 -1.4321823 0.44387817c-0.21117401 0.07687378 -0.41368866 0.15377808 -0.6473541 0.24591064c-0.013191223 0.005218506 -0.026420593 0.010314941 -0.03968811 0.015350342c-0.51773834 0.19625854 -1.0667038 0.4000244 -1.627037 0.6039734c-0.5597 0.20373535 -1.1493149 0.41436768 -1.7515945 0.625824c-0.011497498 0.0040283203 -0.023010254 0.0079956055 -0.0345459 0.0119018555c-1.2524185 0.42367554 -2.5949783 0.81988525 -3.9087296 1.1536865c-0.0011825562 2.746582E-4 -0.0023651123 5.79834E-4 -0.0035476685 8.8500977E-4c-1.3755722 0.34780884 -2.8476105 0.5868225 -4.121193 0.6652527c-0.017219543 0.0010681152 -0.034454346 0.0019836426 -0.051689148 0.002746582c-1.3905029 0.063079834 -2.996254 -0.1505127 -4.16584 -0.5820923l0 0c-0.022842407 -0.008453369 -0.04560089 -0.017150879 -0.06825256 -0.02609253c-0.7152176 -0.2826233 -1.6279144 -0.87835693 -2.165802 -1.4216003c-0.52884674 -0.5340576 -1.106884 -1.4233398 -1.3974075 -2.120758c-0.26013184 -0.6119385 -0.48132706 -1.5305786 -0.51685715 -2.1955566c-0.036117554 -0.67575073 0.09565735 -1.6373291 0.3089447 -2.282196c0.36747742 -1.1110535 1.2010918 -2.417389 2.0486946 -3.2570496c0.7312088 -0.746521 1.7602005 -1.5605469 2.7699509 -2.1965027c0.9367752 -0.58999634 1.9602356 -1.1606445 2.8988647 -1.617096c0.93431854 -0.4694214 1.9357758 -0.91467285 2.81604 -1.2514343c0.8282013 -0.33187866 1.5578842 -0.6138611 2.1178665 -0.817688c1.5297089 -0.5567627 3.1874847 -1.0602722 4.8093643 -1.461029c1.6191483 -0.40005493 3.362053 -0.7377014 5.0634003 -0.9815979c3.358879 -0.49920654 6.7482986 -0.79782104 5.925743 -0.77767944l-5.085312 -19.487396c0.26006317 0.02456665 -1.6291504 0.007232666 -3.7051086 0.15722656c-2.1204758 0.15322876 -4.1764603 0.41275024 -6.3354263 0.7999878l0 0c-0.0011520386 2.1362305E-4 -0.0023040771 4.272461E-4 -0.0034561157 6.4086914E-4c-2.1412506 0.3816223 -4.1703033 0.85861206 -6.2572174 1.4708862c-0.0064926147 0.0018920898 -0.012992859 0.0037841797 -0.019493103 0.005645752c-2.123352 0.6083679 -4.1039963 1.2492981 -6.0486984 1.9571228z"
      fill-rule="nonzero" />
    <path stroke="#bf9000" stroke-width="4.800000128157809" stroke-linejoin="round"
      stroke-linecap="butt"
      d="m146.1821 277.52325c0.853714 -0.31072998 1.5901184 -0.4883423 2.3938293 -0.5795288c0.79670715 -0.090423584 1.4647522 -0.077423096 2.222168 0.04220581c0.005874634 9.1552734E-4 0.011749268 0.0018005371 0.01763916 0.0026855469c0.7884979 0.11553955 1.4590149 0.28585815 2.1756897 0.5520325c0.7156677 0.2658081 1.3217773 0.5689392 1.9731598 0.9871216c0.0022888184 0.0014648438 0.0045928955 0.0029296875 0.006881714 0.0043945312c0.65722656 0.4171753 1.217865 0.85220337 1.8003082 1.3973083c0.5844269 0.54696655 1.086029 1.1080627 1.59729 1.7876892c0.0031738281 0.004211426 0.006362915 0.008392334 0.009567261 0.012573242c0.5187683 0.6755676 0.9479675 1.3336792 1.3552246 2.0779724c0.40751648 0.744751 0.73483276 1.469696 1.0318909 2.2858276c0.3027649 0.8318176 0.516037 1.6087952 0.6749573 2.4579773c0.15881348 0.84866333 0.23950195 1.6412048 0.25552368 2.5106812c0.015991211 0.8675232 -0.035812378 1.638794 -0.16429138 2.45401c-0.12815857 0.8131714 -0.309906 1.5306396 -0.5801239 2.292328c-0.26872253 0.7451172 -0.5762329 1.3783875 -0.9957428 2.0497437c-0.42030334 0.67263794 -0.86676025 1.2442322 -1.4394989 1.8424072c-0.55570984 0.5762024 -1.1146393 1.028656 -1.826767 1.4771423c-0.7171631 0.45169067 -1.4391937 0.8013611 -2.3212128 1.1223755c-0.8701172 0.31671143 -1.6167908 0.49261475 -2.4339752 0.5758667c-0.8098755 0.08251953 -1.4854279 0.05718994 -2.2518158 -0.08288574c-0.79026794 -0.14782715 -1.4704437 -0.35043335 -2.2000732 -0.6553345c-0.730072 -0.30514526 -1.3579865 -0.64953613 -2.0308228 -1.1144409c-0.68351746 -0.47229004 -1.2712555 -0.95874023 -1.8700409 -1.5479736c-0.5999603 -0.59036255 -1.1154633 -1.1907043 -1.6324158 -1.9015808c-1.0453644 -1.4375916 -1.8047638 -2.8555298 -2.3860931 -4.4526978c-0.30255127 -0.8312073 -0.51216125 -1.597229 -0.66477966 -2.4275208c-0.15226746 -0.8284912 -0.22395325 -1.5877991 -0.22851562 -2.4189453c0 -0.0014343262 -1.5258789E-5 -0.0028686523 -3.0517578E-5 -0.004272461c-0.006790161 -0.83462524 0.054901123 -1.5621643 0.19728088 -2.335144c0.14193726 -0.7704468 0.335083 -1.4347229 0.62467957 -2.149231c0.2937622 -0.7234802 0.6173248 -1.3327637 1.0480957 -1.9738159c0.43130493 -0.6418457 0.8812866 -1.1826782 1.453949 -1.7467041c0.5618286 -0.55337524 1.1277771 -0.9924011 1.8451233 -1.4299927c0.7228546 -0.4409485 1.4555054 -0.7892761 2.3429413 -1.1122742zm-11.578186 -29.525894c-1.8890076 0.6875458 -3.7383118 1.5129547 -5.4419403 2.4293213c-1.7052536 0.9172363 -3.3683472 1.9820251 -4.885414 3.1280975c-1.510231 1.1408997 -2.9647903 2.400772 -4.2816467 3.7087708c-1.3173294 1.3084717 -2.573639 2.7416077 -3.6958466 4.216034c-7.095337E-4 9.1552734E-4 -0.001411438 0.0018615723 -0.0021133423 0.0027770996c-1.1134186 1.4695435 -2.1535492 3.0462952 -3.0626068 4.642761c-0.9089279 1.5962219 -1.7379837 3.3018494 -2.4418106 5.023407c-0.7027283 1.7188416 -1.3129578 3.5155334 -1.7992706 5.2976685c-0.48627472 1.7820129 -0.87407684 3.6425781 -1.1436234 5.486511c-2.746582E-4 0.0018615723 -5.41687E-4 0.0037231445 -8.010864E-4 0.005584717c-0.26275635 1.8427429 -0.41503906 3.749939 -0.4490204 5.622864c-0.033950806 1.8722534 0.04839325 3.8069458 0.24275208 5.707184c0.1920929 1.8958435 0.50933075 3.8209534 0.93536377 5.675873c0.42597198 1.8546143 0.98270416 3.7350464 1.6420364 5.5465393c0.67492676 1.8543396 1.4751892 3.6790771 2.3589478 5.3782654c0.88433075 1.7002869 1.9015121 3.3688354 2.9945297 4.911957c0.0011749268 0.0016784668 0.0023498535 0.003326416 0.0035324097 0.0049743652c1.0955276 1.5342712 2.2947998 3.0194092 3.5375519 4.3805237c1.2432938 1.3617249 2.5955658 2.6707764 3.9854813 3.8580017c0.0022506714 0.0019226074 0.004501343 0.0038146973 0.0067596436 0.0057373047c1.3953781 1.1785583 2.8957138 2.289978 4.4185104 3.2731323c1.5228119 0.9831238 3.153473 1.8930969 4.8022766 2.6799011c0.0027770996 0.0013427734 0.005554199 0.0026550293 0.008331299 0.0039367676c1.6541748 0.7777405 3.39563 1.4622192 5.1270294 2.0151367c1.7312775 0.55288696 3.5507965 1.0056458 5.3575897 1.333252c0.0018310547 3.3569336E-4 0.0036773682 6.713867E-4 0.005508423 0.0010070801c1.8038025 0.32055664 3.677353 0.5314026 5.519226 0.62112427c1.8411102 0.08969116 3.75 0.06341553 5.6276245 -0.07733154c5.645752E-4 -6.1035156E-5 0.0011291504 -9.1552734E-5 0.0016937256 -1.5258789E-4c1.8924103 -0.14389038 3.839508 -0.4320984 5.72966 -0.8479309c1.8885345 -0.41552734 3.8261108 -0.9812622 5.7107697 -1.6672363c1.9472046 -0.70874023 3.848343 -1.5482483 5.6029663 -2.4746094c1.7565002 -0.9273071 3.4655914 -1.9947815 5.026993 -3.1401062c0.0015869141 -0.001159668 0.0031585693 -0.002319336 0.0047302246 -0.003479004c1.552536 -1.147583 3.0435944 -2.4068909 4.3923035 -3.709961c1.3495789 -1.303894 2.633316 -2.7261047 3.776123 -4.1834106c1.1487579 -1.4584961 2.2212677 -3.0267334 3.1550903 -4.6138c0.9338989 -1.5870972 1.7835388 -3.285553 2.5003662 -4.9979553c0.7199707 -1.71875 1.3426056 -3.5176392 1.8343048 -5.2998962c0.49171448 -1.7822876 0.87942505 -3.6455078 1.1419678 -5.486725c0.26950073 -1.8437195 0.42604065 -3.7585754 0.46098328 -5.640686c0.034942627 -1.8812561 -0.049560547 -3.8285522 -0.24916077 -5.744629c-0.20230103 -1.9247437 -0.534729 -3.8903198 -0.9805603 -5.7989197c-0.44558716 -1.9075928 -1.0263062 -3.8527527 -1.7145386 -5.743683c-0.5504303 -1.5122681 -1.1619263 -2.999115 -1.8089752 -4.3982544c-0.6476898 -1.4004517 -1.3607178 -2.7765808 -2.1054688 -4.063263c-0.7454529 -1.2878418 -1.5608215 -2.5515137 -2.403595 -3.724823c-0.84342957 -1.1741943 -1.761383 -2.32312 -2.7003632 -3.3797913c-0.9347534 -1.0592041 -1.9333344 -2.0854034 -2.9387054 -3.0196228c-1.0062561 -0.93504333 -2.0789642 -1.8330383 -3.153839 -2.640091c-1.0755005 -0.80752563 -2.2211914 -1.5748749 -3.3648682 -2.2535553c-1.1438904 -0.67884827 -2.3604736 -1.3132935 -3.5688477 -1.8613586c-1.2062988 -0.5529022 -2.4845886 -1.0555573 -3.7498474 -1.4743652c-1.2649078 -0.41870117 -2.5992432 -0.7809601 -3.9192047 -1.0641022c-1.3191528 -0.28297424 -2.706543 -0.50479126 -4.079727 -0.65245056c-1.371994 -0.14749146 -2.8098755 -0.22981262 -4.234421 -0.24250793c-1.4221344 -0.013977051 -2.8956604 0.044509888 -4.341446 0.17227173c-1.4448242 0.1277008 -2.93779 0.33110046 -4.4049377 0.60006714c-2.930725 0.53723145 -5.970108 1.3734283 -8.988403 2.4720154zm-72.22322 16.911026c-2.304119 0.83862305 -4.565483 1.8738403 -6.6657066 3.0516663c-2.1005592 1.1780396 -4.1521454 2.5617676 -6.045643 4.077545c-1.8961334 1.5178833 -3.6647415 3.2019958 -5.2033157 4.955414c-1.5399017 1.7549133 -2.9427147 3.6867065 -4.120571 5.674591c-1.1777306 1.9856567 -2.1693077 4.136566 -2.9043121 6.300537c-0.7347183 2.1631165 -1.2652206 4.491791 -1.5556068 6.82605c-9.1552734E-5 7.324219E-4 -1.8310547E-4 0.0014648438 -2.746582E-4 0.0021972656c-0.14431 1.1734009 -0.21660233 2.406952 -0.21097565 3.5989075c0.005622864 1.1911011 0.08931732 2.4398804 0.24434662 3.6480713c0.15484238 1.2066345 0.3925476 2.4667664 0.69577026 3.689392c0.30276108 1.2207642 0.69164276 2.489746 1.1415596 3.725891c0.65836716 1.8088379 1.4722672 3.5661926 2.3834305 5.144562c0.91279984 1.5811768 1.9963036 3.1070557 3.1621628 4.452484c5.302429E-4 6.4086914E-4 0.0010604858 0.0012512207 0.0015945435 0.0018615723c1.1610298 1.3357544 2.4604263 2.579132 3.7891426 3.6247559c1.3307228 1.0472107 2.8119469 1.9902039 4.307358 2.7419128c0.003047943 0.0015258789 0.0061035156 0.0030517578 0.009159088 0.004547119c1.5019531 0.7430115 3.1425133 1.3521423 4.7648926 1.7692261c1.6207199 0.4166565 3.3775902 0.6819458 5.1118736 0.77264404c9.0408325E-4 6.1035156E-5 0.0018119812 9.1552734E-5 0.0027160645 1.5258789E-4c1.7491875 0.08847046 3.6039848 -0.017700195 5.3945045 -0.30819702c1.7858124 -0.28967285 3.662941 -0.78604126 5.485283 -1.4493103l1.9581757 -0.71273804c0.7811508 -0.28433228 1.6071243 -0.5423889 2.5440216 -0.7944031c0.92620087 -0.24914551 1.8521042 -0.44540405 2.859932 -0.60598755c0.0070266724 -0.0010986328 0.014045715 -0.0022888184 0.021057129 -0.003479004c0.95280457 -0.16488647 1.7273865 -0.2090149 2.5236053 -0.14764404c0.007736206 6.1035156E-4 0.0154800415 0.001159668 0.023223877 0.0016174316c0.73534393 0.045928955 1.1920471 0.17019653 1.7190552 0.45718384c0.005760193 0.0031433105 0.0115356445 0.006225586 0.017341614 0.009307861c0.21185303 0.11199951 0.2667389 0.15560913 0.40798187 0.32122803c0.14430237 0.16921997 0.19333649 0.25506592 0.28707886 0.51260376c0.15991974 0.4393921 0.20223999 0.6744385 0.19252014 1.0074463c-0.009094238 0.31143188 -0.03566742 0.41003418 -0.17964172 0.6727905c-0.38532257 0.703125 -0.8437195 1.2198181 -1.6058426 1.7979126c-0.8026886 0.5980835 -1.623642 1.0700378 -2.6097336 1.4990845c-1.0578308 0.4449463 -1.949791 0.79904175 -2.7032242 1.0732727c-1.9910355 0.7246704 -3.9998703 1.3115845 -6.125023 1.7893677c-2.1267853 0.4781494 -4.274048 0.82492065 -6.53347 1.0551453c-2.2480507 0.2204895 -4.393818 0.28567505 -6.5449486 0.19906616c-2.1489449 -0.08654785 -4.1896477 -0.3194275 -6.2408257 -0.7119446c-0.5355797 -0.10247803 -1.086483 0.0748291 -1.4617043 0.47052002c-0.37522125 0.3956604 -0.5230942 0.9552002 -0.39234924 1.4845886l6.43647 26.061615c0.16446304 0.66589355 0.73509216 1.1528931 1.4185829 1.2106628c2.0702896 0.1749878 4.4282646 0.31289673 7.036865 0.41183472c0.0038452148 1.2207031E-4 0.0076904297 2.746582E-4 0.0115356445 3.9672852E-4c2.6273193 0.08065796 5.3485184 0.07409668 8.111908 -0.019500732c0.0026779175 -9.1552734E-5 0.005355835 -1.8310547E-4 0.008026123 -2.746582E-4c2.769127 -0.10769653 5.495041 -0.33624268 8.104301 -0.679718c6.3323975E-4 -9.1552734E-5 0.0012741089 -1.8310547E-4 0.001914978 -2.746582E-4c2.6626816 -0.35375977 5.124077 -0.9288025 7.213051 -1.6891785c2.6421967 -0.9616699 5.1885147 -2.092041 7.534897 -3.34552c2.3489685 -1.2548218 4.6014404 -2.689392 6.6510773 -4.236389c2.0638351 -1.5549011 3.9739532 -3.287201 5.61763 -5.095703c1.6459427 -1.8110352 3.1274185 -3.8134766 4.3457794 -5.8742676c0.6146469 -1.0349731 1.1882095 -2.1408386 1.6773148 -3.2341614c0.4890976 -1.0933838 0.9311447 -2.257904 1.2933807 -3.4071655c0.7238693 -2.2966614 1.2107773 -4.7883606 1.4277191 -7.3004456c0.111320496 -1.2677612 0.14414215 -2.6072083 0.09612274 -3.917572c-0.047950745 -1.3085327 -0.17958069 -2.683136 -0.385849 -4.032013c-0.20594788 -1.3466797 -0.49904633 -2.7541504 -0.86203 -4.1405945c-0.3624115 -1.3843079 -0.814003 -2.8239136 -1.332283 -4.247864c-0.61208344 -1.6817017 -1.3517914 -3.3092957 -2.1662598 -4.7645874c-0.8166809 -1.459259 -1.7766647 -2.8639832 -2.7942963 -4.08844c-1.0144272 -1.2357483 -2.169754 -2.3940125 -3.3503265 -3.3568726c-1.1830292 -0.9649048 -2.5182037 -1.8353882 -3.8583145 -2.515625c-1.3305893 -0.68170166 -2.8092499 -1.2535095 -4.2777405 -1.6542358c-1.4654846 -0.39993286 -3.0714645 -0.67178345 -4.665573 -0.79067993c-1.5986328 -0.11923218 -3.3098679 -0.07733154 -4.9786987 0.12112427c-1.6639175 0.19784546 -3.4275208 0.5664978 -5.1110687 1.063324c-0.520134 0.11923218 -1.2187042 0.33361816 -1.953331 0.6010132c-0.2424469 0.08822632 -0.5045929 0.18777466 -0.75662994 0.2871704c-0.49240875 0.18664551 -1.0115967 0.37939453 -1.5575409 0.5780945c-0.54626465 0.19882202 -1.1100082 0.40023804 -1.691246 0.60427856c-1.1545181 0.39059448 -2.3188782 0.7341919 -3.542984 1.0451965c-1.172821 0.29656982 -2.2034988 0.4638977 -3.2257156 0.52685547c-0.950737 0.043121338 -1.604393 -0.04385376 -2.2565842 -0.28451538c-0.24596405 -0.09719849 -0.32361603 -0.14788818 -0.502121 -0.32815552c-0.18302917 -0.18481445 -0.25489807 -0.29541016 -0.38174438 -0.59988403l0 0c-0.0014801025 -0.0035705566 -0.0029754639 -0.0071105957 -0.0044784546 -0.010650635c-0.10877228 -0.2558899 -0.13362885 -0.35913086 -0.14567566 -0.5845947c-0.011764526 -0.22003174 -0.0018234253 -0.2925415 0.07299042 -0.5187378c0.17917633 -0.54174805 0.4022522 -0.8913269 0.8867035 -1.3712463c0.0057144165 -0.005645752 0.011390686 -0.011352539 0.017028809 -0.017120361c0.53539276 -0.54660034 1.1239471 -1.012207 1.9157333 -1.5108948c0.8282776 -0.52163696 1.6223373 -0.964386 2.4586792 -1.3711243c0.0062026978 -0.0030212402 0.012382507 -0.006072998 0.018547058 -0.009155273c0.8515549 -0.42782593 1.6332474 -0.7753906 2.4182434 -1.0756836c0.007843018 -0.0029907227 0.015663147 -0.006072998 0.023460388 -0.009185791c0.8241043 -0.3302307 1.4819565 -0.58447266 1.9974747 -0.7720947c1.4075165 -0.5122986 2.8198853 -0.9412842 4.319092 -1.3117065c1.5005722 -0.37078857 3.0081558 -0.6628418 4.6013184 -0.89123535c0.0027236938 -3.6621094E-4 0.0054473877 -7.6293945E-4 0.008171082 -0.0011901855c3.2253418 -0.4793396 6.32045 -0.75201416 9.383591 -0.82702637c0.48856354 -0.011962891 0.94487 -0.24655151 1.238884 -0.6369324c0.2940216 -0.39035034 0.39350128 -0.8937073 0.27010345 -1.3665771l-6.6706696 -25.562683c-0.16978455 -0.65060425 -0.7282181 -1.1256409 -1.3976288 -1.1889038c-2.1729965 -0.20535278 -4.4616394 -0.22634888 -6.732353 -0.062316895c-2.2484436 0.16247559 -4.5553284 0.45370483 -6.836067 0.86276245c-2.269188 0.40444946 -4.552971 0.9413147 -6.7605515 1.5889893c-2.196762 0.62939453 -4.337326 1.3220825 -6.363453 2.0595398z"
      fill-rule="nonzero" />
    <path stroke="#bf9000" stroke-width="1.6000000961183563" stroke-linejoin="round"
      stroke-linecap="butt"
      d="m407.0011 173.49947c-0.48449707 -1.6579285 0.43417358 -3.4011383 2.0756836 -3.938675c1.406189 -0.46047974 2.9404297 -0.80319214 4.2799683 -0.95184326c1.3589172 -0.15078735 2.882843 -0.13427734 4.154297 0.047836304c1.2315674 0.1690216 2.592682 0.5081482 3.7286682 0.93185425c1.1396179 0.4250641 2.3826294 1.0599823 3.3861084 1.7273254c0.99557495 0.6482086 2.0603027 1.5127563 2.9215698 2.373642c0.8569031 0.8565979 1.7358704 1.9298553 2.4351807 2.9695587c0.6842041 1.0035095 1.3603821 2.1591187 1.9118958 3.2685394c0.55044556 1.107193 1.0718079 2.3581543 1.4740295 3.5307312l0.3000183 0.82429504c0.012634277 0.034729004 0.02468872 0.06967163 0.036102295 0.10481262c0.4260559 1.3101196 0.7760925 2.7610474 0.9909668 4.108902c0.21487427 1.3476868 0.33361816 2.8361664 0.3364563 4.210037c0.0076293945 1.3719635 -0.10684204 2.864029 -0.32357788 4.2048798c-0.21676636 1.3412781 -0.5779114 2.790741 -1.0178528 4.086548c-0.436615 1.2899628 -1.0343628 2.6588898 -1.6829529 3.8534698c-0.6478882 1.1932983 -1.4733582 2.4472656 -2.328003 3.5375366c-0.0032348633 0.0041046143 -0.0064697266 0.00819397 -0.00970459 0.012283325c-0.8788147 1.109848 -1.98172 2.2388916 -3.07547 3.1484375c-1.0901794 0.906662 -2.413025 1.7984467 -3.7054749 2.4998474c-0.85025024 0.46141052 -1.863617 0.51342773 -2.7566528 0.14147949c-0.8930054 -0.37193298 -1.5698547 -1.1278992 -1.8411865 -2.0564423l-11.29007 -38.635056zm-224.6356 55.18994c3.73674 11.375107 8.477066 25.582565 13.25766 39.68965c4.7955475 14.106171 9.647293 28.282013 13.410324 39.204407l44.409668 -20.200256l-5.7061157 -21.955719c1.0355225 -0.3769226 -1.173233 0.44973755 -3.3474274 1.2867432c-2.2021942 0.8477783 -4.466156 1.6950684 -6.7643127 2.5315247l-5.6909943 2.07135c-1.9087524 0.69473267 -3.8846283 1.366394 -5.863495 1.9932251c-1.6829224 0.53305054 -3.4796295 -0.39743042 -4.0153656 -2.0794983c-1.4627991 -4.5927734 -2.8637695 -9.210541 -4.1900635 -13.810974c-1.326355 -4.6005707 -2.5903625 -9.226578 -3.7801514 -13.834549c-2.3751373 -9.1931305 -4.7137146 -18.41504 -6.1535645 -24.201263zm218.77159 -77.97203c-2.2982483 0.8364868 -4.531952 1.7303772 -6.7946167 2.7191162c-2.263214 0.9889374 -4.464264 2.0330353 -6.6921387 3.17453c-0.0023498535 0.0011901855 -0.0046691895 0.002380371 -0.007019043 0.0035858154c-2.202179 1.1214752 -4.2713623 2.2967377 -6.3351746 3.5981445c-2.0633545 1.301117 -3.9969788 2.6497498 -4.1059875 2.7335968l26.335968 77.36769c-0.8977051 0.22312927 0.9636841 -0.284729 2.7910461 -0.8303833c1.8187866 -0.55770874 3.63443 -1.1671448 5.513916 -1.8512115c2.5119934 -0.91430664 4.8965454 -1.8881226 7.2695923 -2.96875c2.3719177 -1.0800476 4.6164246 -2.2137756 6.847107 -3.4582367c2.226471 -1.2486725 4.283264 -2.5338135 6.2986145 -3.9353638c2.013153 -1.3999939 3.8545837 -2.8247986 5.651947 -4.372635c1.7858276 -1.546402 3.3802185 -3.1040497 4.9197693 -4.8063354c1.5381775 -1.7007904 2.8895874 -3.399109 4.1812134 -5.2542877c1.277771 -1.8353424 2.3283386 -3.6319122 3.281189 -5.610565c0.95269775 -1.978241 1.6981506 -3.910675 2.3293152 -6.0389557c0.6326294 -2.1281738 1.0577087 -4.1931915 1.3298645 -6.4631195c0.2727661 -2.2751465 0.359375 -4.499283 0.26867676 -6.9225464c-0.092437744 -2.4122772 -0.3904724 -4.770035 -0.92977905 -7.340271c-0.5414429 -2.5806732 -1.2782288 -5.1310425 -2.2750854 -7.86998c-0.52334595 -1.4378815 -1.0645142 -2.748932 -1.6764221 -4.0621185c-0.61047363 -1.3101044 -1.2292175 -2.4905853 -1.9270935 -3.6772766c-0.69625854 -1.1839294 -1.3903809 -2.2377777 -2.1733704 -3.3002167c-0.78134155 -1.0602875 -1.5500488 -1.9927826 -2.4180908 -2.9337463c-0.001739502 -0.0019073486 -0.0035095215 -0.003829956 -0.005279541 -0.0057373047c-0.8710327 -0.9488983 -1.7131348 -1.7790527 -2.6419067 -2.6047668c-0.9270935 -0.824234 -1.8163452 -1.5342865 -2.8016663 -2.2373352c-0.98410034 -0.70222473 -1.9232483 -1.2973175 -2.9667664 -1.8801117c-1.0432739 -0.58262634 -2.0369568 -1.0670776 -3.1414185 -1.5314941c-1.1083679 -0.4660797 -2.1601868 -0.84425354 -3.3147888 -1.1917877c-1.1552734 -0.34773254 -2.2536316 -0.6165314 -3.4569397 -0.84591675c-2.411499 -0.45968628 -4.7676697 -0.66789246 -7.3812866 -0.650589c-2.6170044 0.017349243 -5.1315613 0.2677765 -7.8333435 0.7812958c-2.7098389 0.51504517 -5.340149 1.2467041 -8.140045 2.2657776zm-85.27072 29.795166l27.91394 82.36304l46.40454 -18.113235c-0.518219 -1.6576233 -1.8981323 -6.171341 -3.24292 -10.671783c-8.8500977E-4 -0.002960205 -0.0017700195 -0.0059051514 -0.0026550293 -0.008865356c-1.3316956 -4.5039825 -2.6852417 -9.024887 -3.0832825 -10.338196l-22.769653 8.287491c-0.833374 0.30332947 -1.7552795 0.24719238 -2.5456848 -0.15501404c-0.7904358 -0.40220642 -1.378479 -1.1144104 -1.6238708 -1.9666748l-2.6230469 -9.11087c-0.45410156 -1.5772095 0.3587036 -3.2422638 1.8815613 -3.854416l15.462097 -6.2155457l-3.7894897 -13.285675l-15.00647 5.461914c-0.8390808 0.30540466 -1.7675781 0.24633789 -2.5611877 -0.16293335c-0.7936096 -0.40927124 -1.3800964 -1.1315155 -1.6177979 -1.992218l-2.1799316 -7.8933105c-0.42739868 -1.5475769 0.35812378 -3.172287 1.8365173 -3.798462l22.890076 -9.695038c-0.32870483 -1.217392 -1.4237976 -5.0410156 -2.5715942 -8.825256c-1.1572266 -3.8154144 -2.3109741 -7.6860657 -2.4976196 -8.32309zm-59.732147 22.688171l-21.904846 10.343262l54.726196 70.46637l25.323364 -10.861176l-7.884186 -86.70659l-22.464233 6.563843l6.447693 51.35695c0.18548584 1.4774628 -0.67263794 2.8876343 -2.0701294 3.4017944c-1.3974609 0.5141754 -2.9649353 -0.003540039 -3.78125 -1.2489014l-28.392609 -43.31555z"
      fill-rule="nonzero" />
    <path stroke="#bf9000" stroke-width="4.800000128157809" stroke-linejoin="round"
      stroke-linecap="butt"
      d="m412.043 173.64027c-0.2869568 0.09396362 0.76446533 -0.14089966 1.8431396 -0.26060486c1.0690918 -0.118637085 1.9855652 -0.10870361 2.9536438 0.029953003c0.003112793 4.4250488E-4 0.0061950684 8.8500977E-4 0.009307861 0.0013122559c0.98431396 0.13508606 1.8311462 0.34606934 2.7131958 0.6750641c0.880188 0.32829285 1.6313477 0.7119751 2.418457 1.2354431c0.004333496 0.0028686523 0.008666992 0.005722046 0.013000488 0.008544922c0.79748535 0.5192566 1.4742737 1.0688019 2.1602173 1.7544403c0.6880493 0.68777466 1.2725525 1.4014893 1.8513794 2.2620392c0.0018615723 0.0027923584 0.003753662 0.005584717 0.005645752 0.008361816c0.5965576 0.8749542 1.1065369 1.746521 1.5853271 2.7096558c0.47940063 0.9642639 0.8798218 1.9251251 1.2415466 2.9795837c0.0032348633 0.009399414 0.0065307617 0.018753052 0.009918213 0.028076172l0.3007202 0.8262329c0.35980225 1.1063232 0.62179565 2.1923676 0.8069763 3.353836c0.18518066 1.1615295 0.2741394 2.2764893 0.2765808 3.4697418c0 0.001876831 3.0517578E-5 0.0037384033 3.0517578E-5 0.0056152344c0.0065612793 1.1803589 -0.07745361 2.2753754 -0.26211548 3.4179077c-0.18463135 1.1423492 -0.448761 2.2024994 -0.82525635 3.3114014c-0.37161255 1.0979462 -0.8050232 2.0904694 -1.3554077 3.1042023c-0.55075073 1.014389 -1.1551208 1.9324951 -1.8848877 2.8634338c-0.7213745 0.91101074 -1.4762573 1.6837769 -2.3790894 2.434555c-0.9045105 0.7522278 -1.835907 1.3801422 -1.1830444 1.0258484l-10.299286 -35.244644zm-234.23245 51.598953c-0.8118286 0.29548645 -1.2424774 1.1820831 -0.9728546 2.0028687c4.7077637 14.331055 9.4552 28.559753 14.240158 42.67975c4.797882 14.113037 9.652786 28.298157 14.563919 42.55298c0.14683533 0.42617798 0.46662903 0.7706604 0.88075256 0.94869995c0.41412354 0.17807007 0.88412476 0.17315674 1.2944489 -0.013458252l50.062454 -22.771515c0.7078552 -0.32199097 1.0816956 -1.1062622 0.8861084 -1.8588867l-7.267914 -27.965118c-0.113357544 -0.43618774 -0.40544128 -0.8043518 -0.80441284 -1.0139465c-0.39898682 -0.20962524 -0.8678589 -0.24124146 -1.2913666 -0.08709717c-2.2913818 0.8339844 -4.5415497 1.676117 -6.73674 2.5212097c-2.1811981 0.83969116 -4.403763 1.6714783 -6.6815186 2.5005188l-5.690979 2.07135c-1.8605194 0.67718506 -3.7402344 1.3161621 -4.148346 1.4454346c-0.96795654 -3.0391235 -2.3496552 -7.593384 -3.6667328 -12.161835c-1.3170776 -4.56839 -2.5633545 -9.129547 -3.744812 -13.705231c-2.3725433 -9.18306 -4.705841 -18.38417 -7.001709 -27.610367c-0.10952759 -0.44015503 -0.40072632 -0.81314087 -0.801178 -1.0261841c-0.4004364 -0.21302795 -0.8724823 -0.24609375 -1.298706 -0.09095764zm221.68484 -79.03238c-2.3695374 0.86242676 -4.743408 1.8124237 -7.0749207 2.8312225c-2.3312988 1.0187073 -4.665741 2.1260986 -6.9571533 3.3001251c-2.297821 1.1701813 -4.558136 2.45401 -6.715454 3.814392c-2.1575928 1.3605347 -4.2743835 2.8369293 -6.2891846 4.386566c-0.5431824 0.41778564 -0.76000977 1.1351166 -0.5391846 1.783844l28.022217 82.32144c0.2678833 0.7869873 1.0938416 1.2377014 1.9006042 1.0371704c2.0089111 -0.49934387 3.9780884 -1.0366058 5.871521 -1.6019897c0.003753662 -0.0011291504 0.007507324 -0.0022583008 0.011260986 -0.0034179688c1.8904114 -0.5796509 3.8233032 -1.2284546 5.759674 -1.9332428c2.5991821 -0.9460144 5.157593 -1.99086 7.617096 -3.110855c2.460205 -1.1202545 4.879486 -2.3422546 7.199585 -3.6365662c0.0010375977 -5.950928E-4 0.002105713 -0.0011749268 0.0031433105 -0.0017700195c2.3287354 -1.3060303 4.582062 -2.7139587 6.694336 -4.1829224c2.1134033 -1.4697113 4.1509094 -3.0462494 6.046936 -4.6790314c0.0010986328 -9.613037E-4 0.0022277832 -0.0019073486 0.003326416 -0.0028686523c1.8981323 -1.6436615 3.7018127 -3.405777 5.3409424 -5.218155c1.639801 -1.8131714 3.1811218 -3.7501526 4.5604553 -5.7313385c1.3862915 -1.9911346 2.630005 -4.118088 3.666565 -6.270523c1.0366821 -2.1526794 1.9208679 -4.444702 2.6061401 -6.755356c0.690979 -2.3245392 1.1981812 -4.788513 1.4942627 -7.2579803c0.29574585 -2.4668427 0.39700317 -5.0670776 0.29934692 -7.6756287c-0.10055542 -2.6242065 -0.4493103 -5.3834686 -1.028595 -8.144241c-0.578125 -2.7555542 -1.409729 -5.634033 -2.4622803 -8.525986c-0.5581665 -1.5335388 -1.1790161 -3.0376434 -1.8361206 -4.44783c-0.6578064 -1.4117279 -1.3830566 -2.7954102 -2.1403809 -4.083145c-0.75808716 -1.2891083 -1.5888672 -2.550415 -2.4468384 -3.7145844c-0.8587036 -1.1652527 -1.7953796 -2.301529 -2.752716 -3.3393097c-0.9507141 -1.0356445 -1.9661865 -2.036728 -2.9873962 -2.9446106c-1.0220032 -0.9086304 -2.1119385 -1.7789307 -3.2028809 -2.5573578c-1.0914917 -0.77882385 -2.254547 -1.5158234 -3.4143677 -2.163559c-1.1600342 -0.6478424 -2.3937988 -1.2493439 -3.6212463 -1.7654724c-1.2254333 -0.51530457 -2.5159912 -0.9793091 -3.7919006 -1.3633575c-1.2756348 -0.3839569 -2.6164856 -0.7121124 -3.9416199 -0.9647217c-2.6479797 -0.50476074 -5.4706726 -0.75419617 -8.31189 -0.7353668c-2.839508 0.018814087 -5.787079 0.31236267 -8.697815 0.8656006c-2.9067688 0.5524597 -5.9101257 1.3878784 -8.885468 2.4708252zm-88.211395 30.865494c-0.8173218 0.2974701 -1.2472839 1.1933441 -0.96810913 2.0170746l29.993225 88.49829c0.14025879 0.41381836 0.44363403 0.7522888 0.8397217 0.9367981c0.39605713 0.18450928 0.8503723 0.19900513 1.2574158 0.040130615l52.305573 -20.41661c0.7832031 -0.30570984 1.1961975 -1.1654358 0.945343 -1.9678955c-1.4046631 -4.4931946 -2.7757263 -8.977936 -4.1155396 -13.461624c-1.333374 -4.5096436 -2.6915894 -9.046219 -4.07251 -13.602249c-0.12750244 -0.4206543 -0.42242432 -0.7703247 -0.81555176 -0.9669342c-0.39315796 -0.19659424 -0.8498535 -0.22280884 -1.2628784 -0.07246399l-24.33545 8.857391l-1.749176 -6.07547l16.79596 -6.7517242c0.76000977 -0.30551147 1.1665344 -1.1356964 0.941864 -1.9234009l-5.522644 -19.36206c-0.12182617 -0.4270935 -0.41567993 -0.7843323 -0.8112488 -0.9862366c-0.39556885 -0.2019043 -0.8572693 -0.2303009 -1.2746277 -0.07841492l-16.607391 6.0446167l-1.3452454 -4.8709564l24.16687 -10.235825c0.73599243 -0.3117218 1.1290283 -1.1187439 0.9206848 -1.8903809c-1.0653687 -3.9455414 -2.1807556 -7.840149 -3.339386 -11.66011c-1.1539307 -3.8043976 -2.3011475 -7.6531982 -3.4438782 -11.55368c-0.124298096 -0.42430115 -0.41864014 -0.7782593 -0.8131714 -0.97784424c-0.39453125 -0.19960022 -0.8540344 -0.22705078 -1.2695312 -0.07582092zm-52.661163 21.16919c-0.43746948 -0.66737366 -1.2997742 -0.9104004 -2.0213318 -0.5696869l-28.030762 13.23587c-0.43896484 0.20729065 -0.7601013 0.60266113 -0.8729706 1.0747986c-0.11286926 0.4721527 -0.005279541 0.9700165 0.29248047 1.3534241l58.69081 75.57129c0.44659424 0.5750427 1.2251587 0.776062 1.8943481 0.4890442l29.731506 -12.751831c0.63687134 -0.27313232 1.0255127 -0.92523193 0.96276855 -1.6153564l-8.446777 -92.89348c-0.043304443 -0.47631836 -0.29742432 -0.9082947 -0.6927185 -1.1775208c-0.3953247 -0.26924133 -0.89035034 -0.34751892 -1.3494263 -0.2133789l-28.81372 8.419113c-0.75408936 0.22033691 -1.2366638 0.95558167 -1.138794 1.7350922l5.927063 47.210114l-26.132477 -39.867493z"
      fill-rule="nonzero" />
  </g>
</svg>