<svg xmlns="http://www.w3.org/2000/svg" viewBox="0 0 64 64">
    <rect width="64" height="64" fill="#758C8E"></rect>
    <path fill="#566768" stroke="none"
        d="M 17 31 L 47 31 L 47 17 L 17 17 L 17 31 M 17 49 L 17 62 L 47 62 L 47 49 L 17 49 M 15 49 L 2 49 L 2 56.3 C 2.1 60.1 4.083 62 7.95 62 L 15 62 L 15 49 M 2 33 L 2 47 L 31 47 L 31 33 L 2 33 M 15 17 L 2 17 L 2 31 L 15 31 L 15 17 M 31 15 L 31 2 L 7.95 2 C 3.983 2 2 3.983 2 7.95 L 2 15 L 31 15 M 62 31 L 62 17 L 49 17 L 49 31 L 62 31 M 62 56.3 L 62 49 L 49 49 L 49 62 L 56.05 62 C 59.917 62 61.9 60.1 62 56.3 M 62 47 L 62 33 L 33 33 L 33 47 L 62 47 M 62 15 L 62 7.95 C 62 3.983 60.017 2 56.05 2 L 33 2 L 33 15 L 62 15 Z"></path>
</svg>